<svg width="467" height="533" viewBox="0 0 467 533" fill="none" xmlns="http://www.w3.org/2000/svg">
<g clip-path="url(#clip0_431_4174)">
<path d="M203.661 505.689L202.176 511.963L202.533 512.339C202.454 512.53 202.375 512.722 202.279 512.914C201.49 514.634 200.589 516.305 199.58 517.914C198.246 520.054 196.753 522.117 195.204 524.142C194.355 525.262 193.481 526.374 192.608 527.478C192.584 527.516 192.558 527.551 192.529 527.585C192.538 527.546 192.552 527.508 192.568 527.47L192.282 527.409L190.639 520.522L190.139 521.611V521.619L189.329 523.421C189.392 523.751 189.456 524.073 189.535 524.395C189.527 524.387 189.527 524.372 189.519 524.364C189.511 524.357 189.511 524.357 189.511 524.349C189.408 524.134 189.297 523.927 189.194 523.712L187.955 526.458L185.446 525.906C184.128 525.246 182.81 524.579 181.5 523.889C163.602 514.509 147.031 502.537 135.875 486.24C131.44 479.747 128.088 472.622 125.941 465.126C121.709 450.232 122.44 434.203 130.142 420.896L130.142 420.893L130.144 420.891L130.147 420.889L130.15 420.889C130.34 420.551 130.539 420.214 130.745 419.876C130.896 420.26 131.039 420.643 131.198 421.027V421.034C133.268 426.243 135.767 431.282 138.67 436.105C138.892 436.481 139.114 436.856 139.353 437.225C146.444 448.723 155.685 458.849 166.604 467.089C166.633 467.117 166.665 467.143 166.699 467.166C166.737 467.197 166.776 467.225 166.818 467.25C169.248 469.091 171.76 470.822 174.353 472.442V472.45C176.378 473.723 178.458 474.927 180.571 476.07C185.073 478.494 189.972 480.825 194.18 483.732C198.269 486.546 201.715 489.898 203.55 494.385C203.693 494.745 203.828 495.106 203.947 495.466L200.675 505.214L203.661 505.689Z" fill="#F0F0F0"/>
<path d="M190.139 521.611V521.619L189.329 523.421C188.106 516.856 189.559 509.915 188.551 503.266C188.44 502.522 188.297 501.778 188.114 501.042C187.082 496.839 184.723 492.904 180.531 491.025C179.307 490.487 178.023 490.088 176.704 489.837C174.099 489.3 171.384 489.185 168.756 488.886C168.097 488.809 167.445 488.725 166.81 488.61C163.412 488.101 160.167 486.89 157.298 485.059C153.785 482.647 150.724 479.675 148.246 476.269C146.608 474.132 145.085 471.915 143.68 469.628C143.49 469.336 143.315 469.037 143.132 468.738C139.846 463.241 137.151 457.433 135.089 451.405C134.027 448.324 133.136 445.191 132.421 442.018C130.83 435.084 130.065 427.998 130.142 420.896C130.142 420.895 130.142 420.894 130.143 420.893C130.143 420.893 130.144 420.892 130.144 420.891C130.145 420.89 130.146 420.89 130.147 420.889C130.148 420.889 130.149 420.889 130.15 420.889C130.142 420.567 130.15 420.244 130.158 419.922C130.174 419.263 131.23 419.409 131.214 420.068C131.206 420.39 131.198 420.705 131.198 421.027V421.034C131.133 427.838 131.844 434.628 133.318 441.282C133.398 441.619 133.477 441.957 133.548 442.294C135.695 451.514 139.303 460.359 144.244 468.516C144.3 468.608 144.355 468.7 144.419 468.792C145.57 470.686 146.809 472.527 148.111 474.329C150.503 477.799 153.445 480.883 156.829 483.471C159.677 485.528 162.984 486.912 166.485 487.513C166.834 487.574 167.183 487.636 167.541 487.689C167.819 487.735 168.104 487.774 168.39 487.804C171.066 488.126 173.814 488.249 176.474 488.74C177.683 488.96 178.87 489.281 180.023 489.699C181.909 490.429 183.615 491.536 185.027 492.948C186.439 494.359 187.526 496.043 188.217 497.889C188.925 499.681 189.41 501.548 189.662 503.45C189.75 504.071 189.813 504.692 189.869 505.321V505.329C189.948 506.341 189.988 507.361 190.004 508.381C190.02 509.654 189.996 510.927 189.964 512.193C189.788 515.332 189.846 518.48 190.139 521.611Z" fill="white"/>
<path d="M144.133 469.413C141.107 470.898 137.633 471.295 134.333 470.534C131.032 469.773 128.118 467.904 126.113 465.26C125.709 464.723 126.553 464.092 126.957 464.629C128.82 467.094 131.534 468.835 134.609 469.538C137.685 470.24 140.919 469.858 143.728 468.459C144.338 468.156 144.74 469.112 144.133 469.413Z" fill="white"/>
<path d="M166.382 487.819C168.593 481.468 168.244 474.546 165.405 468.432C165.124 467.826 166.111 467.436 166.393 468.04C169.335 474.408 169.682 481.613 167.366 488.217C167.145 488.846 166.162 488.445 166.382 487.819Z" fill="white"/>
<path d="M133.01 441.377C134.305 441.038 135.492 440.394 136.465 439.503C137.438 438.611 138.167 437.5 138.586 436.269C138.799 435.638 139.782 436.04 139.571 436.667C139.101 438.025 138.295 439.251 137.222 440.238C136.149 441.225 134.842 441.944 133.415 442.33C133.284 442.378 133.139 442.375 133.009 442.323C132.88 442.271 132.776 442.173 132.719 442.049C132.666 441.923 132.667 441.781 132.721 441.655C132.776 441.529 132.88 441.429 133.01 441.377Z" fill="white"/>
<path d="M192.481 527.647C192.497 527.624 192.513 527.608 192.529 527.585C192.497 527.677 192.465 527.769 192.441 527.869L192.481 527.647Z" fill="#F0F0F0"/>
<path d="M216.088 480.434L214.976 484.192L208.147 482.957L205.884 489.699L205.495 490.857L203.947 495.466L200.676 505.214L203.661 505.689L202.176 511.963L202.533 512.339L202.645 512.454L203.383 513.236L207.877 517.976L195.586 528.138L193.617 527.7L192.608 527.478C192.584 527.516 192.558 527.551 192.529 527.585C192.538 527.546 192.552 527.507 192.568 527.47L192.283 527.409L190.639 520.522L190.139 521.611V521.619L189.329 523.421C189.392 523.751 189.456 524.073 189.535 524.395C189.527 524.387 189.527 524.372 189.519 524.364C189.511 524.357 189.511 524.357 189.511 524.349C189.408 524.134 189.297 523.927 189.194 523.712C187.622 520.545 186.121 517.331 184.731 514.08C181.307 506.248 178.62 498.134 176.704 489.837C176.624 489.476 176.537 489.116 176.474 488.748V488.74C175.309 483.375 174.6 477.927 174.353 472.45V472.442C174.227 469.444 174.258 466.441 174.449 463.446C174.951 455.705 176.711 448.088 179.666 440.875C179.681 440.837 179.697 440.806 179.713 440.768C185.375 427.009 195.34 415.075 208.886 408.717C209.449 408.441 210.029 408.181 210.609 407.935H210.625L210.633 407.927C210.998 407.774 211.355 407.628 211.72 407.475C211.601 407.874 211.474 408.273 211.363 408.679C209.761 414.038 208.614 419.514 207.933 425.053V425.061C207.869 425.483 207.814 425.92 207.766 426.349V426.357C206.268 439.717 207.35 453.229 210.958 466.207C210.966 466.246 210.982 466.276 210.99 466.315C212.337 471.133 214.041 475.851 216.088 480.434Z" fill="#F0F0F0"/>
<path d="M203.384 513.236C202.756 514.049 202.113 514.839 201.462 515.629C200.835 516.388 200.208 517.147 199.58 517.914C197.941 519.866 196.477 521.949 195.205 524.142C194.568 525.28 194.036 526.471 193.617 527.7L192.609 527.478C192.585 527.516 192.558 527.551 192.529 527.585C192.539 527.546 192.552 527.507 192.569 527.47C194.419 521.887 198.627 517.561 202.28 512.914C202.407 512.76 202.526 512.607 202.645 512.454L203.384 513.236Z" fill="white"/>
<path d="M211.983 407.904C211.776 408.158 211.562 408.418 211.363 408.679C209.815 410.619 208.351 412.621 206.972 414.684C204.516 418.324 202.335 422.13 200.445 426.073C200.295 426.38 200.144 426.694 200.001 427.009C195.957 435.624 193.321 444.793 192.187 454.189C192.172 454.281 192.164 454.366 192.156 454.458C191.894 456.651 191.724 458.852 191.648 461.061C191.394 465.221 191.82 469.393 192.91 473.424C193.069 473.953 193.244 474.475 193.434 474.981C193.912 476.222 194.51 477.416 195.221 478.547C195.731 479.373 196.299 480.165 196.92 480.917C197.293 481.377 197.682 481.83 198.095 482.267C198.333 482.52 198.579 482.773 198.826 483.026C199.032 483.218 199.23 483.417 199.437 483.609C201.581 485.618 203.947 487.482 205.884 489.699L205.495 490.857C203.629 488.571 201.224 486.677 199.056 484.683C197.695 483.447 196.456 482.091 195.356 480.633C195.213 480.434 195.062 480.235 194.927 480.027C194.191 478.989 193.556 477.888 193.029 476.737C192.759 476.162 192.513 475.572 192.291 474.958C190.993 470.993 190.403 466.843 190.544 462.687C190.569 460.024 190.734 457.365 191.036 454.718C191.068 454.373 191.108 454.036 191.155 453.691C191.96 447.392 193.429 441.188 195.538 435.177C198.208 427.551 201.88 420.287 206.464 413.564C207.774 411.639 209.164 409.76 210.633 407.927C210.823 407.674 211.022 407.429 211.228 407.176C211.649 406.654 212.403 407.383 211.983 407.904Z" fill="white"/>
<path d="M191.533 454.815C188.192 454.241 185.171 452.538 183.009 450.011C180.848 447.484 179.687 444.297 179.734 441.02C179.737 440.886 179.794 440.759 179.892 440.665C179.991 440.571 180.123 440.518 180.261 440.516C180.4 440.514 180.533 440.565 180.634 440.656C180.735 440.748 180.795 440.874 180.801 441.007C180.752 444.059 181.834 447.028 183.851 449.377C185.869 451.726 188.689 453.301 191.804 453.818C192.48 453.932 192.205 454.928 191.533 454.815Z" fill="white"/>
<path d="M197.825 482.45C203.549 478.665 207.586 472.935 209.13 466.403C209.283 465.755 210.315 466.018 210.162 466.664C208.542 473.459 204.329 479.414 198.363 483.34C197.794 483.714 197.259 482.822 197.825 482.45Z" fill="white"/>
<path d="M200.128 425.962C201.373 426.444 202.723 426.621 204.055 426.475C205.388 426.329 206.662 425.866 207.764 425.127C208.328 424.746 208.862 425.639 208.302 426.017C207.081 426.828 205.673 427.338 204.201 427.502C202.729 427.666 201.238 427.48 199.857 426.959C199.723 426.92 199.609 426.834 199.538 426.717C199.467 426.6 199.446 426.462 199.477 426.33C199.513 426.198 199.602 426.085 199.724 426.016C199.846 425.948 199.992 425.928 200.128 425.962Z" fill="white"/>
<path d="M313.324 85.8416C307.312 54.7652 316.777 19.4104 343.083 0.599854C341.592 34.9492 352.728 68.7008 374.521 95.883C382.965 106.337 393.483 117.114 393.157 130.369C392.953 138.617 388.335 146.301 382.25 152.089C376.164 157.878 368.667 162.051 361.26 166.159L360.107 167.892C338.393 144.236 319.335 116.918 313.324 85.8416Z" fill="#F0F0F0"/>
<path d="M343.563 1.07497C332.511 24.9661 329.533 51.6135 335.054 77.2321C336.271 82.7137 337.999 88.1719 340.931 93.0419C343.827 97.7676 347.979 101.658 352.958 104.31C357.549 106.872 362.552 108.979 366.418 112.574C370.493 116.364 372.307 121.536 372.156 126.94C371.971 133.552 369.337 139.706 366.545 145.637C363.445 152.222 360.117 159.015 360.318 166.418C360.342 167.316 358.9 167.3 358.876 166.404C358.526 153.523 368.167 143.178 370.316 130.818C371.318 125.05 370.527 118.956 366.329 114.485C362.658 110.576 357.501 108.399 352.83 105.843C347.925 103.16 343.749 99.8451 340.645 95.2493C337.47 90.548 335.517 85.1436 334.16 79.7161C331.178 67.3866 330.221 54.6809 331.325 42.0644C332.503 27.6585 336.223 13.5533 342.325 0.359162C342.703 -0.457322 343.938 0.26382 343.563 1.07497Z" fill="white"/>
<path d="M332.773 69.0841C328.198 69.3952 323.656 68.1251 319.96 65.5006C316.265 62.8762 313.655 59.0683 312.598 54.757C312.387 53.8839 313.782 53.5264 313.993 54.4007C314.97 58.4171 317.401 61.9639 320.848 64.401C324.294 66.8381 328.529 68.0049 332.788 67.6908C333.714 67.6236 333.694 69.0173 332.773 69.0841Z" fill="white"/>
<path d="M350.452 103.306C356.663 96.5217 359.999 87.7249 359.794 78.67C359.773 77.7728 361.216 77.7885 361.237 78.6845C361.432 88.1077 357.941 97.2554 351.461 104.302C350.843 104.973 349.837 103.974 350.452 103.306Z" fill="white"/>
<path d="M334.192 28.5238C335.988 28.7597 337.817 28.5611 339.514 27.9455C341.212 27.33 342.724 26.317 343.916 24.9974C344.525 24.3189 345.53 25.3188 344.925 25.9929C343.601 27.4449 341.93 28.5617 340.056 29.2458C338.182 29.9298 336.164 30.1603 334.177 29.917C333.987 29.9092 333.808 29.8321 333.676 29.7014C333.543 29.5706 333.467 29.396 333.463 29.2131C333.466 29.0286 333.544 28.8527 333.68 28.7236C333.817 28.5946 334.001 28.5228 334.192 28.5238Z" fill="white"/>
<path d="M450.66 26.3048C450.292 26.7389 449.924 27.173 449.559 27.6185C444.646 33.4793 440.233 39.716 436.365 46.2671C436.058 46.769 435.754 47.2821 435.462 47.7915C426.318 63.6704 420.305 81.0512 417.73 99.0502C416.712 106.213 416.259 113.441 416.377 120.67C416.539 130.655 417.538 141.467 414.369 150.65C414.05 151.612 413.669 152.553 413.229 153.469L362.384 169.116C362.25 169.096 362.119 169.087 361.985 169.066L359.984 169.781C359.951 169.408 359.925 169.021 359.892 168.649C359.872 168.433 359.863 168.213 359.843 167.997C359.834 167.852 359.824 167.707 359.807 167.577C359.803 167.528 359.801 167.48 359.801 167.443C359.783 167.312 359.781 167.19 359.768 167.07C359.617 164.908 359.477 162.741 359.36 160.568C359.357 160.557 359.357 160.557 359.364 160.542C358.492 143.988 359.042 127.219 362.21 111.063C362.306 110.577 362.397 110.08 362.516 109.587C363.986 102.312 366.069 95.1658 368.744 88.219C370.221 84.4197 371.897 80.695 373.765 77.0594C378.609 67.6744 384.951 59.0837 392.559 51.6024C407.727 36.6905 427.664 26.6303 449.027 26.3135C449.574 26.3058 450.109 26.3013 450.66 26.3048Z" fill="#F0F0F0"/>
<path d="M450.751 26.9632C427.034 39.6119 408.047 59.1569 396.486 82.8221C394.041 87.9067 392.019 93.2701 391.324 98.8634C390.69 104.32 391.581 109.842 393.903 114.854C395.971 119.569 398.653 124.161 399.498 129.28C400.389 134.676 398.614 139.861 395.125 144.088C390.856 149.259 384.917 152.641 378.991 155.753C372.411 159.208 365.519 162.696 361.065 168.724C360.525 169.455 359.383 168.603 359.922 167.874C367.672 157.386 381.819 154.733 391.239 146.113C395.634 142.091 398.801 136.765 398.236 130.755C397.742 125.498 394.981 120.761 392.844 116.004C390.601 111.009 389.333 105.934 389.719 100.459C390.115 94.8593 391.924 89.4082 394.223 84.2856C399.528 72.707 406.684 62.006 415.43 52.5745C425.35 41.757 437.112 32.6582 450.209 25.6718C451.019 25.2397 451.556 26.534 450.751 26.9632Z" fill="white"/>
<path d="M399.744 74.9904C395.896 72.5778 393.062 68.9228 391.747 64.6781C390.432 60.4335 390.722 55.8755 392.565 51.8183C392.941 50.9986 394.278 51.5242 393.901 52.345C392.178 56.1201 391.908 60.3658 393.141 64.316C394.374 68.2662 397.028 71.6607 400.624 73.8867C401.405 74.3713 400.52 75.4722 399.744 74.9904Z" fill="white"/>
<path d="M392.528 112.597C401.717 110.792 409.864 105.708 415.344 98.3587C415.887 97.6301 417.029 98.4815 416.487 99.2092C410.769 106.847 402.28 112.12 392.713 113.978C391.801 114.155 391.621 112.772 392.528 112.597Z" fill="white"/>
<path d="M426.16 43.4306C427.447 44.6637 429.032 45.5687 430.77 46.0643C432.509 46.5599 434.348 46.6306 436.123 46.27C437.032 46.0824 437.211 47.4654 436.308 47.6518C434.346 48.0414 432.315 47.9609 430.392 47.4175C428.47 46.874 426.715 45.8842 425.28 44.5343C425.133 44.418 425.038 44.2523 425.014 44.0708C424.99 43.8893 425.038 43.7057 425.149 43.5572C425.266 43.4117 425.438 43.3167 425.627 43.293C425.817 43.2693 426.008 43.3188 426.16 43.4306Z" fill="white"/>
<path d="M123.928 48.7174C121.119 46.8019 118.045 44.8045 114.607 44.8843C106.286 45.0775 101.8 56.8594 93.4878 56.4451C88.1869 56.1808 84.6679 50.9795 79.7321 49.0935C73.3062 46.6383 65.1288 51.4401 64.4277 58.0802L65.253 57.3507C90.2317 63.2324 116.153 64.389 141.587 60.7568C135.701 56.7437 129.815 52.7306 123.928 48.7174Z" fill="#F0F0F0"/>
<path d="M139.498 62.8891C155.444 62.8891 168.371 50.4032 168.371 35.0012C168.371 19.5991 155.444 7.11328 139.498 7.11328C123.552 7.11328 110.625 19.5991 110.625 35.0012C110.625 50.4032 123.552 62.8891 139.498 62.8891Z" fill="#FF6582"/>
<path d="M207.082 29.6737C203.502 27.2325 199.584 24.687 195.203 24.7887C184.599 25.035 178.882 40.05 168.288 39.5219C161.533 39.1852 157.048 32.5565 150.758 30.153C142.569 27.024 132.147 33.1436 131.254 41.6058L132.306 40.6761C164.139 48.1718 197.173 49.6459 229.586 45.017C222.085 39.9025 214.584 34.7881 207.082 29.6737Z" fill="#F0F0F0"/>
<path d="M466.795 309.628L436.155 151.164C435.63 148.551 434.203 146.189 432.106 144.463C430.009 142.737 427.368 141.751 424.614 141.665C424.366 141.66 424.119 141.66 423.871 141.665L402.998 142.389L400.751 142.468L390.334 142.83L388.088 142.905L381.387 143.139L246.27 147.824C246.067 147.835 245.857 147.835 245.654 147.829L215.376 147.218L204.172 146.994L203.814 146.989L195.544 146.819L123.482 145.372L104.376 144.984L94.9555 144.798L92.6981 144.75L81.9559 144.537L79.704 144.489L68.7141 144.271L66.4621 144.224L54.3875 143.979L52.4935 143.942L41.7238 143.724L40.0225 143.692H39.7748C36.9156 143.703 34.1527 144.69 31.9743 146.479C29.796 148.268 28.3425 150.743 27.8709 153.466L0.159313 317.903C-0.122101 319.569 -0.0252311 321.274 0.443213 322.9C0.911656 324.526 1.74046 326.034 2.87223 327.32C4.00401 328.606 5.41169 329.639 6.99775 330.347C8.5838 331.055 10.3103 331.422 12.0577 331.422H171.202C173.544 331.428 175.824 332.154 177.71 333.496L180.727 335.655C182.807 337.133 185.32 337.934 187.902 337.942H281.69C283.275 337.946 284.845 337.646 286.309 337.06C287.773 336.474 289.102 335.613 290.219 334.528C292.13 332.683 294.679 331.586 297.377 331.448L455.574 323.397C457.29 323.31 458.966 322.87 460.491 322.107C462.017 321.344 463.355 320.274 464.418 318.971C465.48 317.667 466.242 316.159 466.652 314.548C467.062 312.936 467.111 311.259 466.795 309.628Z" fill="#CCCCCC"/>
<path d="M441.72 305.32L424.641 141.878C424.635 141.809 424.624 141.735 424.613 141.666C424.293 139.054 422.959 136.657 420.88 134.959L384.139 105.396C382.541 104.101 380.555 103.334 378.473 103.21C361.663 102.168 276.205 98.3068 244.662 124.754C243.704 125.558 242.576 126.151 241.357 126.489C240.137 126.827 238.856 126.903 237.603 126.711C236.347 126.514 235.15 126.058 234.093 125.373C233.036 124.688 232.145 123.791 231.48 122.744C228.798 118.706 225.284 115.244 221.157 112.575C219.303 111.333 217.373 110.201 215.375 109.188C213.608 108.289 211.686 107.417 209.594 106.577C207.794 105.853 205.872 105.157 203.813 104.492C193.137 101.046 178.865 98.4717 159.793 97.6101C151.881 97.2485 143.28 97.2006 134.234 97.4612C125.975 97.6952 117.198 98.1792 108.152 98.9024L108.02 98.9077L46.8102 135.002C45.4379 135.828 44.2782 136.945 43.4188 138.268C42.5594 139.591 42.0227 141.086 41.8493 142.639L41.7226 143.724L22.2866 311.463C22.1187 312.888 22.2544 314.331 22.6852 315.704C23.116 317.077 23.8329 318.35 24.7918 319.445C25.7253 320.513 26.8876 321.372 28.1985 321.964C29.5095 322.555 30.9377 322.864 32.3846 322.87H183.204C185.209 322.88 187.152 323.546 188.715 324.758L195.301 329.853C197.016 331.184 199.14 331.928 201.341 331.97L267.654 333.017H267.814C269.489 333.014 271.135 332.601 272.599 331.815L285.389 324.955C286.556 324.327 287.855 323.964 289.188 323.891L432.123 316.6C433.516 316.528 434.878 316.174 436.12 315.56C437.361 314.946 438.456 314.086 439.331 313.037C440.24 311.969 440.919 310.736 441.33 309.411C441.74 308.086 441.873 306.695 441.72 305.32Z" fill="#E6E6E6"/>
<path d="M391.83 275.845L389.829 250.406L381.389 143.142L380.134 127.274C379.817 123.106 377.904 119.201 374.768 116.322C371.633 113.442 367.499 111.793 363.174 111.697C332.246 110.93 276.243 112.28 248.762 130.065C245.706 132.072 241.998 132.937 238.33 132.5C234.662 132.063 231.283 130.352 228.824 127.688C225.021 123.656 220.456 120.363 215.373 117.986C211.654 116.184 207.787 114.681 203.812 113.492C192.18 109.902 177.501 107.722 159.775 106.95L117.708 106.712H117.636C114.722 106.715 111.918 107.789 109.795 109.716C107.671 111.643 106.386 114.279 106.202 117.089L104.376 144.982L96.3961 267.309C96.2469 269.588 96.5786 271.872 97.3712 274.024C98.1638 276.175 99.4007 278.148 101.007 279.824C102.613 281.499 104.555 282.842 106.715 283.77C108.875 284.699 111.207 285.194 113.571 285.225C184.184 286.237 215.032 300.633 228.483 312.52C231.343 315.055 234.996 316.595 238.865 316.898C242.734 317.201 246.597 316.249 249.842 314.192C274.258 298.746 314.849 294.451 347.158 293.784C357.052 293.584 366.167 293.715 373.806 293.976C376.261 294.061 378.707 293.645 380.984 292.754C383.26 291.863 385.317 290.518 387.018 288.806C388.72 287.095 390.028 285.056 390.857 282.822C391.686 280.589 392.018 278.211 391.83 275.845Z" fill="white"/>
<path d="M41.2776 311.326C41.2513 311.326 41.2238 311.325 41.1974 311.323C41.0502 311.313 40.9064 311.275 40.7743 311.211C40.6422 311.147 40.5244 311.059 40.4276 310.952C40.3308 310.844 40.2569 310.719 40.2102 310.584C40.1634 310.448 40.1447 310.305 40.1551 310.163L52.3046 144.464C52.3133 144.321 52.3515 144.181 52.4168 144.053C52.4822 143.925 52.5735 143.81 52.6854 143.716C52.7972 143.623 52.9274 143.551 53.0681 143.507C53.2089 143.462 53.3575 143.445 53.5051 143.457C53.6524 143.467 53.7962 143.505 53.9283 143.569C54.0603 143.633 54.1781 143.721 54.2749 143.828C54.3717 143.936 54.4456 144.061 54.4924 144.196C54.5391 144.332 54.5578 144.474 54.5474 144.617L42.3979 310.316C42.3781 310.59 42.2515 310.847 42.0436 311.034C41.8357 311.221 41.562 311.326 41.2776 311.326Z" fill="white"/>
<path d="M55.8987 304.808C55.8724 304.808 55.8449 304.807 55.8185 304.805C55.6712 304.795 55.5275 304.757 55.3954 304.693C55.2633 304.63 55.1455 304.541 55.0487 304.434C54.9519 304.326 54.878 304.201 54.8313 304.066C54.7845 303.931 54.7658 303.788 54.7762 303.645L66.9257 137.946C66.9344 137.803 66.9726 137.664 67.0379 137.535C67.1033 137.407 67.1946 137.292 67.3064 137.199C67.4183 137.105 67.5484 137.034 67.6892 136.989C67.83 136.945 67.9786 136.928 68.1262 136.939C68.2735 136.949 68.4173 136.987 68.5493 137.051C68.6814 137.115 68.7992 137.203 68.896 137.311C68.9928 137.418 69.0667 137.543 69.1134 137.679C69.1602 137.814 69.1789 137.957 69.1685 138.099L57.019 303.798C56.9992 304.072 56.8726 304.329 56.6647 304.516C56.4568 304.704 56.1831 304.808 55.8987 304.808Z" fill="white"/>
<path d="M69.3948 301.549C69.3685 301.549 69.341 301.548 69.3146 301.546C69.1673 301.536 69.0236 301.498 68.8915 301.434C68.7594 301.371 68.6416 301.282 68.5448 301.175C68.448 301.067 68.3741 300.942 68.3274 300.807C68.2806 300.672 68.2619 300.529 68.2723 300.387L80.4218 134.687C80.4305 134.544 80.4686 134.405 80.534 134.276C80.5994 134.148 80.6907 134.033 80.8025 133.94C80.9144 133.846 81.0445 133.775 81.1853 133.73C81.3261 133.686 81.4747 133.669 81.6223 133.681C81.7696 133.691 81.9133 133.728 82.0454 133.792C82.1775 133.856 82.2953 133.944 82.3921 134.052C82.4889 134.159 82.5628 134.284 82.6095 134.42C82.6563 134.555 82.675 134.698 82.6646 134.84L70.5151 300.539C70.4953 300.813 70.3687 301.07 70.1608 301.257C69.9529 301.445 69.6792 301.549 69.3948 301.549Z" fill="white"/>
<path d="M82.8909 295.031C82.8646 295.031 82.8371 295.03 82.8107 295.028C82.6635 295.018 82.5197 294.98 82.3876 294.917C82.2555 294.853 82.1377 294.765 82.0409 294.657C81.9441 294.549 81.8702 294.424 81.8235 294.289C81.7767 294.154 81.758 294.011 81.7684 293.869L93.9179 128.169C93.9266 128.027 93.9647 127.887 94.0301 127.759C94.0955 127.63 94.1868 127.516 94.2987 127.422C94.4105 127.328 94.5407 127.257 94.6814 127.212C94.8222 127.168 94.9708 127.151 95.1184 127.163C95.2657 127.173 95.4094 127.211 95.5415 127.274C95.6736 127.338 95.7914 127.426 95.8882 127.534C95.985 127.642 96.0589 127.767 96.1057 127.902C96.1524 128.037 96.1711 128.18 96.1607 128.322L84.0112 294.021C83.9914 294.295 83.8648 294.552 83.6569 294.739C83.449 294.927 83.1753 295.031 82.8909 295.031Z" fill="white"/>
<path d="M428.161 312.412C428.188 312.412 428.215 312.411 428.241 312.409C428.389 312.399 428.532 312.361 428.665 312.297C428.797 312.234 428.915 312.146 429.011 312.038C429.108 311.93 429.182 311.805 429.229 311.67C429.275 311.535 429.294 311.392 429.284 311.25L417.134 145.55C417.126 145.407 417.087 145.268 417.022 145.139C416.957 145.011 416.865 144.897 416.753 144.803C416.642 144.709 416.511 144.638 416.371 144.593C416.23 144.549 416.081 144.532 415.934 144.544C415.787 144.554 415.643 144.591 415.511 144.655C415.379 144.719 415.261 144.807 415.164 144.915C415.067 145.022 414.993 145.147 414.947 145.283C414.9 145.418 414.881 145.561 414.891 145.703L427.041 311.402C427.061 311.676 427.187 311.933 427.395 312.12C427.603 312.308 427.877 312.412 428.161 312.412Z" fill="white"/>
<path d="M413.54 302.635C413.567 302.635 413.594 302.634 413.62 302.632C413.768 302.622 413.911 302.584 414.043 302.521C414.176 302.457 414.293 302.369 414.39 302.261C414.487 302.153 414.561 302.028 414.608 301.893C414.654 301.758 414.673 301.615 414.663 301.473L402.513 135.774C402.504 135.631 402.466 135.491 402.401 135.363C402.336 135.234 402.244 135.12 402.132 135.026C402.021 134.932 401.89 134.861 401.75 134.816C401.609 134.772 401.46 134.755 401.313 134.767C401.165 134.777 401.022 134.815 400.89 134.878C400.757 134.942 400.64 135.03 400.543 135.138C400.446 135.246 400.372 135.371 400.325 135.506C400.279 135.641 400.26 135.784 400.27 135.926L412.42 301.626C412.44 301.9 412.566 302.156 412.774 302.344C412.982 302.531 413.256 302.635 413.54 302.635Z" fill="white"/>
<path d="M400.044 291.772C400.07 291.772 400.098 291.771 400.124 291.769C400.272 291.759 400.415 291.721 400.547 291.658C400.679 291.594 400.797 291.506 400.894 291.398C400.991 291.29 401.065 291.165 401.112 291.03C401.158 290.895 401.177 290.752 401.167 290.61L389.017 124.911C389.008 124.768 388.97 124.628 388.905 124.5C388.839 124.371 388.748 124.257 388.636 124.163C388.524 124.069 388.394 123.998 388.254 123.953C388.113 123.909 387.964 123.892 387.817 123.904C387.669 123.914 387.525 123.952 387.393 124.015C387.261 124.079 387.144 124.167 387.047 124.275C386.95 124.383 386.876 124.508 386.829 124.643C386.783 124.778 386.764 124.921 386.774 125.063L398.924 290.763C398.944 291.037 399.07 291.293 399.278 291.481C399.486 291.668 399.76 291.772 400.044 291.772Z" fill="white"/>
<path d="M124.04 144.143C149.391 136.331 177.674 138.399 201.69 149.405C208.543 152.529 215.015 156.379 220.986 160.885C222.676 162.165 225.08 159.875 223.372 158.58C201.313 142.054 173.597 134.204 145.792 136.606C138.099 137.271 130.505 138.745 123.143 141.001C121.083 141.636 121.963 144.784 124.04 144.143Z" fill="#3F3D56"/>
<path d="M263.537 162.149C287.107 150.183 315.331 147.573 340.958 154.366C348.264 156.298 355.325 159.009 362.009 162.45C363.924 163.437 365.631 160.625 363.712 159.636C339.288 147.048 309.969 144.151 283.298 151.168C275.857 153.129 268.66 155.867 261.834 159.335C259.912 160.311 261.615 163.125 263.537 162.149Z" fill="#3F3D56"/>
<path d="M263.537 183.875C287.107 171.909 315.331 169.3 340.958 176.092C348.264 178.024 355.325 180.735 362.009 184.176C363.924 185.163 365.631 182.351 363.712 181.362C339.288 168.774 309.969 165.877 283.298 172.894C275.857 174.855 268.66 177.593 261.834 181.061C259.912 182.037 261.615 184.851 263.537 183.875Z" fill="#3F3D56"/>
<path d="M364.538 204.435C364.556 204.156 364.486 203.877 364.338 203.636C364.189 203.395 363.97 203.203 363.707 203.085C344.141 193.189 321.956 189.175 300.008 191.56C299.871 191.571 299.744 191.592 299.595 191.603H299.59C299.455 191.614 299.32 191.634 299.188 191.661C286.134 193.112 273.47 196.882 261.835 202.781C261.582 202.927 261.372 203.135 261.226 203.383C261.08 203.631 261.004 203.911 261.004 204.196V244.726C261.008 244.975 261.071 245.22 261.188 245.443C261.305 245.665 261.472 245.859 261.678 246.01C261.884 246.16 262.122 246.264 262.376 246.312C262.629 246.361 262.891 246.353 263.14 246.289C263.658 246.146 264.175 246.007 264.704 245.874C276.466 242.799 288.541 240.975 300.713 240.434C300.972 240.423 301.23 240.413 301.5 240.402C311.415 239.991 321.347 240.336 331.205 241.434C331.411 241.445 331.617 241.466 331.822 241.497C332.328 241.551 332.846 241.609 333.352 241.673C333.556 241.694 333.749 241.715 333.936 241.747C335.907 241.987 337.862 242.258 339.822 242.55C342.652 242.987 345.482 243.472 348.312 244.008C348.488 244.04 348.67 244.082 348.852 244.114C353.394 244.986 357.914 245.997 362.413 247.113C362.663 247.176 362.925 247.182 363.179 247.133C363.432 247.083 363.671 246.979 363.877 246.827C364.082 246.676 364.25 246.481 364.366 246.258C364.483 246.035 364.545 245.789 364.549 245.539V204.499C364.551 204.477 364.547 204.455 364.538 204.435Z" fill="#3F3D56"/>
<path d="M302.653 193.77C301.417 193.185 300 193.065 298.677 193.433C298.093 193.644 297.558 193.966 297.103 194.379C296.649 194.792 296.284 195.288 296.029 195.838C295.571 196.893 295.277 198.008 295.157 199.147C295.088 199.595 295.083 200.16 295.549 200.369C295.718 200.428 295.901 200.442 296.078 200.408C296.254 200.374 296.418 200.294 296.551 200.177C296.791 199.948 296.99 199.681 297.137 199.387C297.946 198.171 299.06 197.172 300.375 196.481C301.689 195.791 303.163 195.432 304.66 195.437L305.905 195.916C304.925 195.064 303.831 194.342 302.653 193.77Z" fill="#FF6582"/>
<path d="M316.135 203.112C315.168 201.737 314.023 200.27 312.229 199.821C310.152 199.301 308.018 200.334 306.207 201.352C300.825 204.38 295.612 207.682 290.592 211.244L290.597 211.298L302.25 210.607C305.056 210.44 307.959 210.251 310.439 209.11C311.33 208.57 312.325 208.212 313.364 208.058C314.008 208.091 314.64 208.248 315.221 208.519C315.803 208.789 316.323 209.168 316.752 209.634C322.122 214.551 323.676 222.069 329.701 226.389C325.867 218.274 321.329 210.487 316.135 203.112Z" fill="white"/>
<path d="M301.503 240.401C301.233 240.412 300.974 240.423 300.715 240.434C298.837 239.782 296.914 239.206 294.968 238.706C293.709 238.381 292.427 238.087 291.144 237.838C289.694 237.533 288.232 237.294 286.77 237.088C283.986 236.697 281.18 236.468 278.368 236.404C278.347 236.406 278.325 236.404 278.305 236.397C278.285 236.391 278.266 236.381 278.25 236.367C278.234 236.353 278.221 236.336 278.212 236.317C278.204 236.298 278.199 236.278 278.199 236.257C278.199 236.236 278.204 236.216 278.212 236.197C278.221 236.178 278.234 236.161 278.25 236.147C278.266 236.133 278.285 236.123 278.305 236.117C278.325 236.11 278.347 236.108 278.368 236.11C278.728 236.11 279.088 236.121 279.437 236.143C282.255 236.244 285.064 236.508 287.849 236.936C289.3 237.164 290.751 237.436 292.191 237.74C293.495 238.022 294.8 238.337 296.082 238.685C297.915 239.185 299.722 239.757 301.503 240.401Z" fill="white"/>
<path d="M333.937 241.748C333.746 241.716 333.554 241.694 333.352 241.672C332.576 241.053 331.789 240.466 330.968 239.891C329.944 239.174 328.887 238.5 327.808 237.87C325.417 236.468 322.92 235.241 320.34 234.198C316.26 232.557 312.037 231.271 307.721 230.353C302.798 229.311 297.814 228.557 292.797 228.093C287.78 227.594 282.742 227.29 277.704 226.985C277.49 226.975 277.479 226.67 277.704 226.681C278.333 226.725 278.963 226.757 279.604 226.801C284.699 227.105 289.794 227.453 294.855 228.007C299.873 228.526 304.851 229.361 309.757 230.505C313.945 231.502 318.032 232.858 321.971 234.557C324.236 235.54 326.43 236.669 328.539 237.935C329.877 238.75 331.17 239.619 332.407 240.542C332.925 240.933 333.442 241.325 333.937 241.748Z" fill="white"/>
<path d="M331.825 241.498C331.62 241.467 331.413 241.445 331.206 241.433C330.97 241.249 330.722 241.075 330.475 240.901C328.744 239.704 326.937 238.612 325.065 237.631C323.365 236.739 321.62 235.93 319.835 235.209C315.757 233.563 311.534 232.276 307.217 231.363C302.293 230.321 297.309 229.567 292.292 229.104C287.276 228.604 282.238 228.3 277.199 227.996C276.986 227.974 276.986 227.681 277.199 227.692C277.84 227.735 278.47 227.768 279.1 227.811C284.195 228.115 289.289 228.463 294.35 229.017C299.369 229.536 304.346 230.371 309.252 231.515C313.441 232.51 317.529 233.866 321.466 235.567C322.951 236.219 324.402 236.925 325.819 237.696C327.92 238.811 329.928 240.082 331.825 241.498Z" fill="white"/>
<path d="M348.851 244.116C348.671 244.084 348.491 244.04 348.311 244.008C348.109 243.801 347.918 243.584 347.727 243.367C346.76 242.291 345.804 241.205 344.859 240.108C341.136 235.828 337.605 231.418 334.276 226.92C331.419 223.075 328.708 219.153 326.144 215.156C324.918 213.265 323.737 211.354 322.579 209.42C321.679 207.921 320.802 206.418 319.947 204.912C319.7 204.477 319.464 204.043 319.228 203.608C318.676 202.587 318.125 201.555 317.541 200.545C316.905 199.307 315.971 198.234 314.819 197.416C314.243 197.044 313.576 196.823 312.884 196.775C311.909 196.779 310.95 197.018 310.095 197.471C303.803 200.301 297.867 203.818 292.404 207.953C287.068 211.962 282.244 216.567 278.031 221.673C277.896 221.825 277.603 221.684 277.727 221.521C278.233 220.913 278.75 220.305 279.268 219.707C283.317 215.081 287.876 210.896 292.865 207.226C292.876 207.215 292.899 207.204 292.91 207.193C293.349 206.856 293.787 206.53 294.237 206.215C297.023 204.234 299.921 202.406 302.92 200.74C304.449 199.882 306.013 199.067 307.61 198.296C308.003 198.101 308.408 197.905 308.813 197.72C309.218 197.525 309.623 197.34 310.028 197.156C310.829 196.761 311.705 196.528 312.603 196.471C315.73 196.428 317.338 199.469 318.451 201.522C318.8 202.163 319.16 202.804 319.509 203.445C320.858 205.868 322.264 208.279 323.726 210.658C324.615 212.136 325.537 213.602 326.47 215.058C327.809 217.133 329.181 219.186 330.609 221.228L330.61 221.232L330.612 221.236L330.616 221.238L330.62 221.239C332.274 223.651 333.994 226.019 335.772 228.376C338.819 232.406 342.013 236.346 345.354 240.195C346.501 241.52 347.667 242.827 348.851 244.116Z" fill="white"/>
<path d="M364.552 239.326V239.825C363.438 238.565 362.302 237.316 361.178 236.067C360.705 235.545 360.233 235.024 359.761 234.503C357.759 232.308 355.746 230.121 353.721 227.941C351.685 225.769 349.65 223.596 347.592 221.434C347.097 220.913 346.602 220.392 346.096 219.87C345.691 219.432 345.251 219.025 344.78 218.653C344.305 218.272 343.759 217.98 343.172 217.795C342.496 217.614 341.782 217.607 341.102 217.774C340.326 217.947 339.584 218.219 338.831 218.447C338.054 218.697 337.29 218.936 336.514 219.175C334.961 219.664 333.421 220.153 331.869 220.641C331.85 220.649 331.829 220.653 331.808 220.652C331.788 220.652 331.767 220.648 331.748 220.64C331.729 220.631 331.712 220.62 331.698 220.605C331.684 220.59 331.673 220.573 331.666 220.554C331.657 220.534 331.653 220.512 331.654 220.489C331.656 220.467 331.662 220.445 331.672 220.426C331.683 220.406 331.698 220.389 331.717 220.375C331.735 220.362 331.756 220.353 331.779 220.348C332.161 220.229 332.555 220.109 332.949 219.99C334.512 219.49 336.064 219.001 337.627 218.512C338.403 218.262 339.179 218.023 339.955 217.785C340.675 217.52 341.435 217.374 342.205 217.35C343.461 217.437 344.639 217.971 345.511 218.849C345.995 219.284 346.433 219.74 346.872 220.207C347.389 220.75 347.907 221.293 348.424 221.836C350.504 224.031 352.57 226.232 354.621 228.441C356.679 230.657 358.718 232.877 360.739 235.1C360.885 235.263 361.031 235.426 361.178 235.589C362.314 236.827 363.427 238.077 364.552 239.326Z" fill="white"/>
<path d="M308.726 196.14L308.415 196.272C307.703 195.109 306.704 194.135 305.507 193.435C304.311 192.736 302.954 192.333 301.558 192.262C296.953 191.946 292.909 194.91 292.541 198.868C292.392 200.498 292.88 202.123 293.91 203.422L293.621 203.587C292.549 202.234 292.04 200.542 292.195 198.844C292.578 194.722 296.79 191.636 301.585 191.964C303.04 192.038 304.453 192.458 305.698 193.187C306.944 193.915 307.984 194.93 308.726 196.14Z" fill="#FF6582"/>
<path d="M285.973 204.149C284.765 203.641 283.449 203.419 282.134 203.5C280.818 203.58 279.542 203.962 278.41 204.614C282.543 205.226 286.639 206.048 290.683 207.077C289.009 206.233 287.699 204.912 285.973 204.149Z" fill="white"/>
<path d="M278.389 204.61L277.934 204.928C278.088 204.817 278.248 204.713 278.412 204.614L278.389 204.61Z" fill="white"/>
<path d="M344.605 220.655C344.181 220.126 343.614 219.72 342.968 219.479L342.328 219.501C347.348 227.046 353.924 233.509 361.646 238.489C355.966 232.544 350.286 226.599 344.605 220.655Z" fill="white"/>
<path d="M292.091 206.455C291.91 206.281 291.73 206.107 291.547 205.933C290.147 204.462 288.461 203.27 286.586 202.427C285.631 202.038 284.606 201.834 283.57 201.826C282.499 201.85 281.441 202.048 280.439 202.413C279.967 202.575 279.506 202.758 279.052 202.954C278.533 203.179 278.024 203.418 277.516 203.659C276.564 204.112 275.625 204.585 274.697 205.078C272.852 206.058 271.064 207.114 269.335 208.244C268.438 208.83 267.56 209.435 266.7 210.06C265.901 210.64 265.117 211.236 264.35 211.847C264.186 211.977 263.941 211.767 264.105 211.636C264.307 211.474 264.512 211.314 264.716 211.155C265.294 210.706 265.881 210.265 266.477 209.833C267.564 209.045 268.68 208.286 269.823 207.559C271.602 206.426 273.441 205.37 275.342 204.392C276.292 203.903 277.255 203.435 278.231 202.987C278.525 202.852 278.823 202.72 279.125 202.594C279.814 202.296 280.524 202.047 281.251 201.85C282.293 201.562 283.384 201.47 284.462 201.579C285.495 201.706 286.497 202.005 287.425 202.46C289.263 203.456 290.922 204.733 292.336 206.243C292.484 206.386 292.24 206.598 292.091 206.455Z" fill="white"/>
<path d="M124.04 165.87C149.391 158.057 177.674 160.126 201.69 171.131C208.543 174.255 215.015 178.105 220.986 182.611C222.676 183.891 225.08 181.601 223.372 180.306C201.313 163.781 173.597 155.93 145.792 158.332C138.099 158.997 130.505 160.471 123.143 162.727C121.083 163.362 121.963 166.51 124.04 165.87Z" fill="#3F3D56"/>
<path d="M124.04 187.596C149.391 179.783 177.674 181.852 201.69 192.857C208.543 195.981 215.015 199.832 220.986 204.337C222.676 205.617 225.08 203.327 223.372 202.032C201.313 185.507 173.597 177.656 145.792 180.058C138.099 180.723 130.505 182.197 123.143 184.453C121.083 185.088 121.963 188.236 124.04 187.596Z" fill="#3F3D56"/>
<path d="M124.04 209.322C149.391 201.509 177.674 203.578 201.69 214.583C208.543 217.707 215.015 221.557 220.986 226.063C222.676 227.343 225.08 225.053 223.372 223.758C201.313 207.233 173.597 199.382 145.792 201.784C138.099 202.449 130.505 203.923 123.143 206.179C121.083 206.814 121.963 209.962 124.04 209.322Z" fill="#3F3D56"/>
<path d="M124.04 231.048C149.391 223.235 177.674 225.304 201.69 236.309C208.543 239.433 215.015 243.284 220.986 247.789C222.676 249.069 225.08 246.779 223.372 245.484C201.313 228.959 173.597 221.108 145.792 223.51C138.099 224.175 130.505 225.649 123.143 227.905C121.083 228.54 121.963 231.688 124.04 231.048Z" fill="#3F3D56"/>
<path d="M124.04 252.774C149.391 244.961 177.674 247.03 201.69 258.036C208.543 261.16 215.015 265.01 220.986 269.515C222.676 270.795 225.08 268.505 223.372 267.21C201.313 250.685 173.597 242.834 145.792 245.236C138.099 245.901 130.505 247.375 123.143 249.631C121.083 250.266 121.963 253.414 124.04 252.774Z" fill="#3F3D56"/>
<path d="M215.377 109.188V170.08C215.377 171.117 213.505 171.984 210.978 172.218C210.537 172.261 210.075 172.282 209.596 172.282C208.205 172.307 206.821 172.089 205.51 171.638C205.267 171.547 205.032 171.439 204.806 171.314C204.178 170.958 203.814 170.538 203.814 170.08V104.492C205.874 105.156 207.795 105.853 209.596 106.576C211.688 107.417 213.61 108.289 215.377 109.188Z" fill="#6C63FF"/>
<path d="M239.609 130.067H237.957V327.04H239.609V130.067Z" fill="#E6E6E6"/>
<path d="M387.025 288.799C385.322 290.511 383.265 291.857 380.986 292.749C378.708 293.641 376.261 294.059 373.805 293.976C366.166 293.715 357.051 293.585 347.157 293.784L347.102 293.738L389.979 240.052L391.829 275.845C392.014 278.209 391.682 280.584 390.855 282.816C390.027 285.048 388.722 287.086 387.025 288.799Z" fill="#F2F2F2"/>
<path d="M280.285 476.431L277.998 494.362L276.251 507.99L275.553 513.489H265.611V508.604L265.604 492.437V476.431H280.285Z" fill="#FFB6B6"/>
<path d="M210.966 474.552L208.147 482.957L205.884 489.699L205.495 490.857L203.947 495.466L200.676 505.214L199.048 510.069L190.004 508.381L189.281 508.251L189.869 505.321L190.226 503.534L194.18 483.732L194.824 480.541L194.927 480.028L195.221 478.547L196.555 471.867L206.194 473.662L207.306 473.869L210.966 474.552Z" fill="#FFB6B6"/>
<path d="M295.219 369.65C289.534 399.829 288.113 412.859 288.113 412.859C288.113 412.859 292.377 417.66 289.534 420.406C286.692 423.151 289.534 428.635 289.534 428.635L283.142 495.167L277.997 494.362L265.602 492.437L261.132 491.739L263.975 429.325C263.975 429.325 261.132 423.834 262.553 422.461C263.974 421.088 261.132 412.859 261.132 412.859L257.583 347.7L235.564 419.033C235.564 419.033 237.7 421.778 235.564 423.834C233.436 425.889 229.18 436.182 229.18 436.182L216.087 480.434L214.975 484.192L208.146 482.957L200.714 481.607L199.349 481.362L196.919 480.917L195.355 480.633L194.823 480.541L192.25 480.073L193.028 476.737L193.433 474.981L204.51 427.461L204.764 426.365L205.034 425.207C205.034 425.207 203.613 421.778 205.741 419.715C206.363 419.087 206.818 418.321 207.065 417.484C207.313 416.648 207.346 415.766 207.162 414.914C207.092 414.843 207.028 414.766 206.971 414.684C206.72 414.351 206.547 413.969 206.463 413.565C206.273 412.706 206.439 411.501 207.876 410.113C208.281 409.698 208.621 409.228 208.885 408.717C211.045 404.768 212.132 396.4 212.132 396.4C212.132 396.4 214.054 330.129 220.343 320.006C220.591 319.564 220.942 319.183 221.367 318.893C228.466 314.783 296.633 318.893 296.633 318.893C296.633 318.893 296.728 319.369 296.879 320.274C297.697 325.359 300.039 344.049 295.219 369.65Z" fill="#2F2E41"/>
<path d="M292.986 247.899L294.977 236.317L331.632 242.275L383.637 245.869C384.765 244.664 386.267 243.842 387.918 243.527C389.569 243.212 391.281 243.42 392.799 244.121C394.318 244.822 395.561 245.978 396.345 247.416C397.128 248.855 397.41 250.499 397.147 252.105C396.885 253.711 396.093 255.191 394.889 256.327C393.685 257.462 392.133 258.192 390.465 258.407C388.797 258.622 387.101 258.311 385.631 257.52C384.161 256.729 382.994 255.501 382.305 254.018L350.41 256.091L292.986 247.899Z" fill="#FFB6B6"/>
<path d="M265.586 239.882L268.174 229.543C268.174 229.543 282.228 227.045 293.34 229.435L335.141 237.184L331.758 261.591L265.586 239.882Z" fill="#6C63FF"/>
<path d="M168.561 325.017L191.947 275.945L209.014 241.227L223.816 249.641L177.738 330.417C178.143 331.857 178.096 333.381 177.604 334.795C177.113 336.21 176.197 337.452 174.975 338.364C173.752 339.276 172.277 339.818 170.736 339.92C169.195 340.022 167.656 339.681 166.316 338.939C164.976 338.197 163.893 337.088 163.205 335.752C162.518 334.416 162.256 332.913 162.452 331.433C162.649 329.953 163.296 328.562 164.31 327.437C165.325 326.312 166.663 325.503 168.154 325.112C168.289 325.077 168.424 325.045 168.561 325.017Z" fill="#FFB6B6"/>
<path d="M236.009 226.35L224.657 221.32C224.657 221.32 222.645 220.645 218.304 226.45C213.963 232.255 176.625 287.031 176.625 287.031L200.335 297.384L236.009 226.35Z" fill="#6C63FF"/>
<path d="M293.133 524.165L278.356 514.302V507.867L276.252 507.99L265.612 508.604L262.809 508.765L260.871 531.175L260.848 531.489H267.827L267.891 531.175L269.074 525.124L272.099 531.175L272.258 531.489H290.775C291.331 531.488 291.881 531.381 292.394 531.175C293.082 530.894 293.678 530.441 294.121 529.861C294.565 529.282 294.838 528.598 294.914 527.881C294.989 527.164 294.864 526.441 294.551 525.787C294.237 525.134 293.747 524.573 293.133 524.165Z" fill="#2F2E41"/>
<path d="M214.317 524.755L207.877 517.976L203.383 513.236L202.645 512.454L202.534 512.339L202.176 511.963L203.661 505.689L200.676 505.214L190.226 503.534L189.662 503.45L188.551 503.266L188.297 503.227L184.731 514.08L181.5 523.889L181.15 524.963L185.446 525.906L187.955 526.458L189.194 523.712L189.329 523.421L190.139 521.619V521.611L190.639 520.522L192.283 527.409L192.569 527.47L192.608 527.478L193.617 527.7L195.586 528.138L209.354 531.175L210.331 531.389C211.407 531.621 212.533 531.432 213.466 530.865C214.398 530.297 215.061 529.397 215.309 528.36C215.459 527.727 215.447 527.067 215.274 526.439C215.101 525.811 214.773 525.234 214.317 524.755Z" fill="#2F2E41"/>
<path d="M278.045 194.71C276.439 197.556 274.21 200.03 271.512 201.959C268.815 203.887 265.714 205.224 262.426 205.876C262.061 205.953 261.696 206.014 261.323 206.068C256.164 206.847 250.885 205.917 246.343 203.429C241.801 200.941 238.265 197.043 236.309 192.367C234.353 187.691 234.093 182.514 235.571 177.677C237.048 172.84 240.177 168.629 244.448 165.728C248.719 162.827 253.88 161.407 259.093 161.7C264.305 161.992 269.261 163.98 273.156 167.339C277.05 170.698 279.652 175.232 280.54 180.201C281.428 185.171 280.548 190.284 278.045 194.71Z" fill="#FFB6B6"/>
<path d="M268.85 164.393C261.284 159.366 254.62 158.6 249.146 160.026C248.437 158.966 247.442 158.112 246.268 157.557C241.999 147.167 229.007 140.928 217.858 143.961C206.636 147.014 198.894 159.02 201.005 170.094C202.314 176.958 206.786 182.902 208.585 189.662C212.068 202.748 203.573 217.739 190.283 221.957C202.866 224.397 216.716 216.974 221.231 205.369C223.423 199.733 223.555 193.579 223.834 187.564C223.907 183.413 224.434 179.28 225.405 175.235C225.887 173.42 226.568 171.66 227.437 169.985C229.328 166.303 232.47 163.359 236.338 161.644C235.992 162.678 235.905 163.778 236.085 164.851C236.266 165.924 236.708 166.941 237.375 167.817C234.424 171.387 232.818 175.249 232.818 177.561C226.688 188.383 235.454 197.678 246.658 203.599C251.126 205.973 256.286 206.841 261.323 206.068L261.792 204.135L262.427 205.876L264.547 211.713C266.993 212.856 269.417 214.108 271.82 215.471C270.907 211.329 270.169 207.196 269.66 203.154C268.957 197.653 271.41 189.463 273.179 184.483C274.276 181.413 274.839 178.189 274.846 174.942V174.8L276.569 180.146L282.841 177.561C281.674 171.096 282.841 163.756 268.85 164.393Z" fill="#2F2E41"/>
<path d="M220.654 312.722C221.479 309.57 221.479 306.271 220.654 303.119C219.234 298.318 222.075 296.261 222.075 296.261L222.785 222.186C225.785 219.288 233.823 219.241 238.319 219.467V216.204C238.319 215.003 238.814 213.851 239.693 213.002C240.572 212.152 241.765 211.675 243.009 211.675H263.803C265.047 211.675 266.24 212.152 267.119 213.002C267.999 213.851 268.493 215.003 268.493 216.204V220.115L274.592 220.207C285.213 220.971 294.505 231.102 294.505 231.102L285.274 265.396C285.274 265.396 288.114 293.517 291.665 296.947C295.215 300.376 293.795 302.434 293.795 302.434C293.795 302.434 291.665 309.978 295.925 312.722C300.186 315.465 297.345 320.266 297.345 320.266C297.345 320.266 220.655 321.638 218.524 319.58C216.394 317.523 220.654 312.722 220.654 312.722Z" fill="#6C63FF"/>
<path d="M361.958 532.087C361.958 532.207 361.934 532.326 361.886 532.437C361.839 532.548 361.769 532.649 361.682 532.734C361.594 532.818 361.489 532.886 361.375 532.931C361.26 532.977 361.137 533 361.013 533H138.455C138.204 533 137.964 532.904 137.787 532.733C137.609 532.562 137.51 532.329 137.51 532.087C137.51 531.845 137.609 531.613 137.787 531.442C137.964 531.271 138.204 531.175 138.455 531.175H361.013C361.137 531.174 361.26 531.198 361.375 531.243C361.489 531.289 361.594 531.356 361.682 531.441C361.769 531.526 361.839 531.627 361.886 531.738C361.934 531.849 361.958 531.967 361.958 532.087Z" fill="#CCCCCC"/>
</g>
<defs>
<clipPath id="clip0_431_4174">
<rect width="467" height="533" fill="white"/>
</clipPath>
</defs>
</svg>
