<svg width="603" height="452" viewBox="0 0 603 452" fill="none" xmlns="http://www.w3.org/2000/svg">
<g clip-path="url(#clip0_431_4265)">
<path d="M384.262 338.85V447.809H120.289C90.2125 447.809 65.7422 423.369 65.7422 393.33C65.7422 363.291 90.2125 338.85 120.289 338.85H384.262Z" fill="#F2F2F2"/>
<path d="M390.746 446.971C390.745 448.082 390.318 449.148 389.558 449.934C388.798 450.72 387.768 451.161 386.693 451.162H115.587C100.862 451.162 86.7409 445.113 76.3293 434.346C65.9176 423.579 60.0684 408.976 60.0684 393.749C60.0684 378.522 65.9176 363.919 76.3293 353.152C86.7409 342.385 100.862 336.336 115.587 336.336H386.693C387.768 336.336 388.799 336.777 389.559 337.563C390.319 338.349 390.746 339.415 390.746 340.527C390.746 341.638 390.319 342.704 389.559 343.49C388.799 344.276 387.768 344.717 386.693 344.717H115.587C103.012 344.717 90.9519 349.883 82.0602 359.078C73.1685 368.274 68.1732 380.745 68.1732 393.749C68.1732 406.753 73.1685 419.224 82.0602 428.419C90.9519 437.615 103.012 442.78 115.587 442.78H386.693C387.768 442.781 388.798 443.223 389.558 444.008C390.318 444.794 390.745 445.86 390.746 446.971Z" fill="#6C63FF"/>
<path d="M384.261 363.995H100.592C100.377 363.995 100.171 363.906 100.019 363.749C99.8667 363.592 99.7812 363.379 99.7812 363.157C99.7812 362.934 99.8667 362.721 100.019 362.564C100.171 362.407 100.377 362.318 100.592 362.318H384.261C384.476 362.318 384.682 362.407 384.834 362.564C384.986 362.721 385.072 362.934 385.072 363.157C385.072 363.379 384.986 363.592 384.834 363.749C384.682 363.906 384.476 363.995 384.261 363.995Z" fill="#CCCCCC"/>
<path d="M384.261 384.11H100.592C100.377 384.11 100.171 384.022 100.019 383.865C99.8667 383.708 99.7812 383.494 99.7812 383.272C99.7812 383.05 99.8667 382.837 100.019 382.679C100.171 382.522 100.377 382.434 100.592 382.434H384.261C384.476 382.434 384.682 382.522 384.834 382.679C384.986 382.837 385.072 383.05 385.072 383.272C385.072 383.494 384.986 383.708 384.834 383.865C384.682 384.022 384.476 384.11 384.261 384.11Z" fill="#CCCCCC"/>
<path d="M384.261 404.226H100.592C100.377 404.226 100.171 404.137 100.019 403.98C99.8667 403.823 99.7812 403.61 99.7812 403.388C99.7812 403.165 99.8667 402.952 100.019 402.795C100.171 402.638 100.377 402.549 100.592 402.549H384.261C384.476 402.549 384.682 402.638 384.834 402.795C384.986 402.952 385.072 403.165 385.072 403.388C385.072 403.61 384.986 403.823 384.834 403.98C384.682 404.137 384.476 404.226 384.261 404.226Z" fill="#CCCCCC"/>
<path d="M384.261 424.341H100.592C100.377 424.341 100.171 424.253 100.019 424.096C99.8667 423.939 99.7812 423.725 99.7812 423.503C99.7812 423.281 99.8667 423.068 100.019 422.91C100.171 422.753 100.377 422.665 100.592 422.665H384.261C384.476 422.665 384.682 422.753 384.834 422.91C384.986 423.068 385.072 423.281 385.072 423.503C385.072 423.725 384.986 423.939 384.834 424.096C384.682 424.253 384.476 424.341 384.261 424.341Z" fill="#CCCCCC"/>
<path d="M602.19 452H0.810484C0.59553 452 0.38938 451.912 0.237385 451.754C0.0853894 451.597 0 451.384 0 451.162C0 450.94 0.0853894 450.726 0.237385 450.569C0.38938 450.412 0.59553 450.324 0.810484 450.324H602.19C602.404 450.324 602.611 450.412 602.763 450.569C602.915 450.726 603 450.94 603 451.162C603 451.384 602.915 451.597 602.763 451.754C602.611 451.912 602.404 452 602.19 452Z" fill="#CCCCCC"/>
<path d="M274.01 327.398L264.744 327.397L260.338 290.438L274.013 290.44L274.01 327.398Z" fill="#FFB8B8"/>
<path d="M258.124 324.659H275.994V336.294H246.873C246.873 334.767 247.164 333.254 247.729 331.842C248.295 330.43 249.124 329.148 250.168 328.067C251.213 326.987 252.453 326.13 253.819 325.545C255.184 324.96 256.647 324.659 258.124 324.659Z" fill="#2F2E41"/>
<path d="M179.348 327.398L170.082 327.397L165.676 290.438L179.351 290.44L179.348 327.398Z" fill="#FFB8B8"/>
<path d="M163.464 324.659H181.333V336.294H152.213C152.213 334.767 152.504 333.254 153.069 331.842C153.635 330.43 154.463 329.148 155.508 328.067C156.553 326.987 157.793 326.13 159.158 325.545C160.523 324.96 161.986 324.659 163.464 324.659Z" fill="#2F2E41"/>
<path d="M210.297 53.25V49.0592C210.297 41.8903 213.051 35.0151 217.953 29.946C222.854 24.8768 229.503 22.029 236.435 22.029C243.367 22.029 250.016 24.8768 254.917 29.946C259.819 35.0151 262.573 41.8903 262.573 49.0592V53.25C262.573 58.4182 260.588 63.3748 257.054 67.0293C253.52 70.6838 248.727 72.7368 243.729 72.7368H229.141C226.666 72.7368 224.216 72.2328 221.929 71.2535C219.643 70.2742 217.566 68.8388 215.816 67.0293C214.066 65.2197 212.678 63.0715 211.731 60.7073C210.784 58.343 210.297 55.809 210.297 53.25Z" fill="#2F2E41"/>
<path d="M236.436 74.1788C247.43 74.1788 256.342 64.9623 256.342 53.5931C256.342 42.2239 247.43 33.0074 236.436 33.0074C225.442 33.0074 216.529 42.2239 216.529 53.5931C216.529 64.9623 225.442 74.1788 236.436 74.1788Z" fill="#FFB8B8"/>
<path d="M128.158 124.344C128.965 123.555 129.931 122.959 130.985 122.597C132.04 122.236 133.159 122.118 134.262 122.252C135.365 122.386 136.427 122.769 137.372 123.373C138.317 123.977 139.123 124.788 139.732 125.749L156.796 122.411L161.287 132.641L137.125 137.005C135.496 137.956 133.586 138.256 131.757 137.848C129.929 137.44 128.308 136.353 127.203 134.793C126.098 133.232 125.585 131.306 125.76 129.381C125.936 127.455 126.789 125.662 128.158 124.344Z" fill="#FFB8B8"/>
<path d="M221.138 87.4927L193.156 106.556L145.938 122.148C145.312 122.356 144.775 122.782 144.419 123.353C144.063 123.924 143.909 124.606 143.983 125.281L145.013 134.456C145.059 134.862 145.186 135.254 145.387 135.606C145.588 135.958 145.857 136.263 146.178 136.502C146.5 136.74 146.866 136.906 147.253 136.989C147.639 137.073 148.039 137.072 148.426 136.986L192.864 127.135C195.015 126.662 197.048 125.736 198.839 124.415L230.276 101.285C231.415 100.442 232.325 99.3083 232.915 97.9942C233.506 96.6801 233.758 95.2303 233.646 93.7858C233.531 92.3393 233.053 90.9488 232.261 89.7511C231.468 88.5533 230.388 87.5895 229.126 86.9545C227.864 86.3196 226.463 86.0353 225.063 86.1296C223.662 86.224 222.31 86.6937 221.138 87.4927Z" fill="#CCCCCC"/>
<path d="M264.91 316.91C264.199 316.91 263.503 316.696 262.907 316.294C262.312 315.892 261.842 315.319 261.556 314.646L219.079 206.105C218.98 205.87 218.813 205.672 218.602 205.537C218.39 205.402 218.144 205.338 217.896 205.352C217.648 205.367 217.41 205.459 217.215 205.618C217.019 205.776 216.875 205.993 216.802 206.238L182.148 311.906C182.001 312.398 181.759 312.853 181.436 313.245C181.114 313.636 180.717 313.955 180.27 314.182C179.824 314.409 179.337 314.539 178.84 314.565C178.343 314.59 177.846 314.51 177.381 314.329L165.76 309.823C165.129 309.58 164.575 309.162 164.161 308.614C163.746 308.065 163.487 307.409 163.412 306.718C158.184 259.62 203.774 140.74 204.235 139.545L204.363 139.214L245.922 148.721L246.008 148.818C262.589 167.524 276.218 285.505 278.782 308.966C278.877 309.813 278.691 310.669 278.253 311.392C277.815 312.115 277.152 312.663 276.374 312.944L266.116 316.696C265.729 316.838 265.321 316.91 264.91 316.91Z" fill="#2F2E41"/>
<path d="M229.102 152.547C219.033 152.547 207.807 150.471 204.352 141.902L204.272 141.705L204.379 141.523C207.107 136.895 210.712 129.001 208.774 127.519C204.957 124.6 203.105 119.799 203.27 113.249C203.627 99.0291 212.996 86.4041 226.584 81.8332C230.377 80.578 234.237 79.5503 238.144 78.7552C240.993 78.1608 243.933 78.2262 246.755 78.9467C249.576 79.6671 252.208 81.0248 254.461 82.9222C256.743 84.832 258.588 87.2408 259.862 89.9755C261.137 92.7101 261.81 95.7028 261.833 98.7385C261.976 113.935 259.714 135.1 248.126 149.631C247.583 150.305 246.828 150.76 245.992 150.914C240.418 151.957 234.767 152.503 229.102 152.547Z" fill="#CCCCCC"/>
<path d="M225.357 151.978C225.905 149.945 227.206 148.218 228.979 147.173C230.751 146.127 232.851 145.846 234.822 146.393C235.224 146.509 235.617 146.659 235.996 146.842L248.952 134.648L257.963 140.926L239.434 157.882C238.598 159.442 237.28 160.668 235.692 161.365C234.104 162.062 232.337 162.189 230.67 161.727C229.7 161.452 228.792 160.981 227.998 160.341C227.205 159.701 226.542 158.905 226.048 157.999C225.553 157.092 225.238 156.093 225.119 155.06C225.001 154.027 225.082 152.979 225.357 151.978Z" fill="#FFB8B8"/>
<path d="M246.9 152.133C246.059 152.134 245.244 151.833 244.593 151.282L239.484 146.964C239.058 146.604 238.716 146.149 238.484 145.633C238.252 145.118 238.136 144.554 238.145 143.985C238.153 143.417 238.286 142.857 238.533 142.349C238.781 141.841 239.136 141.397 239.572 141.051L261.003 124.054C261.257 123.851 261.423 123.553 261.466 123.224C261.509 122.896 261.425 122.563 261.232 122.298L248.005 104.214C246.468 102.12 245.698 99.5311 245.829 96.9058C245.961 94.2805 246.986 91.7881 248.724 89.8696C250.555 87.8253 253.061 86.5672 255.747 86.3451C258.433 86.123 261.101 86.953 263.222 88.6705L263.306 88.7618L277.118 109.215C278.612 110.426 279.814 111.977 280.632 113.748C281.45 115.52 281.861 117.462 281.832 119.425C281.804 121.387 281.338 123.317 280.469 125.062C279.601 126.807 278.354 128.321 276.826 129.486L249.071 151.393C248.442 151.874 247.681 152.133 246.9 152.133Z" fill="#CCCCCC"/>
<path d="M218.803 47.802V37.5882L236.435 29.6258L253.248 37.5882V47.802C253.248 48.2465 253.078 48.6729 252.774 48.9873C252.47 49.3016 252.057 49.4783 251.627 49.4783H220.424C219.994 49.4783 219.581 49.3016 219.278 48.9873C218.974 48.6729 218.803 48.2465 218.803 47.802Z" fill="#2F2E41"/>
<path d="M235.625 23.384C233.032 14.8026 238.477 4.96795 246.526 1.57123C254.576 -1.8255 264.206 0.548916 270.998 6.16082C277.79 11.7727 282.004 20.1783 284.237 28.8672C286.47 37.556 286.894 46.6164 287.306 55.5967C297.195 57.4754 303.923 69.6057 300.497 79.3819C297.071 89.1581 284.391 94.0149 275.633 88.9052C266.876 83.7954 264.339 70.0598 270.66 61.9725C273.65 58.1457 275.321 53.3965 275.407 48.4771C275.493 43.5577 273.989 38.7492 271.134 34.8133C268.279 30.8773 264.236 28.0389 259.645 26.7476C255.054 25.4563 250.177 25.7859 245.788 27.6842C240.914 29.792 234.798 24.3154 235.625 23.384Z" fill="#2F2E41"/>
<path d="M124.501 84.7221C112.66 84.6417 100.968 81.9934 90.1786 76.9484C89.5364 76.6524 88.9912 76.1696 88.6096 75.5588C88.228 74.9481 88.0264 74.2358 88.0293 73.5086V42.9851C88.0304 41.9851 88.415 41.0264 89.0988 40.3194C89.7825 39.6123 90.7095 39.2145 91.6765 39.2134H157.326C158.293 39.2146 159.22 39.6123 159.903 40.3194C160.587 41.0265 160.972 41.9851 160.973 42.9851V73.5087C160.976 74.2358 160.774 74.9481 160.393 75.5589C160.011 76.1696 159.466 76.6524 158.824 76.9484C148.034 81.9935 136.342 84.6417 124.501 84.7221Z" fill="#6C63FF"/>
<path d="M124.493 59.9943C124.006 59.9948 123.524 59.8946 123.075 59.6997L71.0165 36.9863C70.3452 36.6934 69.7741 36.1993 69.3768 35.5676C68.9796 34.9359 68.7744 34.1957 68.7877 33.4423C68.8011 32.689 69.0324 31.957 69.4517 31.3408C69.8711 30.7246 70.4593 30.2525 71.1406 29.9852L123.2 9.56153C124.039 9.23107 124.966 9.23311 125.803 9.56726L177.165 29.9909C177.842 30.2603 178.427 30.7326 178.843 31.3473C179.259 31.962 179.489 32.6912 179.502 33.4416C179.516 34.192 179.312 34.9295 178.918 35.5597C178.524 36.1899 177.957 36.6842 177.29 36.9793L125.927 59.6923C125.474 59.8921 124.986 59.9948 124.493 59.9943Z" fill="#6C63FF"/>
<path d="M94.109 79.0253C96.7947 79.0253 98.9719 76.7738 98.9719 73.9964C98.9719 71.2191 96.7947 68.9676 94.109 68.9676C91.4233 68.9676 89.2461 71.2191 89.2461 73.9964C89.2461 76.7738 91.4233 79.0253 94.109 79.0253Z" fill="#3F3D56"/>
<path opacity="0.2" d="M177.467 33.7553L126.104 56.4683C125.704 56.6454 125.273 56.7372 124.838 56.7383C124.402 56.7394 123.971 56.6497 123.57 56.4747L71.5107 33.7619C70.8569 33.4835 70.3115 32.9877 69.9606 32.3529C69.731 32.7646 69.5888 33.222 69.5433 33.6948C69.4978 34.1677 69.5501 34.6451 69.6967 35.0954C69.8433 35.5458 70.0808 35.9587 70.3936 36.3068C70.7064 36.6549 71.0871 36.9303 71.5107 37.1145L123.57 59.8273C123.971 60.0023 124.402 60.092 124.838 60.0909C125.273 60.0898 125.704 59.998 126.104 59.8209L177.467 37.1079C177.889 36.922 178.267 36.6458 178.578 36.2975C178.888 35.9493 179.124 35.5368 179.269 35.0875C179.414 34.6381 179.465 34.162 179.419 33.6906C179.374 33.2192 179.232 32.7633 179.003 32.3529C178.654 32.9826 178.115 33.4756 177.467 33.7553Z" fill="black"/>
<path d="M94.5175 73.9768C94.7325 73.9768 94.9386 73.8885 95.0906 73.7313C95.2426 73.5741 95.328 73.3609 95.328 73.1386V45.0931L122.059 35.0227C122.274 35.026 122.481 34.9408 122.635 34.786C122.79 34.6312 122.878 34.4193 122.881 34.197C122.884 33.9747 122.802 33.7602 122.652 33.6007C122.503 33.4412 122.298 33.3497 122.083 33.3464L95.3521 43.4168C95.137 43.4117 94.9232 43.4518 94.7235 43.5346C94.5238 43.6175 94.3425 43.7414 94.1904 43.8989C94.0368 44.0545 93.9149 44.2403 93.8318 44.4454C93.7488 44.6505 93.7064 44.8707 93.707 45.0931V73.1386C93.707 73.3609 93.7924 73.5741 93.9444 73.7313C94.0964 73.8884 94.3026 73.9768 94.5175 73.9768Z" fill="#3F3D56"/>
</g>
<defs>
<clipPath id="clip0_431_4265">
<rect width="603" height="452" fill="white"/>
</clipPath>
</defs>
</svg>
