<svg width="738" height="594" viewBox="0 0 738 594" fill="none" xmlns="http://www.w3.org/2000/svg">
<g clip-path="url(#clip0_431_9450)">
<path d="M268.427 450.574C266.193 445.221 265.948 439.247 267.735 433.729C269.522 428.212 273.223 423.515 278.17 420.489C279.817 419.487 278.311 416.891 276.656 417.898C270.982 421.286 266.747 426.637 264.753 432.938C262.759 439.239 263.144 446.052 265.836 452.088C266.593 453.858 269.178 452.331 268.427 450.574Z" fill="#3F3D56"/>
<path d="M269.284 454.609C265.238 447.44 266.19 438.862 267.646 431.11C269.165 423.017 271.157 414.801 269.433 406.571C268.652 402.575 266.802 398.865 264.08 395.837C262.77 394.413 260.653 396.539 261.959 397.958C267.048 403.485 267.638 411.503 266.812 418.624C265.839 427.022 263.08 435.206 263.422 443.741C263.512 448.07 264.634 452.315 266.694 456.123C266.902 456.452 267.229 456.687 267.607 456.78C267.986 456.872 268.385 456.814 268.721 456.617C269.057 456.421 269.303 456.102 269.409 455.727C269.514 455.352 269.469 454.951 269.284 454.609Z" fill="#3F3D56"/>
<path d="M291 477.5H240C238.807 477.499 237.663 477.024 236.82 476.18C235.976 475.337 235.501 474.193 235.5 473V458.02C235.504 454.17 237.036 450.479 239.758 447.757C242.48 445.035 246.17 443.504 250.02 443.5H257.5C257.898 443.5 258.279 443.341 258.56 443.06C258.841 442.779 259 442.398 259 442V435C259.001 434.337 259.264 433.702 259.733 433.233C260.202 432.764 260.837 432.501 261.5 432.5H269.5C270.163 432.501 270.798 432.764 271.267 433.233C271.736 433.702 271.999 434.337 272 435V442C272 442.398 272.159 442.779 272.44 443.06C272.721 443.341 273.102 443.5 273.5 443.5H280.98C284.83 443.504 288.52 445.035 291.242 447.757C293.964 450.479 295.496 454.17 295.5 458.02V473C295.499 474.193 295.024 475.337 294.181 476.181C293.337 477.024 292.193 477.499 291 477.5Z" fill="#CCCCCC"/>
<path d="M266.284 387.54C267.358 393.238 266.028 398.272 263.315 398.784C260.601 399.295 257.531 395.09 256.457 389.391C255.383 383.693 258.686 374.216 258.686 374.216C258.686 374.216 265.21 381.841 266.284 387.54Z" fill="#6C63FF"/>
<path d="M286.878 414.052C283.477 418.749 278.907 421.245 276.671 419.625C274.434 418.006 275.377 412.886 278.777 408.188C282.178 403.491 291.33 399.375 291.33 399.375C291.33 399.375 290.278 409.355 286.878 414.052Z" fill="#6C63FF"/>
<path d="M174.427 90.5737C172.193 85.2214 171.948 79.2468 173.735 73.7294C175.522 68.212 179.223 63.5155 184.17 60.4886C185.817 59.4869 184.311 56.8915 182.656 57.8981C176.982 61.2863 172.747 66.6373 170.753 72.9381C168.759 79.239 169.144 86.0522 171.836 92.0879C172.593 93.8576 175.178 92.331 174.427 90.5737Z" fill="#3F3D56"/>
<path d="M175.284 94.6085C171.238 87.4401 172.19 78.8615 173.646 71.1096C175.165 63.0173 177.157 54.801 175.433 46.5706C174.652 42.5747 172.802 38.8653 170.08 35.8369C168.77 34.4135 166.653 36.5392 167.959 37.9582C173.048 43.4852 173.638 51.503 172.812 58.6237C171.839 67.0223 169.08 75.2063 169.422 83.7407C169.512 88.0696 170.634 92.3146 172.694 96.1227C172.902 96.4519 173.229 96.6874 173.607 96.7797C173.986 96.872 174.385 96.8137 174.721 96.6173C175.057 96.4209 175.303 96.1016 175.409 95.7269C175.514 95.3521 175.469 94.9511 175.284 94.6085Z" fill="#3F3D56"/>
<path d="M197 117.5H146C144.807 117.499 143.663 117.024 142.819 116.181C141.976 115.337 141.501 114.193 141.5 113V98.0195C141.504 94.17 143.036 90.4795 145.758 87.7575C148.48 85.0355 152.17 83.5044 156.02 83.5H163.5C163.898 83.4996 164.279 83.3414 164.56 83.0602C164.841 82.779 165 82.3977 165 82V75C165.001 74.3372 165.264 73.7017 165.733 73.2331C166.202 72.7644 166.837 72.5008 167.5 72.5H175.5C176.163 72.5008 176.798 72.7644 177.267 73.2331C177.736 73.7017 177.999 74.3372 178 75V82C178 82.3977 178.159 82.779 178.44 83.0602C178.721 83.3414 179.102 83.4996 179.5 83.5H186.98C190.83 83.5044 194.52 85.0355 197.242 87.7575C199.964 90.4795 201.496 94.17 201.5 98.0195V113C201.499 114.193 201.024 115.337 200.181 116.181C199.337 117.024 198.193 117.499 197 117.5Z" fill="#CCCCCC"/>
<path d="M172.284 27.5396C173.358 33.2383 172.028 38.2725 169.315 38.7838C166.601 39.2952 163.531 35.0899 162.457 29.3912C161.383 23.6925 164.686 14.2162 164.686 14.2162C164.686 14.2162 171.21 21.8409 172.284 27.5396Z" fill="#6C63FF"/>
<path d="M192.878 54.052C189.477 58.7494 184.907 61.2447 182.671 59.6255C180.434 58.0062 181.377 52.8856 184.777 48.1882C188.178 43.4908 197.33 39.3746 197.33 39.3746C197.33 39.3746 196.278 49.3546 192.878 54.052Z" fill="#6C63FF"/>
<path d="M73 272H32V287H73V272Z" fill="#6C63FF"/>
<path d="M73 321H32V336H73V321Z" fill="#6C63FF"/>
<path d="M323 593H17C12.4929 592.995 8.1718 591.202 4.98477 588.015C1.79775 584.828 0.00505274 580.507 0 576V17C0.00505274 12.4929 1.79775 8.1718 4.98477 4.98477C8.1718 1.79775 12.4929 0.00505274 17 0H323C327.507 0.00507387 331.828 1.79777 335.015 4.98479C338.202 8.17181 339.995 12.4929 340 17V576C339.995 580.507 338.202 584.828 335.015 588.015C331.828 591.202 327.507 592.995 323 593ZM17 2C13.0231 2.0045 9.21045 3.58629 6.39838 6.39836C3.58631 9.21043 2.0045 13.0231 2 17V576C2.0045 579.977 3.58631 583.79 6.39838 586.602C9.21045 589.414 13.0231 590.995 17 591H323C326.977 590.995 330.79 589.414 333.602 586.602C336.414 583.79 337.996 579.977 338 576V17C337.996 13.0231 336.414 9.21043 333.602 6.39836C330.79 3.58629 326.977 2.0045 323 2H17Z" fill="#3F3D56"/>
<path d="M339 115.453H1V117.453H339V115.453Z" fill="#3F3D56"/>
<path d="M339 235.484H1V237.484H339V235.484Z" fill="#3F3D56"/>
<path d="M339 355.516H1V357.516H339V355.516Z" fill="#3F3D56"/>
<path d="M339 475.547H1V477.547H339V475.547Z" fill="#3F3D56"/>
<path d="M70 358H36C34.6744 357.998 33.4035 357.471 32.4662 356.534C31.5288 355.596 31.0015 354.326 31 353V256C31.0015 254.674 31.5288 253.404 32.4662 252.466C33.4035 251.529 34.6744 251.002 36 251H70C71.3256 251.002 72.5965 251.529 73.5338 252.466C74.4712 253.404 74.9985 254.674 75 256V353C74.9985 354.326 74.4712 355.596 73.5338 356.534C72.5965 357.471 71.3256 357.998 70 358ZM36 253C35.2046 253.001 34.4421 253.317 33.8797 253.88C33.3173 254.442 33.0009 255.205 33 256V353C33.0009 353.795 33.3173 354.558 33.8797 355.12C34.4421 355.683 35.2046 355.999 36 356H70C70.7954 355.999 71.5579 355.683 72.1203 355.12C72.6827 354.558 72.9991 353.795 73 353V256C72.9991 255.205 72.6827 254.442 72.1203 253.88C71.5579 253.317 70.7954 253.001 70 253H36Z" fill="#3F3D56"/>
<path d="M136 272H95V287H136V272Z" fill="#6C63FF"/>
<path d="M136 321H95V336H136V321Z" fill="#6C63FF"/>
<path d="M133 358H99C97.6744 357.998 96.4035 357.471 95.4662 356.534C94.5288 355.596 94.0015 354.326 94 353V256C94.0015 254.674 94.5288 253.404 95.4662 252.466C96.4035 251.529 97.6744 251.002 99 251H133C134.326 251.002 135.596 251.529 136.534 252.466C137.471 253.404 137.998 254.674 138 256V353C137.998 354.326 137.471 355.596 136.534 356.534C135.596 357.471 134.326 357.998 133 358ZM99 253C98.2046 253.001 97.4421 253.317 96.8797 253.88C96.3173 254.442 96.0009 255.205 96 256V353C96.0009 353.795 96.3173 354.558 96.8797 355.12C97.4421 355.683 98.2046 355.999 99 356H133C133.795 355.999 134.558 355.683 135.12 355.12C135.683 354.558 135.999 353.795 136 353V256C135.999 255.205 135.683 254.442 135.12 253.88C134.558 253.317 133.795 253.001 133 253H99Z" fill="#3F3D56"/>
<path d="M236 151H195V166H236V151Z" fill="#6C63FF"/>
<path d="M236 200H195V215H236V200Z" fill="#6C63FF"/>
<path d="M233 237H199C197.674 236.998 196.404 236.471 195.466 235.534C194.529 234.596 194.002 233.326 194 232V135C194.002 133.674 194.529 132.404 195.466 131.466C196.404 130.529 197.674 130.002 199 130H233C234.326 130.002 235.597 130.529 236.534 131.466C237.471 132.404 237.998 133.674 238 135V232C237.998 233.326 237.471 234.596 236.534 235.534C235.597 236.471 234.326 236.998 233 237ZM199 132C198.205 132.001 197.442 132.317 196.88 132.88C196.317 133.442 196.001 134.205 196 135V232C196.001 232.795 196.317 233.558 196.88 234.12C197.442 234.683 198.205 234.999 199 235H233C233.795 234.999 234.558 234.683 235.12 234.12C235.683 233.558 235.999 232.795 236 232V135C235.999 134.205 235.683 133.442 235.12 132.88C234.558 132.317 233.795 132.001 233 132H199Z" fill="#3F3D56"/>
<path d="M299 151H258V166H299V151Z" fill="#6C63FF"/>
<path d="M299 200H258V215H299V200Z" fill="#6C63FF"/>
<path d="M296 237H262C260.674 236.998 259.404 236.471 258.466 235.534C257.529 234.596 257.002 233.326 257 232V135C257.002 133.674 257.529 132.404 258.466 131.466C259.404 130.529 260.674 130.002 262 130H296C297.326 130.002 298.597 130.529 299.534 131.466C300.471 132.404 300.998 133.674 301 135V232C300.998 233.326 300.471 234.596 299.534 235.534C298.597 236.471 297.326 236.998 296 237ZM262 132C261.205 132.001 260.442 132.317 259.88 132.88C259.317 133.442 259.001 134.205 259 135V232C259.001 232.795 259.317 233.558 259.88 234.12C260.442 234.683 261.205 234.999 262 235H296C296.795 234.999 297.558 234.683 298.12 234.12C298.683 233.558 298.999 232.795 299 232V135C298.999 134.205 298.683 133.442 298.12 132.88C297.558 132.317 296.795 132.001 296 132H262Z" fill="#3F3D56"/>
<path d="M186.29 263.042L147.91 277.464L153.186 291.505L191.566 277.083L186.29 263.042Z" fill="#6C63FF"/>
<path d="M203.526 308.91L165.146 323.332L170.423 337.374L208.803 322.952L203.526 308.91Z" fill="#6C63FF"/>
<path d="M180.143 356.883C179.126 356.881 178.134 356.569 177.299 355.99C176.463 355.41 175.824 354.59 175.465 353.639L141.345 262.838C140.88 261.597 140.927 260.221 141.475 259.014C142.022 257.807 143.026 256.867 144.267 256.399L176.094 244.439C176.709 244.208 177.363 244.101 178.019 244.122C178.675 244.144 179.321 244.295 179.919 244.566C180.517 244.838 181.055 245.224 181.504 245.704C181.953 246.183 182.302 246.747 182.533 247.361L216.653 338.162C217.118 339.403 217.072 340.778 216.524 341.986C215.976 343.193 214.972 344.133 213.732 344.601L181.905 356.561C181.342 356.773 180.745 356.882 180.143 356.883ZM177.854 246.118C177.493 246.119 177.135 246.184 176.797 246.312L144.97 258.271C144.226 258.552 143.624 259.116 143.295 259.84C142.966 260.565 142.938 261.39 143.217 262.135L177.338 352.936C177.476 353.304 177.686 353.642 177.955 353.93C178.224 354.218 178.547 354.45 178.906 354.612C179.265 354.775 179.652 354.866 180.046 354.879C180.44 354.892 180.832 354.827 181.201 354.688L213.028 342.729C213.772 342.448 214.375 341.884 214.704 341.16C215.032 340.435 215.06 339.61 214.781 338.865L180.661 248.064C180.446 247.494 180.062 247.002 179.561 246.654C179.06 246.306 178.465 246.119 177.854 246.118Z" fill="#3F3D56"/>
<path d="M48.29 144.042L9.91016 158.464L15.1865 172.505L53.5663 158.083L48.29 144.042Z" fill="#6C63FF"/>
<path d="M65.5263 189.91L27.1465 204.332L32.4228 218.374L70.8026 203.952L65.5263 189.91Z" fill="#6C63FF"/>
<path d="M42.1432 237.883C41.1263 237.881 40.1342 237.569 39.2986 236.99C38.463 236.41 37.8236 235.59 37.4653 234.639L3.34508 143.838C2.88037 142.597 2.92697 141.221 3.47465 140.014C4.02232 138.807 5.02637 137.867 6.26659 137.399L38.094 125.439C38.7086 125.208 39.3628 125.101 40.0191 125.122C40.6753 125.144 41.3209 125.295 41.9189 125.566C42.5168 125.838 43.0555 126.224 43.5041 126.704C43.9526 127.183 44.3023 127.747 44.5332 128.361L78.6534 219.162C79.1181 220.403 79.0716 221.778 78.5239 222.986C77.9762 224.193 76.9721 225.133 75.7319 225.601L43.9045 237.561C43.3416 237.773 42.7449 237.882 42.1432 237.883ZM39.8545 127.118C39.4934 127.119 39.1353 127.184 38.7975 127.312L6.97033 139.271C6.22612 139.552 5.62362 140.116 5.29499 140.84C4.96635 141.565 4.9384 142.39 5.21728 143.135L39.3375 233.936C39.4761 234.304 39.6859 234.642 39.9551 234.93C40.2242 235.218 40.5474 235.45 40.9062 235.612C41.2649 235.775 41.6523 235.866 42.046 235.879C42.4398 235.892 42.8323 235.827 43.201 235.688L75.0282 223.729C75.7724 223.448 76.3749 222.884 76.7035 222.16C77.0322 221.435 77.0601 220.61 76.7812 219.865L42.661 129.064C42.446 128.494 42.0624 128.002 41.5611 127.654C41.0598 127.306 40.4645 127.119 39.8545 127.118Z" fill="#3F3D56"/>
<path d="M627 250C644.121 250 658 236.121 658 219C658 201.879 644.121 188 627 188C609.879 188 596 201.879 596 219C596 236.121 609.879 250 627 250Z" fill="#2F2E41"/>
<path d="M489.281 360.471C490.745 361.038 492.316 361.278 493.883 361.172C495.45 361.067 496.975 360.619 498.35 359.86C499.725 359.102 500.917 358.051 501.843 356.782C502.768 355.513 503.403 354.056 503.705 352.515L588.942 298.737L573.428 281.27L494.484 339.66C491.861 339.326 489.207 339.965 487.024 341.457C484.84 342.949 483.28 345.189 482.639 347.755C481.998 350.32 482.319 353.031 483.544 355.375C484.768 357.719 486.809 359.532 489.281 360.471Z" fill="#FFB8B8"/>
<path d="M571.147 313.034C570.392 313.035 569.65 312.847 568.987 312.487C568.324 312.126 567.763 311.605 567.354 310.971L557.483 295.632C556.86 294.664 556.632 293.493 556.846 292.362C557.059 291.231 557.698 290.224 558.631 289.55L591.661 265.677C593.264 264.518 595.083 263.693 597.01 263.25C598.937 262.807 600.934 262.754 602.882 263.096C604.83 263.438 606.689 264.167 608.35 265.24C610.011 266.314 611.44 267.709 612.552 269.344C613.665 270.979 614.438 272.821 614.826 274.76C615.214 276.699 615.209 278.696 614.812 280.634C614.415 282.571 613.633 284.409 612.513 286.039C611.393 287.668 609.957 289.057 608.291 290.122L573.562 312.327C572.841 312.789 572.003 313.035 571.147 313.034Z" fill="#2F2E41"/>
<path d="M585.895 580.85L573.636 580.849L567.803 533.561L585.898 533.562L585.895 580.85Z" fill="#FFB8B8"/>
<path d="M564.877 577.346H588.521V592.233H549.99C549.99 590.278 550.375 588.342 551.123 586.536C551.872 584.73 552.968 583.089 554.35 581.707C555.733 580.324 557.374 579.228 559.18 578.479C560.986 577.731 562.922 577.346 564.877 577.346Z" fill="#2F2E41"/>
<path d="M643.128 571.684L631.324 574.998L612.926 531.047L630.347 526.156L643.128 571.684Z" fill="#FFB8B8"/>
<path d="M621.946 573.992L644.71 567.602L648.734 581.934L611.637 592.348C611.108 590.466 610.956 588.498 611.188 586.557C611.42 584.616 612.032 582.739 612.99 581.035C613.947 579.33 615.231 577.831 616.767 576.623C618.304 575.414 620.064 574.52 621.946 573.992Z" fill="#2F2E41"/>
<path d="M676.16 499.113L628.564 442.942L657.446 407.898C657.869 407.385 658.402 406.971 659.004 406.688C659.607 406.405 660.265 406.259 660.931 406.261C661.597 406.263 662.254 406.412 662.855 406.699C663.457 406.986 663.986 407.403 664.407 407.919L708.109 461.553L676.16 499.113Z" fill="#6C63FF"/>
<path d="M630.484 443.36C631.186 442.098 632.056 440.936 633.071 439.907L660.638 411.96C661.718 410.859 663.173 410.206 664.714 410.13C667.864 409.981 673.029 410.299 674.469 413.755L637.251 444.206L630.484 443.36Z" fill="#F2F2F2"/>
<path d="M677.814 510.999C675.691 510.936 673.628 510.282 671.856 509.112L671.724 508.977L628.133 442.308L635.366 441.608L674.133 411.37C674.622 410.988 675.185 410.712 675.787 410.558C676.388 410.405 677.015 410.377 677.627 410.478C678.24 410.578 678.825 410.804 679.346 411.141C679.867 411.478 680.313 411.92 680.655 412.437L723.031 476.575C723.682 477.566 723.916 478.772 723.685 479.934C723.453 481.096 722.774 482.121 721.793 482.786L680.787 510.437C679.841 510.813 678.832 511.004 677.814 510.999Z" fill="#6C63FF"/>
<path d="M662.397 465.394C661.987 465.394 661.583 465.294 661.22 465.102C660.858 464.91 660.549 464.631 660.32 464.291L655.312 456.853C654.942 456.302 654.806 455.628 654.933 454.977C655.06 454.327 655.44 453.753 655.989 453.382L681.681 436.086C682.231 435.717 682.905 435.581 683.556 435.708C684.206 435.835 684.78 436.215 685.151 436.764L690.158 444.202C690.528 444.753 690.664 445.427 690.537 446.078C690.41 446.728 690.03 447.302 689.481 447.673L663.79 464.969C663.378 465.246 662.893 465.394 662.397 465.394Z" fill="#3F3D56"/>
<path d="M565.863 573.698C564.496 573.693 563.179 573.177 562.173 572.251C561.167 571.325 560.543 570.057 560.424 568.694C558.242 543.909 547.298 418.994 546.096 393.768C544.762 365.738 568.089 321.396 568.325 320.952L568.486 320.647L580.016 322.088V323.429L590.99 324.72L612.228 326.775L618.309 401.094L620.997 451.496L646.257 554.439C646.543 555.579 646.369 556.786 645.773 557.799C645.177 558.812 644.206 559.55 643.07 559.854L621.087 565.849C619.944 566.155 618.726 566.001 617.696 565.42C616.665 564.839 615.903 563.876 615.575 562.739L594.877 490.032C594.777 489.68 594.552 489.377 594.243 489.18C593.935 488.983 593.566 488.905 593.204 488.961C592.843 489.017 592.514 489.204 592.281 489.485C592.047 489.766 591.924 490.124 591.935 490.489L594.124 561.385C594.135 562.113 593.998 562.835 593.72 563.508C593.441 564.181 593.029 564.789 592.507 565.297C587.468 570.029 574.154 572.556 566.666 573.641C566.4 573.679 566.132 573.698 565.863 573.698Z" fill="#2F2E41"/>
<path d="M631.918 261.392C628.43 257.756 605.445 262.753 600.342 268.111L565.406 325.217L623.184 335.967L635.949 263.408L631.918 261.392Z" fill="#6C63FF"/>
<path d="M616.774 406.479C615.53 406.48 614.294 406.274 613.117 405.87C609.76 404.719 605.646 403.514 600.889 402.291C580.056 396.934 572.7 379.781 579.027 351.311L579.187 350.588C585.128 323.581 596.326 298.007 612.144 275.325L614.594 271.806C617.551 267.559 621.691 264.276 626.5 262.364C631.308 260.451 636.573 259.995 641.639 261.05C651.013 262.983 656.046 265.785 656.599 269.378C657.683 276.428 636.745 361.647 627.692 397.96C627.085 400.395 625.681 402.558 623.702 404.102C621.723 405.646 619.284 406.483 616.774 406.479Z" fill="#2F2E41"/>
<path d="M545.004 395.539C544.459 395.539 543.918 395.455 543.399 395.289L536.646 393.129C535.948 392.905 535.304 392.539 534.756 392.052C534.208 391.566 533.767 390.97 533.462 390.303C533.157 389.637 532.995 388.914 532.985 388.181C532.975 387.448 533.118 386.721 533.406 386.047L569.237 301.943C576.102 285.899 588.106 272.593 603.36 264.116C603.582 263.994 603.826 263.919 604.077 263.896C604.329 263.872 604.582 263.901 604.822 263.98C605.043 264.05 605.246 264.165 605.419 264.319C605.592 264.472 605.731 264.661 605.827 264.871C610.041 274.142 587.105 318.015 568.675 353.267C559.237 371.317 551.087 386.907 550.16 391.353C549.912 392.537 549.264 393.599 548.325 394.362C547.386 395.124 546.214 395.54 545.004 395.539Z" fill="#2F2E41"/>
<path d="M655.859 414.703C657.117 413.764 658.154 412.56 658.897 411.177C659.64 409.793 660.071 408.263 660.159 406.695C660.247 405.127 659.99 403.559 659.406 402.101C658.822 400.643 657.926 399.331 656.78 398.257L656.495 297.473L633.455 301.338L640.991 399.24C639.314 401.285 638.446 403.873 638.55 406.515C638.654 409.157 639.724 411.67 641.556 413.576C643.389 415.482 645.857 416.649 648.493 416.857C651.129 417.065 653.75 416.299 655.859 414.703Z" fill="#FFB8B8"/>
<path d="M637.1 322.477C635.958 322.476 634.859 322.042 634.026 321.261C633.192 320.481 632.687 319.413 632.612 318.273L629.931 277.607C629.678 273.695 630.987 269.841 633.571 266.892C636.155 263.943 639.804 262.14 643.716 261.877C645.724 261.745 647.739 262.024 649.636 262.697C651.533 263.371 653.272 264.424 654.748 265.794C656.223 267.163 657.404 268.819 658.217 270.661C659.03 272.502 659.459 274.49 659.477 276.503L659.841 317.723C659.849 318.913 659.386 320.059 658.553 320.909C657.72 321.76 656.584 322.246 655.394 322.263L637.155 322.477L637.1 322.477Z" fill="#2F2E41"/>
<path d="M620.614 251.577C634.178 251.577 645.175 240.58 645.175 227.016C645.175 213.451 634.178 202.455 620.614 202.455C607.049 202.455 596.053 213.451 596.053 227.016C596.053 240.58 607.049 251.577 620.614 251.577Z" fill="#FFB8B8"/>
<path d="M641.036 244.202C642.867 238.372 644.549 231.499 640.924 226.579C638.312 223.035 633.622 221.663 629.223 221.466C624.825 221.27 620.414 222.016 616.024 221.667C611.635 221.318 606.996 219.585 604.767 215.789C601.876 210.866 604.324 204.085 608.972 200.769C613.62 197.454 619.761 196.991 625.417 197.763C632.576 198.613 639.305 201.623 644.71 206.393C649.968 211.246 653.395 218.241 653.243 225.395C653.09 232.548 649.078 239.672 642.684 242.884" fill="#2F2E41"/>
<path d="M634.912 190.534C629.032 188.723 626.32 180.949 628.949 175.387C631.579 169.825 638.3 166.912 644.403 167.687C650.507 168.462 655.885 172.378 659.594 177.286C663.304 182.194 665.541 188.045 667.406 193.908C669.271 199.771 670.822 205.76 673.369 211.361C677.412 219.965 683.647 227.354 691.45 232.786C699.252 238.217 708.347 241.5 717.82 242.303C721.949 242.602 726.233 242.388 729.996 240.662C733.759 238.936 736.915 235.457 737.337 231.338C739.478 245.967 730.968 261.514 717.49 267.593C704.013 273.673 686.726 269.762 677.177 258.474C667.846 247.442 666.401 231.868 666.626 217.421C666.687 213.46 666.833 209.423 665.739 205.616C664.644 201.808 662.054 198.187 658.281 196.978C655.237 196.002 651.94 196.705 648.819 197.397C645.698 198.089 642.384 198.755 639.363 197.712C636.341 196.669 633.908 193.233 635.125 190.277" fill="#2F2E41"/>
<path d="M732.082 594H468.082C467.817 594 467.562 593.895 467.375 593.707C467.187 593.52 467.082 593.265 467.082 593C467.082 592.735 467.187 592.48 467.375 592.293C467.562 592.105 467.817 592 468.082 592H732.082C732.347 592 732.602 592.105 732.789 592.293C732.977 592.48 733.082 592.735 733.082 593C733.082 593.265 732.977 593.52 732.789 593.707C732.602 593.895 732.347 594 732.082 594Z" fill="#CCCCCC"/>
</g>
<defs>
<clipPath id="clip0_431_9450">
<rect width="737.666" height="594" fill="white"/>
</clipPath>
</defs>
</svg>
