<svg width="649" height="600" viewBox="0 0 649 600" fill="none" xmlns="http://www.w3.org/2000/svg">
<g clip-path="url(#clip0_431_9409)">
<path d="M591.269 480.502L538.586 402.247C538.586 402.247 618.371 430.101 609.316 480.502H591.269Z" fill="#E5E5E5"/>
<path d="M45.1621 481.021L43.1621 480.982C43.9356 458.745 46.3083 436.592 50.2617 414.695C58.9102 367.814 73.291 337.025 93.0049 323.183L94.1533 324.82C48.1016 357.154 45.1855 479.786 45.1621 481.021Z" fill="#E5E5E5"/>
<path d="M70.1621 480.543L68.1621 480.504C68.2051 478.289 69.4551 426.089 90.0049 411.662L91.1533 413.298C71.4326 427.144 70.1719 480.01 70.1621 480.543Z" fill="#E5E5E5"/>
<path d="M105.531 325.002C111.054 325.002 115.531 320.524 115.531 315.002C115.531 309.479 111.054 305.002 105.531 305.002C100.008 305.002 95.5312 309.479 95.5312 315.002C95.5312 320.524 100.008 325.002 105.531 325.002Z" fill="#6C63FF"/>
<path d="M100.58 411.002C106.103 411.002 110.58 406.524 110.58 401.002C110.58 395.479 106.103 391.002 100.58 391.002C95.0572 391.002 90.5801 395.479 90.5801 401.002C90.5801 406.524 95.0572 411.002 100.58 411.002Z" fill="#6C63FF"/>
<path d="M65.5015 330.996C67.3808 343 62.4826 353.737 62.4826 353.737C62.4826 353.737 54.5373 345.011 52.6579 333.007C50.7786 321.003 55.6768 310.266 55.6768 310.266C55.6768 310.266 63.6221 318.992 65.5015 330.996Z" fill="#E5E5E5"/>
<path d="M98.1883 360.15C86.6953 364.092 75.2695 361.14 75.2695 361.14C75.2695 361.14 82.4774 351.795 93.9704 347.853C105.463 343.911 116.889 346.864 116.889 346.864C116.889 346.864 109.681 356.208 98.1883 360.15Z" fill="#E5E5E5"/>
<path d="M98.5583 436.311C93.3567 437.945 87.8172 438.184 82.4941 437.005C85.874 432.702 90.4261 429.467 95.602 427.692C100.778 425.917 106.357 425.676 111.666 426.998C108.188 431.197 103.668 434.408 98.5583 436.311Z" fill="#E5E5E5"/>
<path d="M648 482.502H1C0.734784 482.502 0.480444 482.397 0.292908 482.209C0.105371 482.021 0 481.767 0 481.502C0 481.237 0.105371 480.982 0.292908 480.795C0.480444 480.607 0.734784 480.502 1 480.502H648C648.265 480.502 648.52 480.607 648.707 480.795C648.895 480.982 649 481.237 649 481.502C649 481.767 648.895 482.021 648.707 482.209C648.52 482.397 648.265 482.502 648 482.502Z" fill="#CBCBCB"/>
<path d="M409.793 528.602L401.612 549.895L315.588 528.472L327.662 497.045L409.793 528.602Z" fill="#FFB7B7"/>
<path d="M432.519 531.101L406.139 599.759L405.271 599.425C398.184 596.702 392.468 591.275 389.382 584.338C386.296 577.401 386.092 569.523 388.814 562.435L388.815 562.433L404.926 520.499L432.519 531.101Z" fill="#2F2E41"/>
<path d="M279.075 261.992L241.586 265.502L239.727 377.044C240.224 382.511 242.841 387.565 247.019 391.125C251.198 394.685 256.604 396.467 262.08 396.09L285.848 394.453L279.075 261.992Z" fill="#E5E5E5"/>
<path d="M411.237 256.502L385.586 256.172L384.066 388.707C389.735 388.897 395.381 387.916 400.653 385.826C405.926 383.736 410.711 380.583 414.711 376.562C418.71 372.541 421.838 367.739 423.9 362.455C425.962 357.172 426.912 351.52 426.693 345.853L411.237 256.502Z" fill="#E5E5E5"/>
<path d="M262.4 435.791C261.793 439.636 260.911 443.431 259.761 447.15C258.467 450.79 256.469 454.156 255.285 457.833C251.513 469.554 256.743 482.623 265.095 491.67C272.339 499.485 281.688 505.037 292.016 507.656C299.552 509.552 307.386 509.824 315.152 510.088C336.654 510.817 358.71 511.469 379.085 504.559C385.523 502.322 391.74 499.497 397.66 496.12C399.529 495.23 401.176 493.933 402.48 492.325C404.034 490.113 404.233 487.244 404.219 484.54C404.173 475.425 402.325 466.355 402.764 457.25C403.007 452.207 403.951 447.168 403.486 442.14C402.843 436.43 400.451 431.058 396.638 426.759C392.824 422.461 387.775 419.446 382.182 418.128C376.402 416.887 370.407 417.563 364.523 418.129C349.248 419.596 333.908 420.282 318.563 420.184C302.885 420.084 287.303 417.69 271.703 417.44C267.089 417.366 267.182 418.789 265.713 423.254C264.361 427.363 263.254 431.55 262.4 435.791Z" fill="#2F2E41"/>
<path d="M201.093 428.383C196.877 427.323 192.533 426.861 188.188 427.011C183.623 427.263 179.165 428.484 175.108 430.593C171.052 432.702 167.491 435.651 164.663 439.242C161.834 442.834 159.803 446.987 158.703 451.424C157.604 455.862 157.461 460.483 158.286 464.979C159.339 469.85 161.06 474.553 163.4 478.953C166.822 485.898 170.927 492.827 177.262 497.278C180.968 499.882 185.258 501.505 189.496 503.101L222.865 515.672C227.774 517.521 232.684 519.371 237.641 521.086C262.547 529.694 288.514 534.857 314.818 536.429C322.831 536.906 330.965 537.038 338.781 535.214C340.636 534.782 342.615 534.136 343.689 532.563C344.325 531.455 344.7 530.216 344.785 528.941L346.838 514.567C347.128 512.543 347.406 510.412 346.664 508.507C345.723 506.091 343.366 504.572 341.117 503.28C319.18 490.68 293.565 483.729 275.1 466.436C270.753 462.365 267.115 455.912 261.834 453.147C255.845 450.011 248.791 448.221 242.6 445.331C229.067 439.014 215.761 431.754 201.093 428.383Z" fill="#2F2E41"/>
<path opacity="0.1" d="M234.405 447.762C246.199 451.457 295.995 477.062 304.531 486.002C303.387 486.414 264.57 464.66 263.405 464.311C252.817 461.133 242.171 457.935 232.116 453.284C230.094 452.349 218.976 447.952 219.479 445.4C220.048 442.52 232.311 447.106 234.405 447.762Z" fill="black"/>
<path d="M305.586 224.502L273.83 248.613C273.83 248.613 240.322 249.662 241.454 271.082C242.586 292.502 255.997 393.919 255.997 393.919L258.907 428.815L314.1 444.541C343.921 453.038 375.428 453.714 405.586 446.502L399.027 411.494C399.027 411.494 425.586 252.502 409.586 245.502C393.586 238.502 383.586 240.502 383.586 240.502L363.531 223.002L305.586 224.502Z" fill="#E5E5E5"/>
<path d="M399.586 185.555C399.586 216.856 370.643 212.122 334.941 212.122C299.238 212.122 270.295 216.856 270.295 185.555C270.295 154.254 284.433 98.7707 334.941 98.7707C387.188 98.7707 399.586 154.254 399.586 185.555Z" fill="#2F2E41"/>
<path d="M368.546 196.163C385.534 179.175 385.534 151.632 368.546 134.644C351.558 117.656 324.015 117.656 307.027 134.644C290.039 151.632 290.039 179.175 307.027 196.163C324.015 213.151 351.558 213.151 368.546 196.163Z" fill="#FFB7B7"/>
<path d="M284.465 164.302H301.67L309.26 143.048L310.778 164.302H319.002L323.429 151.904L324.315 164.302H385.418C385.418 152.089 380.567 140.376 371.931 131.74C363.295 123.105 351.582 118.253 339.369 118.253H330.514C318.301 118.253 306.588 123.105 297.952 131.74C289.316 140.376 284.465 152.089 284.465 164.302Z" fill="#2F2E41"/>
<path d="M378.586 229.502H291.586V334.502H378.586V229.502Z" fill="#6C63FF"/>
<path d="M296.381 527.602L304.563 548.895L390.587 527.472L378.512 496.045L296.381 527.602Z" fill="#FFB7B7"/>
<path d="M301.247 519.499L317.359 561.433L317.359 561.435C320.082 568.523 319.877 576.401 316.791 583.338C313.705 590.275 307.989 595.702 300.902 598.425L300.034 598.759L273.654 530.101L301.247 519.499Z" fill="#2F2E41"/>
<path d="M468.335 420.232C475.245 418.499 482.409 418.01 489.492 418.787C495.148 419.41 500.975 420.984 505.105 424.899C510.131 429.664 511.746 437.033 511.881 443.957C512.102 457.749 507.527 471.19 498.939 481.984C496.842 484.714 494.348 487.115 491.54 489.107C488.511 491.002 485.282 492.558 481.913 493.746L407.185 523.221C387.526 530.975 367.797 538.752 347.292 543.864C346.177 544.402 344.894 544.475 343.725 544.068C342.556 543.66 341.597 542.804 341.059 541.689C341.042 541.655 341.026 541.621 341.011 541.587C334.463 532.234 328.97 522.187 324.632 511.627C324.427 511.376 324.285 511.079 324.219 510.761C324.152 510.444 324.163 510.115 324.251 509.803C324.338 509.491 324.5 509.204 324.721 508.967C324.943 508.731 325.219 508.551 325.525 508.443L378.38 478.074C382.166 475.899 385.995 473.692 389.138 470.662C391.423 468.448 393.293 465.844 394.661 462.972C395.757 460.684 395.859 455.284 397.259 453.592C398.629 451.936 403.316 451.804 405.481 451.153C408.534 450.217 411.524 449.087 414.432 447.769C426.255 442.479 436.784 434.794 448.118 428.601C454.475 424.966 461.268 422.154 468.335 420.232Z" fill="#2F2E41"/>
<path opacity="0.1" d="M438.37 442.912C429.289 449.732 417.531 456.002 408.531 463.002C405.46 465.391 354.255 494.178 353.531 498.002C361.928 499.416 415.414 461.998 423.067 458.265C430.719 454.531 437.503 449.266 444.225 444.039C445.938 442.707 453.198 438.703 448.281 437.215C445.51 436.377 440.415 441.548 438.37 442.912Z" fill="black"/>
<path d="M601.588 179.715C618.845 179.715 632.836 165.725 632.836 148.467C632.836 131.21 618.845 117.219 601.588 117.219C584.33 117.219 570.34 131.21 570.34 148.467C570.34 165.725 584.33 179.715 601.588 179.715Z" fill="#F1F1F1"/>
<path d="M543.754 185.312C555.86 185.312 565.674 175.498 565.674 163.392C565.674 151.286 555.86 141.472 543.754 141.472C531.648 141.472 521.834 151.286 521.834 163.392C521.834 175.498 531.648 185.312 543.754 185.312Z" fill="#F1F1F1"/>
<path d="M142.213 171.013C151.92 171.013 159.789 163.144 159.789 153.437C159.789 143.73 151.92 135.861 142.213 135.861C132.506 135.861 124.637 143.73 124.637 153.437C124.637 163.144 132.506 171.013 142.213 171.013Z" fill="#F1F1F1"/>
<path d="M171.15 182.832C177.959 182.832 183.479 177.312 183.479 170.502C183.479 163.693 177.959 158.173 171.15 158.173C164.34 158.173 158.82 163.693 158.82 170.502C158.82 177.312 164.34 182.832 171.15 182.832Z" fill="#F1F1F1"/>
<path opacity="0.17" d="M261.586 296.502L262.787 287.232C262.787 287.232 307.586 290.502 300.586 301.502C293.586 312.502 276.586 313.502 276.586 313.502L261.586 296.502Z" fill="#2F2E41"/>
<path d="M295.403 256.194C297.969 256.477 300.441 257.324 302.641 258.675C304.841 260.026 306.715 261.847 308.128 264.008C309.415 265.979 310.291 268.191 310.702 270.51C311.113 272.828 311.052 275.206 310.521 277.5C309.99 279.794 309.001 281.958 307.613 283.86C306.226 285.762 304.467 287.365 302.445 288.571C301.703 289.009 300.929 289.389 300.129 289.709L272.593 373.936C271.795 375.598 270.677 377.086 269.302 378.314C267.927 379.543 266.323 380.487 264.582 381.093C262.841 381.7 260.997 381.956 259.157 381.847C257.317 381.738 255.516 381.267 253.858 380.46C252.201 379.653 250.719 378.526 249.498 377.145C248.278 375.763 247.342 374.154 246.745 372.41C246.149 370.665 245.902 368.82 246.021 366.981C246.14 365.141 246.621 363.343 247.437 361.69L276.721 278.397C275.924 275.641 275.817 272.731 276.412 269.925C277.007 267.118 278.285 264.501 280.132 262.306C281.979 260.111 284.339 258.405 287.002 257.339C289.666 256.273 292.551 255.88 295.403 256.194Z" fill="#FFB7B7"/>
<path d="M261.997 288.022C261.997 288.022 277.775 314.979 300.586 301.502L278.479 386.1H259.854L240.586 382.502L245.981 347.549L261.997 288.022Z" fill="#E5E5E5"/>
<path d="M374.657 306.447L361.586 288.502C361.586 288.502 367.868 269.889 392.227 276.695C392.227 276.695 407.728 311.392 374.657 306.447Z" fill="#E5E5E5"/>
<path opacity="0.17" d="M374.657 306.447L361.586 288.502C361.586 288.502 367.868 269.889 392.227 276.695C392.227 276.695 407.728 311.392 374.657 306.447Z" fill="#2F2E41"/>
<path d="M378.118 243.751C381.889 245.504 384.905 248.552 386.619 252.341C388.332 256.13 388.628 260.408 387.453 264.397L416.737 347.69C417.553 349.343 418.034 351.141 418.153 352.981C418.272 354.821 418.026 356.666 417.429 358.41C416.832 360.155 415.897 361.764 414.676 363.146C413.455 364.527 411.974 365.654 410.316 366.461C408.658 367.268 406.857 367.739 405.017 367.848C403.177 367.957 401.333 367.7 399.592 367.094C397.851 366.488 396.247 365.543 394.872 364.315C393.497 363.087 392.378 361.598 391.581 359.936L364.044 275.709C363.245 275.389 362.471 275.009 361.729 274.571C359.706 273.365 357.948 271.762 356.56 269.86C355.173 267.958 354.184 265.794 353.653 263.5C353.122 261.206 353.06 258.828 353.472 256.51C353.883 254.191 354.759 251.979 356.046 250.008C357.459 247.847 359.333 246.026 361.533 244.675C363.733 243.324 366.205 242.477 368.771 242.195C371.971 241.832 375.208 242.371 378.118 243.751Z" fill="#FFB7B7"/>
<path d="M361.586 288.502C361.586 288.502 383.152 301.587 392.227 276.695L422.616 356.71L413.586 372.502L412.28 372.611C406.893 373.06 401.478 372.195 396.499 370.089C391.52 367.984 387.127 364.702 383.696 360.525C376.699 352.004 371.935 341.874 369.837 331.05L361.586 288.502Z" fill="#E5E5E5"/>
</g>
<defs>
<clipPath id="clip0_431_9409">
<rect width="649" height="599.759" fill="white"/>
</clipPath>
</defs>
</svg>
