<svg width="937" height="506" viewBox="0 0 937 506" fill="none" xmlns="http://www.w3.org/2000/svg">
<g clip-path="url(#clip0_431_9557)">
<path d="M59.2948 422.008L56.3748 436.657C56.1548 437.777 55.9248 438.917 55.6748 440.047C53.2343 439.542 50.7038 439.683 48.3348 440.458C50.2143 443.143 51.8986 445.961 53.3748 448.888C51.5348 454.558 48.8348 459.797 44.3148 463.587C41.2959 466.062 37.6903 467.718 33.8456 468.394C30.0009 469.07 26.0469 468.744 22.3648 467.448L22.4948 466.868C17.6348 457.438 20.2748 445.547 26.3148 436.837C29.3954 432.54 33.0455 428.682 37.1648 425.367C41.2448 421.967 45.6548 418.917 50.0248 415.907C51.0063 415.233 52.1667 414.865 53.3579 414.853C54.549 414.841 55.7167 415.184 56.7117 415.839C57.7068 416.494 58.484 417.431 58.9442 418.529C59.4043 419.628 59.5263 420.839 59.2948 422.008Z" fill="#E4E4E4"/>
<path d="M23.4049 502.697C22.1759 493.744 20.9119 484.677 21.7739 475.628C22.5399 467.592 24.9909 459.743 29.9829 453.307C32.6325 449.898 35.8564 446.976 39.5099 444.674C40.4629 444.074 41.3389 445.583 40.3909 446.181C34.0697 450.176 29.1803 456.075 26.4279 463.028C23.3879 470.76 22.8999 479.189 23.4279 487.402C23.7449 492.369 24.4159 497.302 25.0929 502.232C25.1474 502.455 25.1146 502.691 25.0012 502.89C24.8878 503.09 24.7024 503.239 24.4829 503.306C24.2597 503.367 24.0216 503.336 23.8205 503.222C23.6194 503.108 23.4715 502.919 23.4089 502.696L23.4049 502.697Z" fill="#F2F2F2"/>
<path d="M33.9524 53.6339C76.7897 52.889 119.632 52.782 162.478 53.3129C205.318 53.8469 248.144 55.0216 290.956 56.8371C314.979 57.8559 338.993 59.0764 362.997 60.4986C364.925 60.6127 364.919 57.6123 362.997 57.4986C320.228 54.9678 277.428 53.074 234.596 51.8175C191.771 50.5643 148.933 49.9518 106.083 49.9802C82.0384 49.9962 57.9947 50.2141 33.9524 50.6339C32.0241 50.6675 32.018 53.6675 33.9524 53.6339Z" fill="#E6E6E6"/>
<path d="M332.488 34.8232L351.219 33.4291C353.133 33.2866 353.148 30.2855 351.219 30.4291L332.488 31.8232C330.574 31.9656 330.559 34.9668 332.488 34.8232Z" fill="#E6E6E6"/>
<path d="M332.488 52.8232L351.219 51.4291C353.133 51.2866 353.148 48.2855 351.219 48.4291L332.488 49.8232C330.574 49.9656 330.559 52.9668 332.488 52.8232Z" fill="#E6E6E6"/>
<path d="M331.08 44.6029L357.712 47.0224C359.634 47.197 359.622 44.1959 357.712 44.0224L331.08 41.6029C329.158 41.4283 329.169 44.4294 331.08 44.6029Z" fill="#E6E6E6"/>
<path d="M45.0388 30.7886C43.7362 30.7805 42.4601 31.1561 41.3694 31.8684C40.2788 32.5806 39.422 33.5982 38.9057 34.7941C38.3281 35.9646 38.1499 37.2921 38.3981 38.5735C38.6463 39.8549 39.3075 41.0198 40.2803 41.8899C41.1949 42.668 42.2918 43.2015 43.4685 43.4406C44.6453 43.6797 45.8634 43.6165 47.0091 43.2569C48.1808 42.8477 49.1968 42.0854 49.9173 41.0749C50.6379 40.0644 51.0274 38.8553 51.0325 37.6143C51.0848 36.2374 50.7118 34.8777 49.9641 33.7203C49.2165 32.5629 48.1305 31.6638 46.8539 31.1453C46.4703 31.0411 46.0611 31.0927 45.7155 31.289C45.3699 31.4852 45.1158 31.8101 45.0087 32.1929C44.9141 32.5761 44.97 32.981 45.1649 33.3243C45.3598 33.6675 45.6789 33.923 46.0564 34.0381C46.3178 34.1391 45.8176 33.9096 46.0617 34.0426C46.162 34.0973 46.2643 34.1467 46.3628 34.205C46.4466 34.2547 46.5268 34.309 46.6083 34.3622C46.8883 34.5449 46.4717 34.228 46.6506 34.3923C46.8058 34.5348 46.9596 34.6738 47.1007 34.831C47.154 34.8904 47.363 35.0557 47.2006 34.9402C47.0763 34.8518 47.1527 34.8726 47.2006 34.9436C47.2369 34.9974 47.2753 35.0498 47.3112 35.104C47.4282 35.281 47.5345 35.4648 47.6296 35.6544C47.6516 35.6982 47.6718 35.7431 47.6942 35.7868C47.7362 35.8686 47.7971 35.89 47.6983 35.7876C47.604 35.6897 47.6641 35.6964 47.6978 35.7906C47.72 35.8525 47.7442 35.9136 47.7658 35.9758C47.8362 36.1781 47.8952 36.3842 47.9427 36.5931C47.9647 36.6896 47.9823 36.7868 48.0012 36.8839C48.0682 37.2284 47.9915 36.6698 48.0077 36.9256C48.0212 37.1393 48.037 37.3506 48.0332 37.5651C48.0315 37.6633 48.0273 37.7613 48.0204 37.8592C48.017 37.9081 48.0115 37.9568 48.0083 38.0056C47.9928 38.241 47.9923 37.9196 48.0252 37.8976C47.9566 38.0974 47.9112 38.3044 47.8897 38.5146C47.8628 38.6079 47.8309 38.6991 47.801 38.7913C47.6966 39.1132 47.899 38.6159 47.7877 38.8359C47.6962 39.0248 47.5939 39.2084 47.4813 39.3856C47.4324 39.4598 47.2481 39.6274 47.3988 39.5108C47.5624 39.3842 47.3131 39.6022 47.2599 39.6583C47.1916 39.7303 47.1207 39.7999 47.0472 39.8669C47.0001 39.9129 46.9504 39.9561 46.8984 39.9963C46.8889 39.9915 47.149 39.8225 47.0088 39.9119C46.8306 40.0256 46.6618 40.1472 46.474 40.2462C46.4521 40.2577 46.212 40.369 46.213 40.3729C46.2026 40.3324 46.5217 40.2605 46.3026 40.3313C46.2566 40.3462 46.2115 40.3641 46.1657 40.3796C45.9663 40.4467 45.7627 40.5009 45.5564 40.5419C45.5091 40.5513 45.4591 40.5561 45.4126 40.5681C45.2575 40.6082 45.5608 40.5446 45.5699 40.5499C45.4553 40.5449 45.3405 40.5551 45.2285 40.5801C45.0157 40.5923 44.8023 40.5922 44.5895 40.58C44.5403 40.5772 44.4912 40.5723 44.4419 40.5694C44.3276 40.5628 44.2437 40.4804 44.3958 40.5698C44.5132 40.6388 44.5034 40.5885 44.3995 40.5693C44.3509 40.5603 44.302 40.5527 44.2534 40.5436C44.0427 40.5042 43.8344 40.4531 43.6294 40.3907C43.5191 40.3571 43.411 40.318 43.3021 40.28C43.2547 40.2662 43.2085 40.2485 43.1641 40.2269C43.1635 40.2145 43.4446 40.3612 43.2962 40.2812C43.1088 40.1802 42.9151 40.0956 42.7321 39.9852C42.6345 39.9263 42.5407 39.8623 42.4458 39.7992C42.404 39.7741 42.3643 39.7456 42.327 39.7142C42.3302 39.7015 42.5596 39.9141 42.4392 39.7994C42.2869 39.6542 42.1239 39.5243 41.9797 39.3697C41.9467 39.3344 41.9155 39.2974 41.8826 39.2619L41.8508 39.2256C41.7695 39.1262 41.768 39.1267 41.8463 39.227C41.9258 39.2504 41.9221 39.3377 41.8467 39.2243C41.8198 39.184 41.7913 39.1447 41.7644 39.1043C41.6426 38.9307 41.5387 38.7452 41.4544 38.5507C41.4617 38.545 41.5843 38.9116 41.4906 38.6349C41.4728 38.5827 41.4529 38.5312 41.4355 38.4788C41.4011 38.3749 41.3707 38.2698 41.3445 38.1636C41.3186 38.0584 41.3053 37.9498 41.2792 37.845C41.2351 37.6683 41.3049 37.9844 41.297 37.9765C41.272 37.9518 41.2826 37.7986 41.2807 37.7619C41.2687 37.5266 41.2955 37.2981 41.2997 37.0642C41.303 36.8829 41.2847 37.2054 41.2809 37.196C41.2819 37.1417 41.2915 37.0879 41.3094 37.0366C41.3366 36.9133 41.3618 36.79 41.3951 36.668C41.4331 36.5283 41.477 36.3903 41.5265 36.254C41.5451 36.203 41.5676 36.1527 41.5849 36.1013C41.648 35.9129 41.4599 36.3288 41.5636 36.1589C41.7063 35.9253 41.8126 35.6724 41.9641 35.4416C42 35.3869 42.2183 35.0821 42.1025 35.236C41.9871 35.3892 42.221 35.0988 42.2653 35.0495C42.4493 34.8446 42.6657 34.6764 42.8562 34.4802C42.969 34.3641 42.7775 34.5374 42.7662 34.5454C42.8252 34.5033 42.883 34.4595 42.9427 34.4184C43.0468 34.3466 43.1535 34.2787 43.2628 34.2148C43.3858 34.1426 43.525 34.0889 43.6443 34.0126C43.7852 33.9224 43.5365 34.0522 43.532 34.0549C43.5964 34.023 43.6637 33.9973 43.733 33.9783C43.8491 33.9371 44.3543 33.7191 44.4603 33.7873C44.4555 33.7842 44.0767 33.8178 44.3829 33.7981C44.4553 33.7935 44.5273 33.7864 44.5998 33.7834C44.7464 33.7774 44.8925 33.781 45.0389 33.7886C45.4359 33.786 45.8159 33.6272 46.0967 33.3464C46.3774 33.0657 46.5363 32.6856 46.5389 32.2886C46.5304 31.8935 46.3696 31.5168 46.0901 31.2374C45.8107 30.9579 45.434 30.7971 45.0388 30.7886Z" fill="#E6E6E6"/>
<path d="M66.0388 30.7886C64.7362 30.7805 63.4601 31.1561 62.3694 31.8684C61.2788 32.5806 60.422 33.5982 59.9057 34.7941C59.3281 35.9646 59.1499 37.2921 59.3981 38.5735C59.6463 39.8549 60.3075 41.0198 61.2803 41.8899C62.1949 42.668 63.2918 43.2015 64.4685 43.4406C65.6453 43.6797 66.8634 43.6165 68.0091 43.2569C69.1808 42.8477 70.1968 42.0854 70.9173 41.0749C71.6379 40.0644 72.0274 38.8553 72.0325 37.6143C72.0848 36.2374 71.7118 34.8777 70.9641 33.7203C70.2165 32.5629 69.1305 31.6638 67.8539 31.1453C67.4703 31.0411 67.0611 31.0927 66.7155 31.289C66.3699 31.4852 66.1158 31.8101 66.0087 32.1929C65.9141 32.5761 65.97 32.981 66.1649 33.3243C66.3598 33.6675 66.6789 33.923 67.0564 34.0381C67.3178 34.1391 66.8176 33.9096 67.0617 34.0426C67.162 34.0973 67.2643 34.1467 67.3628 34.205C67.4466 34.2547 67.5268 34.309 67.6083 34.3622C67.8883 34.5449 67.4717 34.228 67.6506 34.3923C67.8058 34.5348 67.9596 34.6738 68.1007 34.831C68.154 34.8904 68.363 35.0557 68.2006 34.9402C68.0763 34.8518 68.1527 34.8726 68.2006 34.9436C68.2369 34.9974 68.2753 35.0498 68.3112 35.104C68.4282 35.281 68.5345 35.4648 68.6296 35.6544C68.6516 35.6982 68.6718 35.7431 68.6942 35.7868C68.7362 35.8686 68.7971 35.89 68.6983 35.7876C68.604 35.6897 68.6641 35.6964 68.6978 35.7906C68.72 35.8525 68.7442 35.9136 68.7658 35.9758C68.8362 36.1781 68.8952 36.3842 68.9427 36.5931C68.9647 36.6896 68.9823 36.7868 69.0012 36.8839C69.0682 37.2284 68.9915 36.6698 69.0077 36.9256C69.0212 37.1393 69.037 37.3506 69.0332 37.5651C69.0315 37.6633 69.0273 37.7613 69.0204 37.8592C69.017 37.9081 69.0115 37.9568 69.0083 38.0056C68.9928 38.241 68.9923 37.9196 69.0252 37.8976C68.9566 38.0974 68.9112 38.3044 68.8897 38.5146C68.8628 38.6079 68.8309 38.6991 68.801 38.7913C68.6966 39.1132 68.899 38.6159 68.7877 38.8359C68.6962 39.0248 68.5939 39.2084 68.4813 39.3856C68.4324 39.4598 68.2481 39.6274 68.3988 39.5108C68.5624 39.3842 68.3131 39.6022 68.2599 39.6583C68.1916 39.7303 68.1207 39.7999 68.0472 39.8669C68.0001 39.9129 67.9504 39.9561 67.8984 39.9963C67.8889 39.9915 68.149 39.8225 68.0088 39.9119C67.8306 40.0256 67.6618 40.1472 67.474 40.2462C67.4521 40.2577 67.212 40.369 67.213 40.3729C67.2026 40.3324 67.5217 40.2605 67.3026 40.3313C67.2566 40.3462 67.2115 40.3641 67.1657 40.3796C66.9663 40.4467 66.7627 40.5009 66.5564 40.5419C66.5091 40.5513 66.4591 40.5561 66.4126 40.5681C66.2575 40.6082 66.5608 40.5446 66.5699 40.5499C66.4553 40.5449 66.3405 40.5551 66.2285 40.5801C66.0157 40.5923 65.8023 40.5922 65.5895 40.58C65.5403 40.5772 65.4912 40.5723 65.4419 40.5694C65.3276 40.5628 65.2437 40.4804 65.3958 40.5698C65.5132 40.6388 65.5034 40.5885 65.3995 40.5693C65.3509 40.5603 65.302 40.5527 65.2534 40.5436C65.0427 40.5042 64.8344 40.4531 64.6294 40.3907C64.5191 40.3571 64.411 40.318 64.3021 40.28C64.2547 40.2662 64.2085 40.2485 64.1641 40.2269C64.1635 40.2145 64.4446 40.3612 64.2962 40.2812C64.1088 40.1802 63.9151 40.0956 63.7321 39.9852C63.6345 39.9263 63.5407 39.8623 63.4458 39.7992C63.404 39.7741 63.3643 39.7456 63.327 39.7142C63.3302 39.7015 63.5596 39.9141 63.4392 39.7994C63.2869 39.6542 63.1239 39.5243 62.9797 39.3697C62.9467 39.3344 62.9155 39.2974 62.8826 39.2619L62.8508 39.2256C62.7695 39.1262 62.768 39.1267 62.8463 39.227C62.9258 39.2504 62.9221 39.3377 62.8467 39.2243C62.8198 39.184 62.7913 39.1447 62.7644 39.1043C62.6426 38.9307 62.5387 38.7452 62.4544 38.5507C62.4617 38.545 62.5843 38.9116 62.4906 38.6349C62.4728 38.5827 62.4529 38.5312 62.4355 38.4788C62.4011 38.3749 62.3707 38.2698 62.3445 38.1636C62.3186 38.0584 62.3053 37.9498 62.2792 37.845C62.2351 37.6683 62.3049 37.9844 62.297 37.9765C62.272 37.9518 62.2826 37.7986 62.2807 37.7619C62.2687 37.5266 62.2955 37.2981 62.2997 37.0642C62.303 36.8829 62.2847 37.2054 62.2809 37.196C62.2819 37.1417 62.2915 37.0879 62.3094 37.0366C62.3366 36.9133 62.3618 36.79 62.3951 36.668C62.4331 36.5283 62.477 36.3903 62.5265 36.254C62.5451 36.203 62.5676 36.1527 62.5849 36.1013C62.648 35.9129 62.4599 36.3288 62.5636 36.1589C62.7063 35.9253 62.8126 35.6724 62.9641 35.4416C63 35.3869 63.2183 35.0821 63.1025 35.236C62.9871 35.3892 63.221 35.0988 63.2653 35.0495C63.4493 34.8446 63.6657 34.6764 63.8562 34.4802C63.969 34.3641 63.7775 34.5374 63.7662 34.5454C63.8252 34.5033 63.883 34.4595 63.9427 34.4184C64.0468 34.3466 64.1535 34.2787 64.2628 34.2148C64.3858 34.1426 64.525 34.0889 64.6443 34.0126C64.7852 33.9224 64.5365 34.0522 64.532 34.0549C64.5964 34.023 64.6637 33.9973 64.733 33.9783C64.8491 33.9371 65.3543 33.7191 65.4603 33.7873C65.4555 33.7842 65.0767 33.8178 65.3829 33.7981C65.4553 33.7935 65.5273 33.7864 65.5998 33.7834C65.7464 33.7774 65.8925 33.781 66.0389 33.7886C66.4359 33.786 66.8159 33.6272 67.0967 33.3464C67.3774 33.0657 67.5363 32.6856 67.5389 32.2886C67.5304 31.8935 67.3696 31.5168 67.0901 31.2374C66.8107 30.9579 66.434 30.7971 66.0388 30.7886Z" fill="#E6E6E6"/>
<path d="M87.0388 30.7886C85.7362 30.7805 84.4601 31.1561 83.3694 31.8684C82.2788 32.5806 81.422 33.5982 80.9057 34.7941C80.3281 35.9646 80.1499 37.2921 80.3981 38.5735C80.6463 39.8549 81.3075 41.0198 82.2803 41.8899C83.1949 42.668 84.2918 43.2015 85.4685 43.4406C86.6453 43.6797 87.8634 43.6165 89.0091 43.2569C90.1808 42.8477 91.1968 42.0854 91.9173 41.0749C92.6379 40.0644 93.0274 38.8553 93.0325 37.6143C93.0848 36.2374 92.7118 34.8777 91.9641 33.7203C91.2165 32.5629 90.1305 31.6638 88.8539 31.1453C88.4703 31.0411 88.0611 31.0927 87.7155 31.289C87.3699 31.4852 87.1158 31.8101 87.0087 32.1929C86.9141 32.5761 86.97 32.981 87.1649 33.3243C87.3598 33.6675 87.6789 33.923 88.0564 34.0381C88.3178 34.1391 87.8176 33.9096 88.0617 34.0426C88.162 34.0973 88.2643 34.1467 88.3628 34.205C88.4466 34.2547 88.5268 34.309 88.6083 34.3622C88.8883 34.5449 88.4717 34.228 88.6506 34.3923C88.8058 34.5348 88.9596 34.6738 89.1007 34.831C89.154 34.8904 89.363 35.0557 89.2006 34.9402C89.0763 34.8518 89.1527 34.8726 89.2006 34.9436C89.2369 34.9974 89.2753 35.0498 89.3112 35.104C89.4282 35.281 89.5345 35.4648 89.6296 35.6544C89.6516 35.6982 89.6718 35.7431 89.6942 35.7868C89.7362 35.8686 89.7971 35.89 89.6983 35.7876C89.604 35.6897 89.6641 35.6964 89.6978 35.7906C89.72 35.8525 89.7442 35.9136 89.7658 35.9758C89.8362 36.1781 89.8952 36.3842 89.9427 36.5931C89.9647 36.6896 89.9823 36.7868 90.0012 36.8839C90.0682 37.2284 89.9915 36.6698 90.0077 36.9256C90.0212 37.1393 90.037 37.3506 90.0332 37.5651C90.0315 37.6633 90.0273 37.7613 90.0204 37.8592C90.017 37.9081 90.0115 37.9568 90.0083 38.0056C89.9928 38.241 89.9923 37.9196 90.0252 37.8976C89.9566 38.0974 89.9112 38.3044 89.8897 38.5146C89.8628 38.6079 89.8309 38.6991 89.801 38.7913C89.6966 39.1132 89.899 38.6159 89.7877 38.8359C89.6962 39.0248 89.5939 39.2084 89.4813 39.3856C89.4324 39.4598 89.2481 39.6274 89.3988 39.5108C89.5624 39.3842 89.3131 39.6022 89.2599 39.6583C89.1916 39.7303 89.1207 39.7999 89.0472 39.8669C89.0001 39.9129 88.9504 39.9561 88.8984 39.9963C88.8889 39.9915 89.149 39.8225 89.0088 39.9119C88.8306 40.0256 88.6618 40.1472 88.474 40.2462C88.4521 40.2577 88.212 40.369 88.213 40.3729C88.2026 40.3324 88.5217 40.2605 88.3026 40.3313C88.2566 40.3462 88.2115 40.3641 88.1657 40.3796C87.9663 40.4467 87.7627 40.5009 87.5564 40.5419C87.5091 40.5513 87.4591 40.5561 87.4126 40.5681C87.2575 40.6082 87.5608 40.5446 87.5699 40.5499C87.4553 40.5449 87.3405 40.5551 87.2285 40.5801C87.0157 40.5923 86.8023 40.5922 86.5895 40.58C86.5403 40.5772 86.4912 40.5723 86.4419 40.5694C86.3276 40.5628 86.2437 40.4804 86.3958 40.5698C86.5132 40.6388 86.5034 40.5885 86.3995 40.5693C86.3509 40.5603 86.302 40.5527 86.2534 40.5436C86.0427 40.5042 85.8344 40.4531 85.6294 40.3907C85.5191 40.3571 85.411 40.318 85.3021 40.28C85.2547 40.2662 85.2085 40.2485 85.1641 40.2269C85.1635 40.2145 85.4446 40.3612 85.2962 40.2812C85.1088 40.1802 84.9151 40.0956 84.7321 39.9852C84.6345 39.9263 84.5407 39.8623 84.4458 39.7992C84.404 39.7741 84.3643 39.7456 84.327 39.7142C84.3302 39.7015 84.5596 39.9141 84.4392 39.7994C84.2869 39.6542 84.1239 39.5243 83.9797 39.3697C83.9467 39.3344 83.9155 39.2974 83.8826 39.2619L83.8508 39.2256C83.7695 39.1262 83.768 39.1267 83.8463 39.227C83.9258 39.2504 83.9221 39.3377 83.8467 39.2243C83.8198 39.184 83.7913 39.1447 83.7644 39.1043C83.6426 38.9307 83.5387 38.7452 83.4544 38.5507C83.4617 38.545 83.5843 38.9116 83.4906 38.6349C83.4728 38.5827 83.4529 38.5312 83.4355 38.4788C83.4011 38.3749 83.3707 38.2698 83.3445 38.1636C83.3186 38.0584 83.3053 37.9498 83.2792 37.845C83.2351 37.6683 83.3049 37.9844 83.297 37.9765C83.272 37.9518 83.2826 37.7986 83.2807 37.7619C83.2687 37.5266 83.2955 37.2981 83.2997 37.0642C83.303 36.8829 83.2847 37.2054 83.2809 37.196C83.2819 37.1417 83.2915 37.0879 83.3094 37.0366C83.3366 36.9133 83.3618 36.79 83.3951 36.668C83.4331 36.5283 83.477 36.3903 83.5265 36.254C83.5451 36.203 83.5676 36.1527 83.5849 36.1013C83.648 35.9129 83.4599 36.3288 83.5636 36.1589C83.7063 35.9253 83.8126 35.6724 83.9641 35.4416C84 35.3869 84.2183 35.0821 84.1025 35.236C83.9871 35.3892 84.221 35.0988 84.2653 35.0495C84.4493 34.8446 84.6657 34.6764 84.8562 34.4802C84.969 34.3641 84.7775 34.5374 84.7662 34.5454C84.8252 34.5033 84.883 34.4595 84.9427 34.4184C85.0468 34.3466 85.1535 34.2787 85.2628 34.2148C85.3858 34.1426 85.525 34.0889 85.6443 34.0126C85.7852 33.9224 85.5365 34.0522 85.532 34.0549C85.5964 34.023 85.6637 33.9973 85.733 33.9783C85.8491 33.9371 86.3543 33.7191 86.4603 33.7873C86.4555 33.7842 86.0767 33.8178 86.3829 33.7981C86.4553 33.7935 86.5273 33.7864 86.5998 33.7834C86.7464 33.7774 86.8925 33.781 87.0389 33.7886C87.4359 33.786 87.8159 33.6272 88.0967 33.3464C88.3774 33.0657 88.5363 32.6856 88.5389 32.2886C88.5304 31.8935 88.3696 31.5168 88.0901 31.2374C87.8107 30.9579 87.434 30.7971 87.0388 30.7886Z" fill="#E6E6E6"/>
<path d="M390.412 363H22.5064C17.8542 362.995 13.394 361.145 10.1043 357.855C6.81466 354.565 4.96422 350.105 4.95898 345.453V17.5474C4.9642 12.8951 6.81461 8.4349 10.1042 5.14526C13.3939 1.85562 17.8541 0.00521683 22.5064 0H390.412C395.064 0.00521684 399.524 1.85562 402.814 5.14526C406.103 8.4349 407.954 12.8951 407.959 17.5474V345.453C407.954 350.105 406.103 354.565 402.814 357.855C399.524 361.145 395.064 362.995 390.412 363ZM22.5064 2C18.3844 2.00469 14.4326 3.64422 11.5179 6.5589C8.6032 9.47358 6.96367 13.4254 6.95898 17.5474V345.453C6.96378 349.575 8.60336 353.527 11.518 356.441C14.4327 359.356 18.3845 360.995 22.5064 361H390.412C394.534 360.995 398.485 359.356 401.4 356.441C404.315 353.527 405.954 349.575 405.959 345.453V17.5474C405.954 13.4254 404.315 9.47358 401.4 6.5589C398.485 3.64422 394.534 2.00469 390.412 2H22.5064Z" fill="#E6E6E6"/>
<path d="M21.8962 223.106L151.275 222.712L279.994 222.321L352.605 222.1C352.994 222.087 353.363 221.923 353.633 221.643C353.903 221.363 354.054 220.989 354.054 220.6C354.054 220.211 353.903 219.837 353.633 219.557C353.363 219.277 352.994 219.113 352.605 219.1L223.226 219.494L94.507 219.885L21.8962 220.106C21.5074 220.119 21.139 220.283 20.8687 220.563C20.5983 220.843 20.4473 221.217 20.4473 221.606C20.4473 221.995 20.5983 222.369 20.8687 222.649C21.139 222.929 21.5074 223.092 21.8962 223.106Z" fill="#E6E6E6"/>
<path d="M87.1663 220.674L87.9663 173.437C87.999 171.506 84.999 171.505 84.9663 173.437L84.1663 220.674C84.1336 222.605 87.1336 222.605 87.1663 220.674Z" fill="#E6E6E6"/>
<path d="M149.001 221.185L150.951 161.81L151.508 144.846C151.571 142.915 148.571 142.918 148.508 144.846L146.558 204.221L146.001 221.185C145.938 223.116 148.938 223.114 149.001 221.185Z" fill="#E6E6E6"/>
<path d="M210.669 116.701C209.493 137.731 207.317 199.761 206.142 220.791C206.034 222.72 209.034 222.714 209.142 220.791C210.317 199.761 212.493 137.731 213.669 116.701C213.777 114.772 210.777 114.778 210.669 116.701Z" fill="#E6E6E6"/>
<path d="M272.042 199.689L271.674 219.902C271.639 221.834 274.639 221.834 274.674 219.902C275.108 196.029 276.222 196.807 276.345 190.07C276.38 188.138 273.38 188.138 273.345 190.07C273.345 190.07 272.476 175.816 272.042 199.689Z" fill="#E6E6E6"/>
<path d="M332.154 146.589L332.494 203.297L332.591 219.535C332.604 219.924 332.768 220.293 333.048 220.563C333.328 220.833 333.702 220.984 334.091 220.984C334.48 220.984 334.854 220.833 335.134 220.563C335.413 220.293 335.577 219.924 335.591 219.535L335.251 162.827L335.154 146.589C335.141 146.2 334.977 145.831 334.697 145.561C334.417 145.291 334.043 145.14 333.654 145.14C333.265 145.14 332.891 145.291 332.612 145.561C332.332 145.831 332.168 146.2 332.154 146.589Z" fill="#E6E6E6"/>
<path d="M22.1377 221.418C19.6545 214.594 25.2522 208.031 31.004 205.082C37.895 201.549 45.8223 200.748 52.7863 197.342C63.1686 192.264 70.7307 183.15 77.4596 174.028C84.3854 164.638 90.7224 154.561 99.5228 146.76C104.16 142.558 109.637 139.388 115.592 137.461C123.094 135.12 131.05 134.959 138.802 135.903C154.821 137.852 169.67 144.468 185.126 148.673C199.698 152.638 215.754 154.867 230.057 148.702C237.324 145.57 243.266 140.317 249.649 135.771C255.826 131.325 262.733 127.993 270.057 125.926C284.415 121.933 300.095 123 313.463 129.749C325.75 135.873 335.479 146.142 340.932 158.742C347.27 173.88 346.444 190.797 344.374 206.731C343.839 210.85 343.202 214.955 342.559 219.058C342.262 220.947 345.153 221.76 345.452 219.856C348.03 203.425 350.599 186.474 347.392 169.939C344.619 155.502 336.68 142.57 325.061 133.563C313.393 124.531 298.888 119.954 284.149 120.652C276.426 121.01 268.823 122.701 261.675 125.65C254.256 128.719 247.973 133.267 241.592 138.054C235.03 142.975 228.267 147.045 220.121 148.65C212.219 150.207 203.999 149.623 196.132 148.153C179.9 145.12 164.77 138.168 148.675 134.606C133.764 131.306 117.673 130.976 104.32 139.4C94.0483 145.88 86.7904 155.94 79.825 165.654C72.9206 175.283 65.9289 185.579 55.8329 192.157C49.6741 196.169 42.751 197.65 35.8615 199.906C28.9542 202.168 22.3231 205.985 19.5067 213.062C18.2929 215.976 18.1997 219.237 19.2449 222.216C19.8999 224.016 22.8002 223.238 22.1377 221.418Z" fill="#E6E6E6"/>
<path d="M86.172 166.905L86.168 166.907L86.176 166.905H86.172Z" fill="#E6E6E6"/>
<path d="M91.3718 164.146C90.6785 162.918 89.5724 161.975 88.2499 161.486C86.9275 160.996 85.4744 160.992 84.1487 161.472C83.4897 161.713 82.8857 162.083 82.3723 162.561C81.8588 163.039 81.4465 163.615 81.1596 164.255C81.1022 164.391 81.0686 164.534 81.0218 164.674C80.9568 164.779 80.8786 164.874 80.8204 164.984C80.1986 166.223 80.0284 167.64 80.339 168.991C80.6496 170.342 81.4216 171.542 82.522 172.385C83.6224 173.228 84.9824 173.661 86.3676 173.609C87.7529 173.558 89.0768 173.025 90.1112 172.102C91.1984 171.119 91.9164 169.794 92.1457 168.346C92.3751 166.899 92.102 165.416 91.3718 164.146ZM87.6146 166.693C87.6224 166.838 87.6269 166.769 87.6146 166.693V166.693ZM87.2327 165.825C87.218 165.808 87.2198 165.81 87.2327 165.825V165.825ZM85.5493 166.502C85.5246 166.461 85.5268 166.467 85.5493 166.502V166.502ZM85.9483 166.84C86.0058 166.865 86.0433 166.872 85.9483 166.84V166.84ZM86.1265 166.925L86.166 166.907C86.1563 166.908 86.1466 166.906 86.138 166.901L86.1392 166.901L86.1701 166.905L86.1759 166.902L86.158 166.898C86.1735 166.897 86.1749 166.9 86.1759 166.902C86.3544 166.82 86.234 166.86 86.1305 166.892L86.1236 166.89C86.059 166.857 85.9896 166.835 85.9179 166.824C85.9113 166.82 85.9035 166.818 85.8979 166.814C85.8405 166.773 85.5502 166.546 85.8195 166.784C85.7609 166.732 85.703 166.681 85.6479 166.625C85.6154 166.592 85.5859 166.556 85.5599 166.517C85.5245 166.457 85.4903 166.395 85.4571 166.334L85.4521 166.301C85.4477 166.273 85.4444 166.261 85.4407 166.245C85.4424 166.228 85.4452 166.209 85.4479 166.191C85.468 166.137 85.4808 166.081 85.486 166.024L85.4976 166.009C85.5407 165.949 85.5784 165.879 85.6195 165.816C85.4021 166.146 85.7045 165.78 85.7271 165.733C85.731 165.725 85.7243 165.73 85.7259 165.724C85.7347 165.719 85.732 165.723 85.7426 165.717C85.81 165.677 85.8739 165.633 85.9423 165.595C86.0238 165.55 86.3447 165.458 86.0119 165.554C86.0875 165.532 86.16 165.505 86.2365 165.485C86.2503 165.481 86.3624 165.465 86.4227 165.455C86.4757 165.453 86.5272 165.452 86.5326 165.452C86.5575 165.452 86.5824 165.455 86.6073 165.456C86.5521 165.464 86.7969 165.516 86.8696 165.528C86.8801 165.536 86.8854 165.541 86.8997 165.552C86.9612 165.597 87.036 165.636 87.1008 165.678C86.8107 165.491 87.1046 165.693 87.16 165.749C87.1932 165.782 87.2237 165.817 87.2549 165.852C87.2835 165.885 87.3093 165.921 87.3322 165.958C87.3797 166.045 87.4303 166.133 87.4803 166.219L87.4942 166.241C87.4939 166.244 87.4937 166.247 87.4937 166.25C87.5198 166.389 87.5582 166.525 87.6086 166.657C87.6111 166.669 87.613 166.68 87.6143 166.691C87.6189 166.767 87.6253 166.843 87.6254 166.92L87.6248 166.935C87.3937 166.815 87.1374 166.751 86.8769 166.749C86.6164 166.748 86.3592 166.808 86.1265 166.925Z" fill="#E6E6E6"/>
<path d="M86.1805 166.903C86.1848 166.904 86.1797 166.905 86.1797 166.905L86.1805 166.903Z" fill="#E6E6E6"/>
<path d="M86.1803 166.905L86.1758 166.905C86.1815 166.906 86.1803 166.905 86.1803 166.905Z" fill="#E6E6E6"/>
<path d="M86.1777 166.902L86.1797 166.903L86.1777 166.902Z" fill="#E6E6E6"/>
<path d="M150.172 138.905L150.168 138.907L150.176 138.905H150.172Z" fill="#E6E6E6"/>
<path d="M155.372 136.146C154.678 134.918 153.572 133.975 152.25 133.486C150.927 132.996 149.474 132.992 148.149 133.472C147.49 133.713 146.886 134.083 146.372 134.561C145.859 135.039 145.446 135.615 145.16 136.255C145.102 136.391 145.069 136.534 145.022 136.674C144.957 136.779 144.879 136.874 144.82 136.984C144.199 138.223 144.028 139.64 144.339 140.991C144.65 142.342 145.422 143.542 146.522 144.385C147.622 145.228 148.982 145.661 150.368 145.609C151.753 145.558 153.077 145.025 154.111 144.102C155.198 143.119 155.916 141.794 156.146 140.346C156.375 138.899 156.102 137.416 155.372 136.146ZM151.615 138.693C151.622 138.838 151.627 138.769 151.615 138.693V138.693ZM151.233 137.825C151.218 137.808 151.22 137.81 151.233 137.825V137.825ZM149.549 138.502C149.525 138.461 149.527 138.467 149.549 138.502V138.502ZM149.948 138.84C150.006 138.865 150.043 138.872 149.948 138.84V138.84ZM150.126 138.925L150.166 138.907C150.156 138.908 150.147 138.906 150.138 138.901L150.139 138.901L150.17 138.905L150.176 138.902L150.158 138.898C150.173 138.897 150.175 138.9 150.176 138.902C150.354 138.82 150.234 138.86 150.13 138.892L150.124 138.89C150.059 138.857 149.989 138.835 149.918 138.824C149.911 138.82 149.903 138.818 149.898 138.814C149.84 138.773 149.55 138.546 149.819 138.784C149.761 138.732 149.703 138.681 149.648 138.625C149.615 138.592 149.586 138.556 149.56 138.517C149.524 138.457 149.49 138.395 149.457 138.334L149.452 138.301C149.448 138.273 149.444 138.261 149.441 138.245C149.442 138.228 149.445 138.209 149.448 138.191C149.468 138.137 149.481 138.081 149.486 138.024L149.498 138.009C149.541 137.949 149.578 137.879 149.619 137.816C149.402 138.146 149.704 137.78 149.727 137.733C149.731 137.725 149.724 137.73 149.726 137.724C149.735 137.719 149.732 137.723 149.743 137.717C149.81 137.677 149.874 137.633 149.942 137.595C150.024 137.55 150.345 137.458 150.012 137.554C150.087 137.532 150.16 137.505 150.236 137.485C150.25 137.481 150.362 137.465 150.423 137.455C150.476 137.453 150.527 137.452 150.533 137.452C150.557 137.452 150.582 137.455 150.607 137.456C150.552 137.464 150.797 137.516 150.87 137.528C150.88 137.536 150.885 137.541 150.9 137.552C150.961 137.597 151.036 137.636 151.101 137.678C150.811 137.491 151.105 137.693 151.16 137.749C151.193 137.782 151.224 137.817 151.255 137.852C151.283 137.885 151.309 137.921 151.332 137.958C151.38 138.045 151.43 138.133 151.48 138.219L151.494 138.241C151.494 138.244 151.494 138.247 151.494 138.25C151.52 138.389 151.558 138.525 151.609 138.657C151.611 138.669 151.613 138.68 151.614 138.691C151.619 138.767 151.625 138.843 151.625 138.92L151.625 138.935C151.394 138.815 151.137 138.751 150.877 138.749C150.616 138.748 150.359 138.808 150.126 138.925Z" fill="#E6E6E6"/>
<path d="M150.18 138.905L150.176 138.905C150.182 138.906 150.18 138.905 150.18 138.905Z" fill="#E6E6E6"/>
<path d="M150.178 138.902L150.18 138.903L150.178 138.902Z" fill="#E6E6E6"/>
<path d="M150.18 138.903C150.185 138.904 150.18 138.905 150.18 138.905L150.18 138.903Z" fill="#E6E6E6"/>
<path d="M212.178 152.902L212.18 152.903L212.178 152.902Z" fill="#E6E6E6"/>
<path d="M217.372 108.146C216.678 106.918 215.572 105.975 214.25 105.486C212.927 104.996 211.474 104.992 210.149 105.472C209.49 105.713 208.886 106.083 208.372 106.561C207.859 107.039 207.446 107.615 207.16 108.255C207.102 108.391 207.069 108.534 207.022 108.674C206.957 108.779 206.879 108.874 206.82 108.984C206.199 110.223 206.028 111.64 206.339 112.991C206.65 114.342 207.422 115.542 208.522 116.385C209.622 117.228 210.982 117.661 212.368 117.609C213.753 117.558 215.077 117.025 216.111 116.102C217.198 115.119 217.916 113.794 218.146 112.346C218.375 110.899 218.102 109.416 217.372 108.146ZM213.615 110.693C213.622 110.838 213.627 110.769 213.615 110.693V110.693ZM213.233 109.825C213.218 109.808 213.22 109.81 213.233 109.825V109.825ZM211.549 110.502C211.525 110.461 211.527 110.467 211.549 110.502V110.502ZM211.948 110.84C212.006 110.865 212.043 110.872 211.948 110.84V110.84ZM212.126 110.925L212.166 110.907C212.156 110.908 212.147 110.906 212.138 110.901L212.139 110.901L212.17 110.905L212.176 110.902L212.158 110.898C212.173 110.897 212.175 110.9 212.176 110.902C212.354 110.82 212.234 110.86 212.13 110.892L212.124 110.89C212.059 110.857 211.989 110.835 211.918 110.824C211.911 110.82 211.903 110.818 211.898 110.814C211.84 110.773 211.55 110.546 211.819 110.784C211.761 110.732 211.703 110.681 211.648 110.625C211.615 110.592 211.586 110.556 211.56 110.517C211.524 110.457 211.49 110.395 211.457 110.334L211.452 110.301C211.448 110.273 211.444 110.261 211.441 110.245C211.442 110.228 211.445 110.209 211.448 110.191C211.468 110.137 211.481 110.081 211.486 110.024L211.498 110.009C211.541 109.949 211.578 109.879 211.619 109.816C211.402 110.146 211.704 109.78 211.727 109.733C211.731 109.725 211.724 109.73 211.726 109.724C211.735 109.719 211.732 109.723 211.743 109.717C211.81 109.677 211.874 109.633 211.942 109.595C212.024 109.55 212.345 109.458 212.012 109.554C212.087 109.532 212.16 109.505 212.236 109.485C212.25 109.481 212.362 109.465 212.423 109.455C212.476 109.453 212.527 109.452 212.533 109.452C212.557 109.452 212.582 109.455 212.607 109.456C212.552 109.464 212.797 109.516 212.87 109.528C212.88 109.536 212.885 109.541 212.9 109.552C212.961 109.597 213.036 109.636 213.101 109.678C212.811 109.491 213.105 109.693 213.16 109.749C213.193 109.782 213.224 109.817 213.255 109.852C213.283 109.885 213.309 109.921 213.332 109.958C213.38 110.045 213.43 110.133 213.48 110.219L213.494 110.241C213.494 110.244 213.494 110.247 213.494 110.25C213.52 110.389 213.558 110.525 213.609 110.657C213.611 110.669 213.613 110.68 213.614 110.691C213.619 110.767 213.625 110.843 213.625 110.92L213.625 110.935C213.394 110.815 213.137 110.751 212.877 110.749C212.616 110.748 212.359 110.808 212.126 110.925Z" fill="#E6E6E6"/>
<path d="M212.172 152.905L212.168 152.907L212.176 152.905H212.172Z" fill="#E6E6E6"/>
<path d="M212.18 152.905L212.176 152.905C212.182 152.906 212.18 152.905 212.18 152.905Z" fill="#E6E6E6"/>
<path d="M212.18 152.903C212.185 152.904 212.18 152.905 212.18 152.905L212.18 152.903Z" fill="#E6E6E6"/>
<path d="M280.372 185.146C279.678 183.918 278.572 182.975 277.25 182.486C275.927 181.996 274.474 181.992 273.149 182.472C272.49 182.713 271.886 183.083 271.372 183.561C270.859 184.039 270.446 184.615 270.16 185.255C270.102 185.391 270.069 185.534 270.022 185.674C269.957 185.779 269.879 185.874 269.82 185.984C269.199 187.223 269.028 188.64 269.339 189.991C269.65 191.342 270.422 192.542 271.522 193.385C272.622 194.228 273.982 194.661 275.368 194.609C276.753 194.558 278.077 194.025 279.111 193.102C280.198 192.119 280.916 190.794 281.146 189.346C281.375 187.899 281.102 186.416 280.372 185.146ZM276.615 187.693C276.622 187.838 276.627 187.769 276.615 187.693V187.693ZM276.233 186.825C276.218 186.808 276.22 186.81 276.233 186.825V186.825ZM274.549 187.502C274.525 187.461 274.527 187.467 274.549 187.502V187.502ZM274.948 187.84C275.006 187.865 275.043 187.872 274.948 187.84V187.84ZM275.126 187.925L275.166 187.907C275.156 187.908 275.147 187.906 275.138 187.901L275.139 187.901L275.17 187.905L275.176 187.902L275.158 187.898C275.173 187.897 275.175 187.9 275.176 187.902C275.354 187.82 275.234 187.86 275.13 187.892L275.124 187.89C275.059 187.857 274.989 187.835 274.918 187.824C274.911 187.82 274.903 187.818 274.898 187.814C274.84 187.773 274.55 187.546 274.819 187.784C274.761 187.732 274.703 187.681 274.648 187.625C274.615 187.592 274.586 187.556 274.56 187.517C274.524 187.457 274.49 187.395 274.457 187.334L274.452 187.301C274.448 187.273 274.444 187.261 274.441 187.245C274.442 187.228 274.445 187.209 274.448 187.191C274.468 187.137 274.481 187.081 274.486 187.024L274.498 187.009C274.541 186.949 274.578 186.879 274.619 186.816C274.402 187.146 274.704 186.78 274.727 186.733C274.731 186.725 274.724 186.73 274.726 186.724C274.735 186.719 274.732 186.723 274.743 186.717C274.81 186.677 274.874 186.633 274.942 186.595C275.024 186.55 275.345 186.458 275.012 186.554C275.087 186.532 275.16 186.505 275.236 186.485C275.25 186.481 275.362 186.465 275.423 186.455C275.476 186.453 275.527 186.452 275.533 186.452C275.557 186.452 275.582 186.455 275.607 186.456C275.552 186.464 275.797 186.516 275.87 186.528C275.88 186.536 275.885 186.541 275.9 186.552C275.961 186.597 276.036 186.636 276.101 186.678C275.811 186.491 276.105 186.693 276.16 186.749C276.193 186.782 276.224 186.817 276.255 186.852C276.283 186.885 276.309 186.921 276.332 186.958C276.38 187.045 276.43 187.133 276.48 187.219L276.494 187.241C276.494 187.244 276.494 187.247 276.494 187.25C276.52 187.389 276.558 187.525 276.609 187.657C276.611 187.669 276.613 187.68 276.614 187.691C276.619 187.767 276.625 187.843 276.625 187.92L276.625 187.935C276.394 187.815 276.137 187.751 275.877 187.749C275.616 187.748 275.359 187.808 275.126 187.925Z" fill="#E6E6E6"/>
<path d="M275.172 121.905L275.168 121.907L275.176 121.905H275.172Z" fill="#E6E6E6"/>
<path d="M275.18 121.905L275.176 121.905C275.182 121.906 275.18 121.905 275.18 121.905Z" fill="#E6E6E6"/>
<path d="M275.18 121.903C275.185 121.904 275.18 121.905 275.18 121.905L275.18 121.903Z" fill="#E6E6E6"/>
<path d="M275.178 121.902L275.18 121.903L275.178 121.902Z" fill="#E6E6E6"/>
<path d="M339.372 139.146C338.678 137.918 337.572 136.975 336.25 136.486C334.927 135.996 333.474 135.992 332.149 136.472C331.49 136.713 330.886 137.083 330.372 137.561C329.859 138.039 329.446 138.615 329.16 139.255C329.102 139.391 329.069 139.534 329.022 139.674C328.957 139.779 328.879 139.874 328.82 139.984C328.199 141.223 328.028 142.64 328.339 143.991C328.65 145.342 329.422 146.542 330.522 147.385C331.622 148.228 332.982 148.661 334.368 148.609C335.753 148.558 337.077 148.025 338.111 147.102C339.198 146.119 339.916 144.794 340.146 143.346C340.375 141.899 340.102 140.416 339.372 139.146ZM335.615 141.693C335.622 141.838 335.627 141.769 335.615 141.693V141.693ZM335.233 140.825C335.218 140.808 335.22 140.81 335.233 140.825V140.825ZM333.549 141.502C333.525 141.461 333.527 141.467 333.549 141.502V141.502ZM333.948 141.84C334.006 141.865 334.043 141.872 333.948 141.84V141.84ZM334.126 141.925L334.166 141.907C334.156 141.908 334.147 141.906 334.138 141.901L334.139 141.901L334.17 141.905L334.176 141.902L334.158 141.898C334.173 141.897 334.175 141.9 334.176 141.902C334.354 141.82 334.234 141.86 334.13 141.892L334.124 141.89C334.059 141.857 333.989 141.835 333.918 141.824C333.911 141.82 333.903 141.818 333.898 141.814C333.84 141.773 333.55 141.546 333.819 141.784C333.761 141.732 333.703 141.681 333.648 141.625C333.615 141.592 333.586 141.556 333.56 141.517C333.524 141.457 333.49 141.395 333.457 141.334L333.452 141.301C333.448 141.273 333.444 141.261 333.441 141.245C333.442 141.228 333.445 141.209 333.448 141.191C333.468 141.137 333.481 141.081 333.486 141.024L333.498 141.009C333.541 140.949 333.578 140.879 333.619 140.816C333.402 141.146 333.704 140.78 333.727 140.733C333.731 140.725 333.724 140.73 333.726 140.724C333.735 140.719 333.732 140.723 333.743 140.717C333.81 140.677 333.874 140.633 333.942 140.595C334.024 140.55 334.345 140.458 334.012 140.554C334.087 140.532 334.16 140.505 334.236 140.485C334.25 140.481 334.362 140.465 334.423 140.455C334.476 140.453 334.527 140.452 334.533 140.452C334.557 140.452 334.582 140.455 334.607 140.456C334.552 140.464 334.797 140.516 334.87 140.528C334.88 140.536 334.885 140.541 334.9 140.552C334.961 140.597 335.036 140.636 335.101 140.678C334.811 140.491 335.105 140.693 335.16 140.749C335.193 140.782 335.224 140.817 335.255 140.852C335.283 140.885 335.309 140.921 335.332 140.958C335.38 141.045 335.43 141.133 335.48 141.219L335.494 141.241C335.494 141.244 335.494 141.247 335.494 141.25C335.52 141.389 335.558 141.525 335.609 141.657C335.611 141.669 335.613 141.68 335.614 141.691C335.619 141.767 335.625 141.843 335.625 141.92L335.625 141.935C335.394 141.815 335.137 141.751 334.877 141.749C334.616 141.748 334.359 141.808 334.126 141.925Z" fill="#E6E6E6"/>
<path d="M334.172 141.905L334.168 141.907L334.176 141.905H334.172Z" fill="#E6E6E6"/>
<path d="M334.178 141.902L334.18 141.903L334.178 141.902Z" fill="#E6E6E6"/>
<path d="M334.18 141.903C334.185 141.904 334.18 141.905 334.18 141.905L334.18 141.903Z" fill="#E6E6E6"/>
<path d="M334.18 141.905L334.176 141.905C334.182 141.906 334.18 141.905 334.18 141.905Z" fill="#E6E6E6"/>
<path d="M318.003 187.733L271.506 190.317C271.244 190.332 270.986 190.246 270.786 190.076C270.586 189.906 270.458 189.666 270.43 189.405C270.401 189.144 270.474 188.882 270.633 188.673C270.792 188.464 271.025 188.324 271.284 188.282L318.809 180.549L318.003 187.733Z" fill="#3F3D56"/>
<path d="M377.093 291.249L394.615 261.771L407.566 267.888C407.566 267.888 385.25 295.759 384.539 296.561C384.844 297.916 384.73 299.331 384.212 300.62C383.695 301.908 382.799 303.009 381.642 303.777C380.485 304.545 379.122 304.944 377.734 304.921C376.346 304.897 374.997 304.453 373.867 303.647C372.737 302.84 371.878 301.71 371.404 300.405C370.93 299.1 370.864 297.681 371.213 296.338C371.563 294.994 372.312 293.788 373.362 292.879C374.412 291.971 375.713 291.402 377.093 291.249Z" fill="#FFB6B6"/>
<path d="M384.382 222.774L412.77 237.584C414.544 238.862 416.032 240.497 417.138 242.382C418.245 244.268 418.946 246.364 419.196 248.536C419.446 250.708 419.241 252.909 418.592 254.997C417.944 257.085 416.867 259.015 415.43 260.663L395.86 283.112L387.334 271.56L393.905 257.82L381.182 254.465L384.382 222.774Z" fill="#6C63FF"/>
<path d="M303.486 188.215L300.289 222.358L285.967 222.382C285.967 222.382 294.184 187.636 294.483 186.607C293.627 185.513 293.123 184.186 293.039 182.8C292.954 181.414 293.292 180.035 294.008 178.845C294.724 177.656 295.784 176.711 297.048 176.137C298.313 175.563 299.722 175.387 301.089 175.631C302.455 175.875 303.716 176.528 304.703 177.505C305.691 178.481 306.359 179.734 306.619 181.098C306.879 182.462 306.718 183.872 306.159 185.143C305.6 186.414 304.668 187.485 303.486 188.215Z" fill="#FFB6B6"/>
<path d="M331.995 258.037L299.03 251.991C285.149 250.322 279.452 241.188 281.957 232.28L290.017 203.609L302.671 210.394L302.623 225.624L320.336 223.202L331.995 258.037Z" fill="#6C63FF"/>
<path d="M318.501 493.992H309.437L305.125 459.03H318.503L318.501 493.992Z" fill="#FFB6B6"/>
<path d="M318.821 503.448L290.947 503.447V503.095C290.947 500.217 292.091 497.458 294.125 495.423C296.16 493.389 298.919 492.246 301.796 492.246L306.888 488.383L316.388 492.246L318.821 492.246L318.821 503.448Z" fill="#2F2E41"/>
<path d="M382.637 493.992H391.701L396.013 459.03H382.635L382.637 493.992Z" fill="#FFB6B6"/>
<path d="M382.317 503.448L410.19 503.447V503.095C410.19 500.217 409.047 497.458 407.012 495.423C404.978 493.389 402.218 492.246 399.341 492.246L394.249 488.383L384.75 492.246L382.316 492.246L382.317 503.448Z" fill="#2F2E41"/>
<path d="M304.726 433.338C304.86 431.343 305.925 420.31 305.925 420.31L308.474 396.913L312.967 334.891L316.973 318.589L336.798 326.312L352.885 318.6L372.006 324.712L386.895 330.296C386.895 330.296 386.921 332.686 387.035 335.573C387.188 339.353 387.456 343.986 388.093 345.191C389.158 347.32 388.89 358.748 388.89 358.748C388.89 358.748 389.948 381.999 391.28 384.548C392.612 387.097 392.88 392.407 392.478 393.471C392.077 394.535 393.81 422.458 393.81 422.458C393.81 422.458 398.26 471.871 395.468 479.322C392.677 486.773 382.128 481.892 382.128 481.892C382.128 481.892 382.637 479.904 379.578 478.967C376.519 478.03 367.201 407.965 367.201 407.965C367.201 407.965 365.467 393.598 363.874 389.481C362.28 385.364 360.814 373.796 360.814 373.796C360.814 373.796 350.973 354.649 350.846 350.392C350.846 350.392 349.558 346.408 348.341 350.793C347.124 355.178 343.535 365.682 343.535 365.682L340.036 378.582L335.919 397.856L333.255 414.083C333.255 414.083 329.265 435.62 328.627 436.55C327.99 437.481 328.627 457.156 328.627 457.156C328.627 457.156 325.543 473.912 321.183 476.838C316.823 479.763 305.273 476.884 305.273 476.884C305.273 476.884 304.593 435.333 304.726 433.338Z" fill="#2F2E41"/>
<path d="M319.548 266.132L317.015 298.95L313.208 302.889C312.865 303.245 312.597 303.665 312.421 304.126C312.244 304.588 312.162 305.08 312.18 305.573C312.198 306.067 312.315 306.552 312.525 306.999C312.735 307.446 313.033 307.846 313.401 308.175L311.304 311.771L310.561 323.101C310.35 323.983 310.335 324.9 310.519 325.788C310.703 326.676 311.08 327.512 311.625 328.237C312.169 328.962 312.867 329.558 313.668 329.982C314.47 330.407 315.355 330.649 316.26 330.691L381.892 333.775C382.793 333.817 383.692 333.661 384.526 333.318C385.359 332.975 386.107 332.453 386.717 331.788C387.327 331.124 387.784 330.335 388.055 329.475C388.326 328.615 388.405 327.706 388.286 326.812L382.705 284.798V281.657L380.207 275.59L381.491 255.266L384.478 223.007L367.115 218.522L357.701 212.045L341.347 212.306L331.423 220.456L318.191 222.528L308.185 224.517L306.91 227.288L309.46 226.733L318.7 262.775L319.548 266.132Z" fill="#6C63FF"/>
<path d="M349.159 207.648C359.799 207.648 368.424 199.022 368.424 188.382C368.424 177.742 359.799 169.116 349.159 169.116C338.518 169.116 329.893 177.742 329.893 188.382C329.893 199.022 338.518 207.648 349.159 207.648Z" fill="#FFB6B6"/>
<path d="M344.513 206.405L358.432 205.695C360.216 205.604 362.163 205.447 363.46 204.219C364.158 203.461 364.694 202.569 365.038 201.598C366.325 198.609 367.611 195.62 368.865 192.616C370.6 188.463 372.303 184.077 371.861 179.597C371.757 177.551 370.899 175.616 369.452 174.166C368.714 173.467 367.765 173.032 366.754 172.93C365.742 172.827 364.726 173.063 363.862 173.599C363.648 172.183 363.114 170.833 362.301 169.653C361.488 168.472 360.418 167.493 359.17 166.787C356.651 165.395 353.775 164.786 350.908 165.035C346.748 165.303 342.776 166.869 339.552 169.511C338.645 170.348 337.676 171.115 336.655 171.807C336.141 172.151 335.562 172.386 334.954 172.498C334.346 172.611 333.722 172.598 333.119 172.461C332.522 172.301 332.002 171.931 331.657 171.418C331.312 170.906 331.164 170.285 331.24 169.672C330.26 170.405 329.588 171.477 329.355 172.678C329.122 173.88 329.345 175.126 329.981 176.172C329.258 176.474 328.47 176.585 327.692 176.493C326.914 176.401 326.173 176.109 325.541 175.646C324.864 175.982 324.264 176.456 323.781 177.037C323.297 177.618 322.941 178.294 322.733 179.021C322.526 179.748 322.473 180.51 322.577 181.258C322.682 182.007 322.941 182.726 323.339 183.368C323.737 184.011 324.265 184.563 324.889 184.99C325.513 185.416 326.219 185.708 326.962 185.846C327.705 185.984 328.469 185.966 329.205 185.791C329.94 185.617 330.631 185.291 331.234 184.835C332.078 186.018 331.764 187.626 331.654 189.076C331.544 190.525 331.932 192.327 333.33 192.728C335.22 193.27 336.75 190.726 338.715 190.753C339.2 190.792 339.668 190.951 340.077 191.214C340.485 191.478 340.823 191.838 341.059 192.263C341.522 193.117 341.839 194.043 341.997 195.002L344.513 206.326" fill="#2F2E41"/>
<path d="M887.257 379.637C887.257 376.654 886.255 374.232 885.025 374.227H549.68C548.445 374.232 547.448 376.654 547.443 379.637V502.446C547.443 502.723 547.34 502.99 547.154 503.196C546.968 503.401 546.712 503.529 546.436 503.556C545.536 503.642 544.636 503.723 543.736 503.797C543.714 503.797 543.691 503.803 543.669 503.803C543.179 503.847 542.69 503.881 542.2 503.92H542.194C541.942 503.454 541.693 502.984 541.447 502.51C541.364 502.35 541.32 502.173 541.32 501.993V372.618C541.32 371.794 541.354 370.965 541.409 370.147C541.489 369.023 541.628 367.905 541.827 366.796C542.767 361.625 544.894 358.124 547.309 358.113H887.391C887.743 358.116 888.092 358.189 888.415 358.33C888.889 358.54 889.319 358.841 889.678 359.215C890.166 359.723 890.584 360.294 890.919 360.913C892.305 363.675 893.103 366.694 893.263 369.779C893.263 369.813 893.268 369.846 893.268 369.88C893.346 370.781 893.385 371.7 893.38 372.618L893.458 384.546L893.508 391.659L893.658 413.979L893.714 421.905L893.958 503.28C893.958 503.575 893.841 503.858 893.632 504.067C893.424 504.276 893.141 504.393 892.845 504.393H888.37C888.075 504.393 887.792 504.276 887.583 504.067C887.374 503.858 887.257 503.575 887.257 503.28V379.637Z" fill="#E6E6E6"/>
<path d="M796.133 302.3H759.999C759.488 302.301 758.998 302.504 758.637 302.866C758.276 303.228 758.074 303.719 758.074 304.23V361.311H798.063V304.23C798.063 303.976 798.014 303.725 797.917 303.491C797.82 303.257 797.677 303.044 797.498 302.865C797.319 302.686 797.106 302.544 796.872 302.447C796.638 302.35 796.387 302.3 796.133 302.3ZM778.188 334.733C777.058 334.727 775.976 334.276 775.177 333.477C774.377 332.678 773.926 331.596 773.921 330.466V323.882C773.921 322.75 774.37 321.665 775.171 320.865C775.971 320.065 777.056 319.615 778.188 319.615C779.319 319.615 780.405 320.065 781.205 320.865C782.005 321.665 782.455 322.75 782.455 323.882V330.466C782.449 331.596 781.998 332.678 781.199 333.477C780.4 334.276 779.318 334.727 778.188 334.733Z" fill="#CCCCCC"/>
<path d="M757.949 359.485V364.992C757.95 365.278 758.063 365.551 758.265 365.753C758.467 365.955 758.741 366.068 759.026 366.069H797.11C797.395 366.068 797.668 365.954 797.869 365.752C798.071 365.55 798.185 365.277 798.186 364.992V359.485H757.949Z" fill="#3F3D56"/>
<path d="M855.969 213.219H701.51C700.183 213.221 698.911 213.749 697.973 214.687C697.034 215.625 696.506 216.898 696.504 218.225V322.454C696.505 323.781 697.033 325.054 697.972 325.992C698.91 326.931 700.183 327.459 701.51 327.46H855.969C857.296 327.459 858.569 326.931 859.507 325.992C860.446 325.054 860.973 323.781 860.975 322.454V218.225C860.973 216.898 860.445 215.625 859.506 214.687C858.568 213.749 857.296 213.221 855.969 213.219Z" fill="#E6E6E6"/>
<path d="M854.679 216.834H702.8C702.09 216.836 701.409 217.119 700.907 217.622C700.405 218.125 700.123 218.807 700.123 219.517V321.163C700.124 321.873 700.407 322.553 700.909 323.055C701.41 323.557 702.091 323.839 702.8 323.84H854.679C855.389 323.839 856.069 323.557 856.571 323.055C857.073 322.553 857.355 321.873 857.356 321.163V219.517C857.356 218.807 857.074 218.125 856.573 217.622C856.071 217.119 855.39 216.836 854.679 216.834Z" fill="white"/>
<path d="M825.094 367.985H734.734C734.487 367.985 734.243 367.93 734.02 367.824C733.796 367.717 733.6 367.563 733.444 367.371C733.288 367.178 733.177 366.954 733.119 366.714C733.061 366.473 733.057 366.223 733.108 365.981L734.51 359.322C734.59 358.949 734.795 358.615 735.09 358.375C735.386 358.135 735.755 358.003 736.136 358.002H823.692C824.073 358.003 824.442 358.135 824.738 358.375C825.034 358.615 825.239 358.949 825.319 359.322L826.721 365.981C826.772 366.223 826.768 366.473 826.71 366.714C826.652 366.954 826.541 367.178 826.385 367.371C826.229 367.563 826.032 367.717 825.809 367.824C825.586 367.93 825.342 367.985 825.094 367.985Z" fill="#CCCCCC"/>
<path d="M739.074 359.201H737.267C736.998 359.201 736.779 359.419 736.779 359.689V360.383C736.779 360.652 736.998 360.871 737.267 360.871H739.074C739.344 360.871 739.562 360.652 739.562 360.383V359.689C739.562 359.419 739.344 359.201 739.074 359.201Z" fill="#E6E6E6"/>
<path d="M744.641 359.201H742.834C742.564 359.201 742.346 359.419 742.346 359.689V360.383C742.346 360.652 742.564 360.871 742.834 360.871H744.641C744.91 360.871 745.129 360.652 745.129 360.383V359.689C745.129 359.419 744.91 359.201 744.641 359.201Z" fill="#E6E6E6"/>
<path d="M750.205 359.201H748.398C748.129 359.201 747.91 359.419 747.91 359.689V360.383C747.91 360.652 748.129 360.871 748.398 360.871H750.205C750.475 360.871 750.693 360.652 750.693 360.383V359.689C750.693 359.419 750.475 359.201 750.205 359.201Z" fill="#E6E6E6"/>
<path d="M755.771 359.201H753.965C753.695 359.201 753.477 359.419 753.477 359.689V360.383C753.477 360.652 753.695 360.871 753.965 360.871H755.771C756.041 360.871 756.26 360.652 756.26 360.383V359.689C756.26 359.419 756.041 359.201 755.771 359.201Z" fill="#E6E6E6"/>
<path d="M761.338 359.201H759.531C759.262 359.201 759.043 359.419 759.043 359.689V360.383C759.043 360.652 759.262 360.871 759.531 360.871H761.338C761.607 360.871 761.826 360.652 761.826 360.383V359.689C761.826 359.419 761.607 359.201 761.338 359.201Z" fill="#E6E6E6"/>
<path d="M766.904 359.201H765.098C764.828 359.201 764.609 359.419 764.609 359.689V360.383C764.609 360.652 764.828 360.871 765.098 360.871H766.904C767.174 360.871 767.392 360.652 767.392 360.383V359.689C767.392 359.419 767.174 359.201 766.904 359.201Z" fill="#E6E6E6"/>
<path d="M772.471 359.201H770.664C770.394 359.201 770.176 359.419 770.176 359.689V360.383C770.176 360.652 770.394 360.871 770.664 360.871H772.471C772.74 360.871 772.959 360.652 772.959 360.383V359.689C772.959 359.419 772.74 359.201 772.471 359.201Z" fill="#E6E6E6"/>
<path d="M778.035 359.201H776.228C775.959 359.201 775.74 359.419 775.74 359.689V360.383C775.74 360.652 775.959 360.871 776.228 360.871H778.035C778.305 360.871 778.523 360.652 778.523 360.383V359.689C778.523 359.419 778.305 359.201 778.035 359.201Z" fill="#E6E6E6"/>
<path d="M783.601 359.201H781.795C781.525 359.201 781.307 359.419 781.307 359.689V360.383C781.307 360.652 781.525 360.871 781.795 360.871H783.601C783.871 360.871 784.09 360.652 784.09 360.383V359.689C784.09 359.419 783.871 359.201 783.601 359.201Z" fill="#E6E6E6"/>
<path d="M789.168 359.201H787.361C787.092 359.201 786.873 359.419 786.873 359.689V360.383C786.873 360.652 787.092 360.871 787.361 360.871H789.168C789.437 360.871 789.656 360.652 789.656 360.383V359.689C789.656 359.419 789.437 359.201 789.168 359.201Z" fill="#E6E6E6"/>
<path d="M794.734 359.201H792.928C792.658 359.201 792.439 359.419 792.439 359.689V360.383C792.439 360.652 792.658 360.871 792.928 360.871H794.734C795.004 360.871 795.222 360.652 795.222 360.383V359.689C795.222 359.419 795.004 359.201 794.734 359.201Z" fill="#E6E6E6"/>
<path d="M800.299 359.201H798.492C798.223 359.201 798.004 359.419 798.004 359.689V360.383C798.004 360.652 798.223 360.871 798.492 360.871H800.299C800.568 360.871 800.787 360.652 800.787 360.383V359.689C800.787 359.419 800.568 359.201 800.299 359.201Z" fill="#E6E6E6"/>
<path d="M805.865 359.201H804.059C803.789 359.201 803.57 359.419 803.57 359.689V360.383C803.57 360.652 803.789 360.871 804.059 360.871H805.865C806.135 360.871 806.353 360.652 806.353 360.383V359.689C806.353 359.419 806.135 359.201 805.865 359.201Z" fill="#E6E6E6"/>
<path d="M811.432 359.201H809.625C809.355 359.201 809.137 359.419 809.137 359.689V360.383C809.137 360.652 809.355 360.871 809.625 360.871H811.432C811.701 360.871 811.92 360.652 811.92 360.383V359.689C811.92 359.419 811.701 359.201 811.432 359.201Z" fill="#E6E6E6"/>
<path d="M816.998 359.201H815.191C814.922 359.201 814.703 359.419 814.703 359.689V360.383C814.703 360.652 814.922 360.871 815.191 360.871H816.998C817.268 360.871 817.486 360.652 817.486 360.383V359.689C817.486 359.419 817.268 359.201 816.998 359.201Z" fill="#E6E6E6"/>
<path d="M822.564 359.201H820.758C820.488 359.201 820.27 359.419 820.27 359.689V360.383C820.27 360.652 820.488 360.871 820.758 360.871H822.564C822.834 360.871 823.053 360.652 823.053 360.383V359.689C823.053 359.419 822.834 359.201 822.564 359.201Z" fill="#E6E6E6"/>
<path d="M739.008 361.984H737.201C736.931 361.984 736.713 362.203 736.713 362.472V363.166C736.713 363.435 736.931 363.654 737.201 363.654H739.008C739.277 363.654 739.496 363.435 739.496 363.166V362.472C739.496 362.203 739.277 361.984 739.008 361.984Z" fill="#E6E6E6"/>
<path d="M744.574 361.984H742.768C742.498 361.984 742.279 362.203 742.279 362.472V363.166C742.279 363.435 742.498 363.654 742.768 363.654H744.574C744.844 363.654 745.062 363.435 745.062 363.166V362.472C745.062 362.203 744.844 361.984 744.574 361.984Z" fill="#E6E6E6"/>
<path d="M750.141 361.984H748.334C748.064 361.984 747.846 362.203 747.846 362.472V363.166C747.846 363.435 748.064 363.654 748.334 363.654H750.141C750.41 363.654 750.629 363.435 750.629 363.166V362.472C750.629 362.203 750.41 361.984 750.141 361.984Z" fill="#E6E6E6"/>
<path d="M755.705 361.984H753.898C753.629 361.984 753.41 362.203 753.41 362.472V363.166C753.41 363.435 753.629 363.654 753.898 363.654H755.705C755.975 363.654 756.193 363.435 756.193 363.166V362.472C756.193 362.203 755.975 361.984 755.705 361.984Z" fill="#E6E6E6"/>
<path d="M761.271 361.984H759.465C759.195 361.984 758.977 362.203 758.977 362.472V363.166C758.977 363.435 759.195 363.654 759.465 363.654H761.271C761.541 363.654 761.76 363.435 761.76 363.166V362.472C761.76 362.203 761.541 361.984 761.271 361.984Z" fill="#E6E6E6"/>
<path d="M766.838 361.984H765.031C764.762 361.984 764.543 362.203 764.543 362.472V363.166C764.543 363.435 764.762 363.654 765.031 363.654H766.838C767.107 363.654 767.326 363.435 767.326 363.166V362.472C767.326 362.203 767.107 361.984 766.838 361.984Z" fill="#E6E6E6"/>
<path d="M772.404 361.984H770.598C770.328 361.984 770.109 362.203 770.109 362.472V363.166C770.109 363.435 770.328 363.654 770.598 363.654H772.404C772.674 363.654 772.892 363.435 772.892 363.166V362.472C772.892 362.203 772.674 361.984 772.404 361.984Z" fill="#E6E6E6"/>
<path d="M777.971 361.984H776.164C775.894 361.984 775.676 362.203 775.676 362.472V363.166C775.676 363.435 775.894 363.654 776.164 363.654H777.971C778.24 363.654 778.459 363.435 778.459 363.166V362.472C778.459 362.203 778.24 361.984 777.971 361.984Z" fill="#E6E6E6"/>
<path d="M783.535 361.984H781.728C781.459 361.984 781.24 362.203 781.24 362.472V363.166C781.24 363.435 781.459 363.654 781.728 363.654H783.535C783.805 363.654 784.023 363.435 784.023 363.166V362.472C784.023 362.203 783.805 361.984 783.535 361.984Z" fill="#E6E6E6"/>
<path d="M789.101 361.984H787.295C787.025 361.984 786.807 362.203 786.807 362.472V363.166C786.807 363.435 787.025 363.654 787.295 363.654H789.101C789.371 363.654 789.59 363.435 789.59 363.166V362.472C789.59 362.203 789.371 361.984 789.101 361.984Z" fill="#E6E6E6"/>
<path d="M794.668 361.984H792.861C792.592 361.984 792.373 362.203 792.373 362.472V363.166C792.373 363.435 792.592 363.654 792.861 363.654H794.668C794.937 363.654 795.156 363.435 795.156 363.166V362.472C795.156 362.203 794.937 361.984 794.668 361.984Z" fill="#E6E6E6"/>
<path d="M800.234 361.984H798.428C798.158 361.984 797.939 362.203 797.939 362.472V363.166C797.939 363.435 798.158 363.654 798.428 363.654H800.234C800.504 363.654 800.722 363.435 800.722 363.166V362.472C800.722 362.203 800.504 361.984 800.234 361.984Z" fill="#E6E6E6"/>
<path d="M805.801 361.984H803.994C803.724 361.984 803.506 362.203 803.506 362.472V363.166C803.506 363.435 803.724 363.654 803.994 363.654H805.801C806.07 363.654 806.289 363.435 806.289 363.166V362.472C806.289 362.203 806.07 361.984 805.801 361.984Z" fill="#E6E6E6"/>
<path d="M811.365 361.984H809.558C809.289 361.984 809.07 362.203 809.07 362.472V363.166C809.07 363.435 809.289 363.654 809.558 363.654H811.365C811.635 363.654 811.853 363.435 811.853 363.166V362.472C811.853 362.203 811.635 361.984 811.365 361.984Z" fill="#E6E6E6"/>
<path d="M816.932 361.984H815.125C814.855 361.984 814.637 362.203 814.637 362.472V363.166C814.637 363.435 814.855 363.654 815.125 363.654H816.932C817.201 363.654 817.42 363.435 817.42 363.166V362.472C817.42 362.203 817.201 361.984 816.932 361.984Z" fill="#E6E6E6"/>
<path d="M822.498 361.984H820.691C820.422 361.984 820.203 362.203 820.203 362.472V363.166C820.203 363.435 820.422 363.654 820.691 363.654H822.498C822.768 363.654 822.986 363.435 822.986 363.166V362.472C822.986 362.203 822.768 361.984 822.498 361.984Z" fill="#E6E6E6"/>
<path d="M785.205 365.323H763.918C763.648 365.323 763.43 365.542 763.43 365.812V366.505C763.43 366.775 763.648 366.993 763.918 366.993H785.205C785.475 366.993 785.694 366.775 785.694 366.505V365.812C785.694 365.542 785.475 365.323 785.205 365.323Z" fill="#E6E6E6"/>
<path d="M847.044 230.839H704.932C704.784 230.836 704.643 230.775 704.54 230.669C704.437 230.563 704.379 230.422 704.379 230.274C704.379 230.126 704.437 229.984 704.54 229.879C704.643 229.773 704.784 229.712 704.932 229.709H847.044C847.192 229.712 847.332 229.773 847.436 229.879C847.539 229.984 847.597 230.126 847.597 230.274C847.597 230.422 847.539 230.563 847.436 230.669C847.332 230.775 847.192 230.836 847.044 230.839Z" fill="#CACACA"/>
<path d="M714.605 226.823C716.434 226.823 717.917 225.307 717.917 223.437C717.917 221.567 716.434 220.052 714.605 220.052C712.776 220.052 711.293 221.567 711.293 223.437C711.293 225.307 712.776 226.823 714.605 226.823Z" fill="#CCCCCC"/>
<path d="M726.046 226.823C727.876 226.823 729.358 225.307 729.358 223.437C729.358 221.567 727.876 220.052 726.046 220.052C724.217 220.052 722.734 221.567 722.734 223.437C722.734 225.307 724.217 226.823 726.046 226.823Z" fill="#CCCCCC"/>
<path d="M737.488 226.823C739.317 226.823 740.8 225.307 740.8 223.437C740.8 221.567 739.317 220.052 737.488 220.052C735.659 220.052 734.176 221.567 734.176 223.437C734.176 225.307 735.659 226.823 737.488 226.823Z" fill="#CCCCCC"/>
<path d="M840.155 220.891H832.027C831.866 220.894 831.713 220.96 831.6 221.075C831.487 221.19 831.424 221.345 831.424 221.506C831.424 221.667 831.487 221.822 831.6 221.937C831.713 222.052 831.866 222.118 832.027 222.121H840.155C840.316 222.118 840.469 222.052 840.582 221.937C840.695 221.822 840.758 221.667 840.758 221.506C840.758 221.345 840.695 221.19 840.582 221.075C840.469 220.96 840.316 220.894 840.155 220.891Z" fill="#CCCCCC"/>
<path d="M840.154 223.201H832.027C831.866 223.204 831.712 223.27 831.6 223.385C831.487 223.5 831.424 223.655 831.424 223.816C831.424 223.977 831.487 224.132 831.6 224.247C831.712 224.362 831.866 224.428 832.027 224.431H840.154C840.315 224.428 840.469 224.362 840.582 224.247C840.694 224.132 840.757 223.977 840.757 223.816C840.757 223.655 840.694 223.5 840.582 223.385C840.469 223.27 840.315 223.204 840.154 223.201Z" fill="#CCCCCC"/>
<path d="M840.155 225.508H832.027C831.866 225.511 831.713 225.577 831.6 225.692C831.487 225.807 831.424 225.962 831.424 226.123C831.424 226.284 831.487 226.439 831.6 226.554C831.713 226.669 831.866 226.735 832.027 226.738H840.155C840.316 226.735 840.469 226.669 840.582 226.554C840.695 226.439 840.758 226.284 840.758 226.123C840.758 225.962 840.695 225.807 840.582 225.692C840.469 225.577 840.316 225.511 840.155 225.508Z" fill="#CCCCCC"/>
<path d="M787.462 261.629H769.704C768.37 261.629 767.289 262.71 767.289 264.044C767.289 265.378 768.37 266.459 769.704 266.459H787.462C788.796 266.459 789.877 265.378 789.877 264.044C789.877 262.71 788.796 261.629 787.462 261.629Z" fill="#6C63FF"/>
<path d="M798.934 271.289H758.233C756.9 271.289 755.818 272.37 755.818 273.704C755.818 275.038 756.9 276.119 758.233 276.119H798.934C800.268 276.119 801.349 275.038 801.349 273.704C801.349 272.37 800.268 271.289 798.934 271.289Z" fill="#E6E6E6"/>
<path d="M798.934 280.949H758.233C756.9 280.949 755.818 282.03 755.818 283.364C755.818 284.698 756.9 285.779 758.233 285.779H798.934C800.268 285.779 801.349 284.698 801.349 283.364C801.349 282.03 800.268 280.949 798.934 280.949Z" fill="#E6E6E6"/>
<path d="M524.725 431.447L516.539 427.531L527.784 393.314L539.866 399.092L524.725 431.447Z" fill="#FFB6B6"/>
<path d="M579.608 425.93C579.013 426.303 578.417 426.67 577.816 427.037C576.62 427.77 575.411 428.492 574.202 429.201C573.595 429.556 572.982 429.911 572.374 430.26V430.278L572.338 430.284L572.326 430.29L571.4 430.518L570.071 427.007L569.458 425.389L568.592 423.098L567.005 418.907L558.646 396.839L571.641 393.634L572.128 395.624H572.134L572.374 396.61L576.914 415.023L577.84 418.787L577.87 418.901L578.43 421.15L578.911 423.098L579.446 425.275L579.608 425.93Z" fill="#FFB6B6"/>
<path d="M657.124 348.432C656.3 349.755 655.458 351.072 654.61 352.377C653.035 354.806 651.417 357.199 649.758 359.557C649.758 359.563 649.752 359.563 649.746 359.569C648.778 360.465 647.708 361.246 646.559 361.896C646.511 361.932 646.457 361.956 646.409 361.986C645.562 362.454 644.662 362.815 643.727 363.062C643.39 363.146 643.047 363.23 642.711 363.315C641.496 363.603 640.293 363.85 639.097 364.066C636.968 364.445 634.863 364.716 632.771 364.884C632.603 364.902 632.434 364.914 632.266 364.926C623.661 365.558 615.285 364.541 606.542 362.876C602.224 362.058 597.817 361.078 593.253 360.062C591.762 359.725 590.264 359.394 588.749 359.063C588.635 359.039 588.515 359.009 588.394 358.985C586.23 358.51 584.029 358.041 581.774 357.578C578.936 356.995 576.007 356.43 572.965 355.894L573.181 360.182C573.361 363.48 574.047 366.731 575.214 369.821C576.512 373.621 577.541 376.628 575.37 382.887L574.324 385.918C574.866 387.423 575.052 389.033 574.868 390.622C574.683 392.211 574.132 393.735 573.259 395.076L573.049 395.395L581.774 417.469L582.339 418.9H577.871L572.375 418.906H563.061L549.622 391.943L548.979 390.656V390.59L550.368 338.775C550.386 338.318 550.422 337.855 550.482 337.398C550.727 335.321 551.383 333.313 552.412 331.492C553.442 329.67 554.823 328.073 556.477 326.791C558.061 325.553 559.876 324.642 561.816 324.111C563.755 323.581 565.781 323.441 567.775 323.7L572.375 324.296L581.774 325.51L588.394 326.37L588.527 326.388L608.051 328.914L609.452 323.201L609.711 323.105L617.931 320.093L646.36 309.672L646.433 309.648L648.303 308.962L648.525 309.323C648.591 309.431 648.657 309.54 648.718 309.648C650.566 312.961 652.071 316.455 653.209 320.075C655.124 325.987 656.7 332.004 657.93 338.096C657.984 338.36 658.032 338.601 658.074 338.817L658.092 338.884C658.11 338.986 658.122 339.052 658.128 339.07C658.692 342.223 658.343 345.471 657.124 348.432Z" fill="#2F2E41"/>
<path d="M658.323 329.337C658.233 328.952 658.119 328.561 657.999 328.183C657.044 325.313 655.932 322.499 654.667 319.752C653.248 316.625 651.547 313.276 649.52 309.65C648.54 307.894 647.486 306.068 646.357 304.172C645.792 303.222 645.205 302.254 644.596 301.268C644.572 301.223 644.546 301.179 644.517 301.136L644.343 300.847L616.214 304.611L605.739 306.012L605.114 311.232L604.963 312.525C604.957 312.525 604.957 312.525 604.963 312.531L604.542 316.054V316.06L603.983 320.714L603.935 320.708L588.391 318.694L572.372 316.619L563.768 315.507C561.774 315.247 559.748 315.387 557.808 315.917C555.868 316.448 554.053 317.359 552.469 318.598C550.816 319.88 549.434 321.478 548.405 323.299C547.376 325.12 546.719 327.128 546.474 329.205C546.42 329.626 546.384 330.059 546.366 330.486L538.248 349.722C533.391 361.226 530.297 373.397 529.072 385.824L523.119 404.856L523.967 404.934L536.582 406.106L539.914 406.419L547.25 395.71C548.086 394.489 548.879 393.232 549.619 391.945C550.837 389.844 551.919 387.667 552.86 385.427L568.728 347.665C569.955 347.876 571.17 348.076 572.372 348.266C577.935 349.168 583.274 349.904 588.391 350.473C605.029 352.331 619.437 352.476 632.263 350.9C635.865 350.461 639.346 349.884 642.707 349.168C643.94 348.91 645.157 348.631 646.357 348.333C646.64 348.266 646.917 348.2 647.193 348.128C649.678 347.487 651.963 346.233 653.838 344.481C655.713 342.729 657.119 340.534 657.927 338.098C658.891 335.275 659.028 332.236 658.323 329.337Z" fill="#2F2E41"/>
<path d="M527.341 425.859L518.484 421.614L517.095 420.947L514.876 426.394L499.387 429.804C498.621 429.972 497.928 430.38 497.411 430.969C496.894 431.559 496.579 432.298 496.512 433.079C496.444 433.86 496.629 434.643 497.038 435.311C497.447 435.98 498.059 436.501 498.785 436.797L513.92 442.973L518.725 438.649L517.546 444.452L523.246 446.779L529.494 426.894L527.341 425.859Z" fill="#2F2E41"/>
<path d="M581.773 417.469L582.339 418.9H581.773V417.469Z" fill="#2F2E41"/>
<path d="M578.69 419.205L569.41 422.421L567.953 422.924L570.21 428.356L561.602 441.678C561.176 442.336 560.971 443.113 561.018 443.896C561.065 444.679 561.362 445.426 561.864 446.028C562.365 446.631 563.047 447.057 563.808 447.244C564.57 447.432 565.371 447.371 566.095 447.07L581.195 440.809L581.567 434.357L584.812 439.309L590.5 436.952L580.948 418.426L578.69 419.205Z" fill="#2F2E41"/>
<path d="M522.36 220.249C522.8 221.106 523.423 221.857 524.185 222.447C524.946 223.038 525.828 223.455 526.767 223.668C527.707 223.881 528.682 223.885 529.624 223.68C530.566 223.476 531.451 223.067 532.218 222.484L551.733 235.439L551.771 223.266L533.233 212.83C532.166 211.607 530.689 210.817 529.08 210.611C527.47 210.405 525.841 210.796 524.501 211.71C523.161 212.625 522.203 213.999 521.808 215.573C521.414 217.147 521.61 218.81 522.36 220.249Z" fill="#FFB6B6"/>
<path d="M536.939 225.875L546.045 215.517L583.119 237.526L632.265 233.025C634.694 232.803 637.142 233.118 639.436 233.948C641.73 234.779 643.813 236.104 645.537 237.829C647.261 239.555 648.584 241.639 649.412 243.934C650.24 246.229 650.553 248.677 650.328 251.106C649.917 255.493 647.783 259.538 644.393 262.353C641.004 265.168 636.636 266.524 632.248 266.122L576.898 260.999L536.939 225.875Z" fill="#CCCCCC"/>
<path d="M651.007 226.035L650.921 225.928C644.008 225.246 637.045 226.584 630.876 229.78C624.708 232.976 619.599 237.893 616.169 243.934L611.998 251.281C598.507 267.775 608.311 279.149 608.898 280.84L604.215 302.432L605.264 309.658L605.789 311.804L659.243 339.735C662.286 325.113 659.343 312.652 648.256 303.134L658.983 269.756C661.362 262.375 661.878 254.522 660.487 246.893C659.095 239.265 655.838 232.1 651.007 226.035Z" fill="#CCCCCC"/>
<path d="M608.503 388.192H591.357C590.414 388.191 589.503 387.85 588.791 387.232C588.079 386.613 587.614 385.759 587.482 384.825C586.423 377.034 586.423 369.136 587.482 361.345C587.612 360.423 588.068 359.577 588.766 358.96C589.464 358.343 590.36 357.995 591.291 357.979C596.686 355.561 602.495 355.561 608.562 357.979C609.127 357.986 609.683 358.117 610.192 358.363C610.701 358.608 611.15 358.962 611.508 359.399C611.881 359.854 612.148 360.387 612.289 360.958C612.431 361.529 612.443 362.124 612.325 362.701C610.948 369.555 610.948 376.615 612.325 383.469C612.443 384.046 612.431 384.641 612.289 385.212C612.148 385.783 611.881 386.316 611.508 386.771C611.144 387.216 610.686 387.575 610.166 387.82C609.646 388.066 609.078 388.193 608.503 388.192Z" fill="#6C63FF"/>
<path d="M606.708 366.93H592.277C592.158 366.931 592.04 366.909 591.93 366.864C591.819 366.819 591.719 366.753 591.634 366.669C591.55 366.585 591.482 366.485 591.437 366.375C591.391 366.265 591.367 366.147 591.367 366.028C591.367 365.909 591.391 365.791 591.437 365.681C591.482 365.571 591.55 365.471 591.634 365.388C591.719 365.304 591.819 365.237 591.93 365.193C592.04 365.148 592.158 365.125 592.277 365.126H606.708C606.828 365.125 606.946 365.148 607.056 365.193C607.167 365.237 607.267 365.304 607.351 365.388C607.436 365.471 607.503 365.571 607.549 365.681C607.595 365.791 607.618 365.909 607.618 366.028C607.618 366.147 607.595 366.265 607.549 366.375C607.503 366.485 607.436 366.585 607.351 366.669C607.267 366.753 607.167 366.819 607.056 366.864C606.946 366.909 606.828 366.931 606.708 366.93Z" fill="white"/>
<path d="M606.708 374.146H592.277C592.158 374.147 592.04 374.124 591.93 374.08C591.819 374.035 591.719 373.968 591.634 373.885C591.55 373.801 591.482 373.701 591.437 373.591C591.391 373.481 591.367 373.363 591.367 373.244C591.367 373.125 591.391 373.007 591.437 372.897C591.482 372.787 591.55 372.687 591.634 372.603C591.719 372.52 591.819 372.453 591.93 372.408C592.04 372.364 592.158 372.341 592.277 372.342H606.708C606.828 372.341 606.946 372.364 607.056 372.408C607.167 372.453 607.267 372.52 607.351 372.603C607.436 372.687 607.503 372.787 607.549 372.897C607.595 373.007 607.618 373.125 607.618 373.244C607.618 373.363 607.595 373.481 607.549 373.591C607.503 373.701 607.436 373.801 607.351 373.885C607.267 373.968 607.167 374.035 607.056 374.08C606.946 374.124 606.828 374.147 606.708 374.146Z" fill="white"/>
<path d="M606.707 381.362H592.276C592.157 381.363 592.038 381.34 591.928 381.295C591.818 381.251 591.717 381.184 591.632 381.1C591.548 381.017 591.481 380.917 591.435 380.807C591.389 380.697 591.365 380.579 591.365 380.46C591.365 380.34 591.389 380.222 591.435 380.112C591.481 380.002 591.548 379.903 591.632 379.819C591.717 379.735 591.818 379.669 591.928 379.624C592.038 379.579 592.157 379.557 592.276 379.558H606.707C606.826 379.557 606.945 379.579 607.055 379.624C607.165 379.669 607.266 379.735 607.35 379.819C607.435 379.903 607.502 380.002 607.548 380.112C607.594 380.222 607.618 380.34 607.618 380.46C607.618 380.579 607.594 380.697 607.548 380.807C607.502 380.917 607.435 381.017 607.35 381.1C607.266 381.184 607.165 381.251 607.055 381.295C606.945 381.34 606.826 381.363 606.707 381.362Z" fill="white"/>
<path d="M525.503 226.192H508.357C507.414 226.191 506.503 225.85 505.791 225.232C505.079 224.613 504.614 223.758 504.482 222.825C503.423 215.034 503.423 207.136 504.482 199.345C504.612 198.423 505.068 197.577 505.766 196.96C506.464 196.343 507.36 195.995 508.291 195.979C513.686 193.561 519.495 193.561 525.562 195.978C526.127 195.986 526.683 196.117 527.192 196.362C527.701 196.608 528.15 196.962 528.508 197.399C528.881 197.854 529.148 198.387 529.289 198.958C529.431 199.529 529.443 200.124 529.325 200.701C527.948 207.555 527.948 214.615 529.325 221.469C529.443 222.046 529.431 222.641 529.289 223.212C529.148 223.783 528.881 224.316 528.508 224.771C528.144 225.216 527.686 225.574 527.166 225.82C526.646 226.066 526.078 226.193 525.503 226.192Z" fill="#6C63FF"/>
<path d="M523.708 204.93H509.277C509.158 204.931 509.04 204.909 508.93 204.864C508.819 204.819 508.719 204.753 508.634 204.669C508.55 204.585 508.482 204.485 508.437 204.375C508.391 204.265 508.367 204.147 508.367 204.028C508.367 203.909 508.391 203.791 508.437 203.681C508.482 203.571 508.55 203.472 508.634 203.388C508.719 203.304 508.819 203.238 508.93 203.193C509.04 203.148 509.158 203.125 509.277 203.126H523.708C523.828 203.125 523.946 203.148 524.056 203.193C524.167 203.238 524.267 203.304 524.351 203.388C524.436 203.472 524.503 203.571 524.549 203.681C524.595 203.791 524.618 203.909 524.618 204.028C524.618 204.147 524.595 204.265 524.549 204.375C524.503 204.485 524.436 204.585 524.351 204.669C524.267 204.753 524.167 204.819 524.056 204.864C523.946 204.909 523.828 204.931 523.708 204.93Z" fill="white"/>
<path d="M523.708 212.146H509.277C509.158 212.147 509.04 212.124 508.93 212.08C508.819 212.035 508.719 211.968 508.634 211.885C508.55 211.801 508.482 211.701 508.437 211.591C508.391 211.481 508.367 211.363 508.367 211.244C508.367 211.125 508.391 211.007 508.437 210.897C508.482 210.787 508.55 210.687 508.634 210.603C508.719 210.519 508.819 210.453 508.93 210.408C509.04 210.363 509.158 210.341 509.277 210.342H523.708C523.828 210.341 523.946 210.363 524.056 210.408C524.167 210.453 524.267 210.519 524.351 210.603C524.436 210.687 524.503 210.787 524.549 210.897C524.595 211.007 524.618 211.125 524.618 211.244C524.618 211.363 524.595 211.481 524.549 211.591C524.503 211.701 524.436 211.801 524.351 211.885C524.267 211.968 524.167 212.035 524.056 212.08C523.946 212.124 523.828 212.147 523.708 212.146Z" fill="white"/>
<path d="M523.707 219.362H509.276C509.157 219.363 509.038 219.34 508.928 219.296C508.818 219.251 508.717 219.184 508.632 219.101C508.548 219.017 508.481 218.917 508.435 218.807C508.389 218.697 508.365 218.579 508.365 218.46C508.365 218.341 508.389 218.223 508.435 218.113C508.481 218.003 508.548 217.903 508.632 217.819C508.717 217.735 508.818 217.669 508.928 217.624C509.038 217.579 509.157 217.557 509.276 217.558H523.707C523.826 217.557 523.945 217.579 524.055 217.624C524.165 217.669 524.266 217.735 524.35 217.819C524.435 217.903 524.502 218.003 524.548 218.113C524.594 218.223 524.618 218.341 524.618 218.46C524.618 218.579 524.594 218.697 524.548 218.807C524.502 218.917 524.435 219.017 524.35 219.101C524.266 219.184 524.165 219.251 524.055 219.296C523.945 219.34 523.826 219.363 523.707 219.362Z" fill="white"/>
<path d="M224.503 270.192H207.357C206.414 270.191 205.503 269.85 204.791 269.232C204.079 268.613 203.614 267.758 203.482 266.825C202.423 259.034 202.423 251.136 203.482 243.345C203.612 242.423 204.068 241.577 204.766 240.96C205.464 240.343 206.359 239.995 207.291 239.979C212.686 237.561 218.495 237.561 224.562 239.978C225.127 239.986 225.683 240.117 226.192 240.362C226.701 240.608 227.15 240.962 227.508 241.399C227.881 241.854 228.148 242.387 228.289 242.958C228.431 243.529 228.443 244.124 228.325 244.701C226.948 251.555 226.948 258.615 228.325 265.469C228.443 266.046 228.431 266.641 228.289 267.212C228.148 267.783 227.881 268.316 227.508 268.771C227.144 269.216 226.686 269.574 226.166 269.82C225.646 270.066 225.078 270.193 224.503 270.192Z" fill="#6C63FF"/>
<path d="M222.709 248.93H208.277C208.158 248.931 208.04 248.909 207.93 248.864C207.819 248.819 207.719 248.753 207.634 248.669C207.55 248.585 207.482 248.485 207.437 248.375C207.391 248.265 207.367 248.147 207.367 248.028C207.367 247.909 207.391 247.791 207.437 247.681C207.482 247.571 207.55 247.472 207.634 247.388C207.719 247.304 207.819 247.238 207.93 247.193C208.04 247.148 208.158 247.125 208.277 247.126H222.709C222.828 247.125 222.946 247.148 223.056 247.193C223.167 247.238 223.267 247.304 223.351 247.388C223.436 247.472 223.503 247.571 223.549 247.681C223.595 247.791 223.618 247.909 223.618 248.028C223.618 248.147 223.595 248.265 223.549 248.375C223.503 248.485 223.436 248.585 223.351 248.669C223.267 248.753 223.167 248.819 223.056 248.864C222.946 248.909 222.828 248.931 222.709 248.93Z" fill="white"/>
<path d="M222.709 256.146H208.277C208.158 256.147 208.04 256.124 207.93 256.08C207.819 256.035 207.719 255.968 207.634 255.885C207.55 255.801 207.482 255.701 207.437 255.591C207.391 255.481 207.367 255.363 207.367 255.244C207.367 255.125 207.391 255.007 207.437 254.897C207.482 254.787 207.55 254.687 207.634 254.603C207.719 254.519 207.819 254.453 207.93 254.408C208.04 254.363 208.158 254.341 208.277 254.342H222.709C222.828 254.341 222.946 254.363 223.056 254.408C223.167 254.453 223.267 254.519 223.351 254.603C223.436 254.687 223.503 254.787 223.549 254.897C223.595 255.007 223.618 255.125 223.618 255.244C223.618 255.363 223.595 255.481 223.549 255.591C223.503 255.701 223.436 255.801 223.351 255.885C223.267 255.968 223.167 256.035 223.056 256.08C222.946 256.124 222.828 256.147 222.709 256.146Z" fill="white"/>
<path d="M222.707 263.362H208.276C208.157 263.363 208.038 263.34 207.928 263.296C207.818 263.251 207.717 263.184 207.632 263.101C207.548 263.017 207.481 262.917 207.435 262.807C207.389 262.697 207.365 262.579 207.365 262.46C207.365 262.341 207.389 262.223 207.435 262.113C207.481 262.003 207.548 261.903 207.632 261.819C207.717 261.735 207.818 261.669 207.928 261.624C208.038 261.579 208.157 261.557 208.276 261.558H222.707C222.826 261.557 222.944 261.579 223.055 261.624C223.165 261.669 223.266 261.735 223.35 261.819C223.435 261.903 223.502 262.003 223.548 262.113C223.594 262.223 223.618 262.341 223.618 262.46C223.618 262.579 223.594 262.697 223.548 262.807C223.502 262.917 223.435 263.017 223.35 263.101C223.266 263.184 223.165 263.251 223.055 263.296C222.944 263.34 222.826 263.363 222.707 263.362Z" fill="white"/>
<path d="M613.527 366.274C614.357 365.784 615.069 365.118 615.613 364.323C616.158 363.527 616.521 362.623 616.678 361.672C616.835 360.721 616.782 359.747 616.522 358.82C616.261 357.892 615.801 357.032 615.173 356.301L626.948 336.052L614.794 336.737L605.476 355.861C604.318 356.998 603.618 358.52 603.508 360.138C603.397 361.757 603.884 363.36 604.877 364.643C605.869 365.927 607.298 366.802 608.892 367.102C610.486 367.403 612.136 367.108 613.527 366.274Z" fill="#FFB6B6"/>
<path d="M618.279 351.386L607.398 342.911L627.17 304.597L619.761 255.805C619.395 253.393 619.564 250.93 620.257 248.591C620.95 246.252 622.149 244.094 623.769 242.271C625.39 240.447 627.392 239.003 629.633 238.04C631.875 237.078 634.301 236.62 636.739 236.7C641.142 236.85 645.306 238.741 648.318 241.957C651.329 245.174 652.941 249.454 652.801 253.857L650.971 309.414L618.279 351.386Z" fill="#CCCCCC"/>
<path d="M92.3852 340.918C93.0705 340.229 93.5965 339.398 93.926 338.484C94.2556 337.57 94.3807 336.595 94.2926 335.628C94.2044 334.66 93.9052 333.723 93.416 332.884C92.9268 332.044 92.2594 331.322 91.461 330.769L102.043 278.208L90.3571 281.96L81.8867 332.799C81.0456 334.202 80.7482 335.865 81.0511 337.473C81.354 339.08 82.236 340.521 83.5301 341.522C84.8241 342.522 86.4403 343.014 88.0723 342.902C89.7044 342.791 91.239 342.085 92.3852 340.918Z" fill="#9E616A"/>
<path d="M108.011 229.714L100.76 224.241C100.76 224.241 94.3641 223.788 93.2313 235.323C92.0985 246.857 89.7725 269.336 89.7725 269.336L78.6777 320.723L94.0359 324.094L105.919 268.639L113.048 252.171L108.011 229.714Z" fill="#CCCCCC"/>
<path d="M96.0566 313.623L136.914 312.942L140.319 285.023H96.0566V313.623Z" fill="#9E616A"/>
<path d="M132.828 485.427H142.26L146.747 449.046L132.826 449.047L132.828 485.427Z" fill="#9E616A"/>
<path d="M73.7383 486.301L83.1703 486.234L87.4023 449.823L75.1353 452.637L73.7383 486.301Z" fill="#9E616A"/>
<path d="M103.239 260.98L101.102 266.536L101.529 272.093L143.356 286.58L141.281 262.262L136.579 256.705L103.239 260.98Z" fill="#FFB6B6"/>
<path d="M121.183 210.975C129.434 210.975 136.122 204.287 136.122 196.036C136.122 187.786 129.434 181.098 121.183 181.098C112.933 181.098 106.244 187.786 106.244 196.036C106.244 204.287 112.933 210.975 121.183 210.975Z" fill="#9E616A"/>
<path d="M130.489 480.774L145.4 479.885V486.273L159.575 496.063C160.275 496.546 160.803 497.241 161.08 498.045C161.358 498.85 161.371 499.722 161.117 500.534C160.864 501.346 160.358 502.056 159.673 502.561C158.987 503.065 158.159 503.337 157.308 503.337H139.557L136.497 497.018L135.302 503.337H128.609L130.489 480.774Z" fill="#2F2E41"/>
<path d="M70.5111 481.67L85.4147 480.676L85.4594 487.064L99.7031 496.754C100.407 497.233 100.939 497.924 101.222 498.726C101.505 499.529 101.524 500.401 101.277 501.215C101.029 502.029 100.528 502.742 99.846 503.251C99.1642 503.76 98.3375 504.038 97.4866 504.044L79.736 504.168L76.6322 497.871L75.4818 504.198L68.7891 504.245L70.5111 481.67Z" fill="#2F2E41"/>
<path d="M70.8034 458.407L77.6715 403.509L85.8429 345.628C79.8588 334.515 93.3334 300.004 93.3334 300.004L95.2354 300.096L138.285 308.217L138.276 308.176C147.081 332.192 149.998 344.056 149.516 369.631L147.781 461.566H148.325C149.228 461.566 150.094 461.924 150.733 462.563C151.371 463.201 151.73 464.067 151.73 464.97C151.73 465.873 151.371 466.739 150.733 467.378C150.094 468.016 149.228 468.375 148.325 468.375H131.302C130.854 468.376 130.411 468.288 129.997 468.118C129.583 467.947 129.207 467.696 128.89 467.38C128.574 467.064 128.322 466.688 128.151 466.275C127.979 465.861 127.891 465.418 127.891 464.97C127.891 464.523 127.979 464.079 128.151 463.666C128.322 463.253 128.574 462.877 128.89 462.561C129.207 462.244 129.583 461.994 129.997 461.823C130.411 461.652 130.854 461.565 131.302 461.566H131.741L116.115 352.098L102.867 398.061L87.8858 457.985C93.3334 456.623 92.4875 459.778 92.4875 461.566C92.4875 462.469 92.1288 463.335 91.4903 463.973C90.8518 464.612 89.9857 464.97 89.0828 464.97H72.059C71.2673 464.971 70.5 464.696 69.8895 464.191C69.2791 463.687 68.8636 462.986 68.7149 462.208C68.5661 461.431 68.6933 460.625 69.0746 459.931C69.4559 459.237 70.0672 458.698 70.8034 458.407Z" fill="#2F2E41"/>
<path d="M89.9806 301.792L91.3425 288.173C91.484 287.617 91.7977 287.121 92.2387 286.754C92.6797 286.388 93.2253 286.171 93.7974 286.134C94.3649 279.646 96.7523 251.658 96.895 250.437L96.9005 250.386L97.9862 227.194C98.0256 226.352 98.3739 225.554 98.9646 224.952C99.5553 224.35 100.347 223.987 101.188 223.932L106.922 223.557C107.001 223.555 107.076 223.521 107.13 223.465C107.185 223.408 107.216 223.333 107.216 223.254C107.216 222.621 107.34 221.994 107.583 221.409C107.825 220.824 108.18 220.292 108.628 219.844C109.076 219.396 109.607 219.041 110.192 218.799C110.777 218.557 111.405 218.432 112.038 218.432H129.015C130.114 218.432 131.176 218.834 132 219.562C132.825 220.289 133.355 221.293 133.492 222.384C133.5 222.459 133.535 222.529 133.592 222.579C133.649 222.629 133.722 222.655 133.797 222.654H133.799C135.728 222.614 137.608 223.267 139.096 224.495C140.585 225.722 141.585 227.442 141.913 229.344C144.234 242.848 148.886 273.496 146.586 290.535C145.785 296.467 147.511 291.769 147.814 296.732C147.844 297.211 147.779 297.692 147.623 298.147C147.467 298.601 147.223 299.021 146.904 299.38C147.556 299.617 148.088 300.102 148.385 300.729C148.682 301.355 148.719 302.074 148.49 302.728L148.788 302.654C148.701 303.001 148.546 303.327 148.332 303.614C148.119 303.901 147.851 304.143 147.544 304.327C147.237 304.51 146.896 304.631 146.542 304.683C146.189 304.735 145.828 304.717 145.481 304.63L101.065 310.648C99.6066 310.28 89.6129 303.251 89.9806 301.792Z" fill="#CCCCCC"/>
<path d="M208.666 246.42C208.388 247.351 207.909 248.21 207.263 248.935C206.617 249.661 205.82 250.236 204.927 250.621C204.035 251.005 203.069 251.189 202.098 251.16C201.127 251.131 200.174 250.889 199.306 250.451L182.135 266.122L179.855 254.062L196.521 241.069C197.353 239.66 198.672 238.605 200.229 238.104C201.787 237.603 203.474 237.691 204.971 238.35C206.468 239.01 207.671 240.196 208.352 241.683C209.033 243.17 209.145 244.856 208.666 246.42Z" fill="#9E616A"/>
<path d="M148.9 234.442C148.9 234.442 142.913 220.911 135.351 223.601C127.789 226.29 131.693 239.419 131.693 239.419L160.104 282.23C160.104 282.23 201.083 255.943 196.1 255.757C191.117 255.571 189.627 246.508 189.627 246.508L167.968 257.33L167.236 253.478L166.061 254.652L163.03 252.267L148.9 234.442Z" fill="#CCCCCC"/>
<path d="M638.683 219.578C650.202 219.578 659.54 210.24 659.54 198.721C659.54 187.202 650.202 177.864 638.683 177.864C627.164 177.864 617.826 187.202 617.826 198.721C617.826 210.24 627.164 219.578 638.683 219.578Z" fill="#FFB6B6"/>
<path d="M705.62 229.412C703.213 232.822 699.7 235.296 695.677 236.412C694.067 236.891 692.405 237.173 690.728 237.252C690.52 235.355 690.024 233.501 689.256 231.754C689.334 233.613 689.076 235.472 688.493 237.24C685.973 237.097 683.51 236.437 681.257 235.301C679.043 234.187 677.12 232.573 675.639 230.587C674.158 228.6 673.161 226.296 672.725 223.857C671.842 218.152 674.428 212.551 675.363 206.854C676.303 201.158 674.54 193.944 668.964 192.447C664.717 191.306 665.193 191.799 661.663 194.42C665.335 199.849 651.772 219.746 646.222 218.011C643.084 217.03 641.075 214.15 640.427 214.15C636.065 221.665 644.279 234.327 636.001 236.956L636.683 236.274C641.68 230.128 631.235 217.119 636.232 210.972C637.626 209.252 639.11 207.215 638.699 205.04C638.308 202.973 635.027 201.879 634.066 203.577C635.795 199.618 633.243 194.334 629.018 193.317C625.265 192.412 625.333 193.527 621.567 194.012C621.321 192.385 620.861 190.797 620.199 189.29C620.268 190.914 620.078 192.538 619.637 194.102C618.307 194.076 617.022 193.612 615.983 192.781C612.911 190.306 613.533 185.108 616.274 182.272C619.019 179.437 623.098 178.416 626.989 177.756C628.12 169.88 649.849 169.059 652.729 176.928C653.956 171.052 661.312 168.002 667.029 169.825C672.747 171.648 676.715 176.988 678.803 182.616C680.892 188.239 681.476 194.291 682.762 200.15C684.049 206.009 686.224 211.976 690.702 215.969C695.18 219.958 702.476 221.279 707.194 217.573C707.88 219.531 708.095 221.624 707.821 223.681C707.548 225.737 706.794 227.701 705.62 229.412Z" fill="#2F2E41"/>
<path d="M901.295 277.007L898.375 291.657C898.155 292.777 897.925 293.917 897.675 295.047C895.234 294.542 892.704 294.683 890.335 295.457C892.214 298.143 893.899 300.96 895.375 303.887C893.535 309.557 890.835 314.797 886.315 318.587C883.296 321.062 879.69 322.718 875.846 323.394C872.001 324.07 868.047 323.744 864.365 322.447L864.495 321.867C859.635 312.437 862.275 300.547 868.315 291.837C871.395 287.54 875.046 283.682 879.165 280.367C883.245 276.967 887.655 273.917 892.025 270.907C893.006 270.233 894.167 269.865 895.358 269.853C896.549 269.841 897.717 270.184 898.712 270.839C899.707 271.494 900.484 272.431 900.944 273.529C901.404 274.628 901.526 275.839 901.295 277.007Z" fill="#E4E4E4"/>
<path d="M865.405 357.697C864.176 348.744 862.912 339.677 863.774 330.628C864.54 322.592 866.991 314.743 871.983 308.307C874.632 304.898 877.856 301.976 881.51 299.674C882.463 299.074 883.339 300.583 882.391 301.181C876.07 305.176 871.18 311.075 868.428 318.028C865.388 325.76 864.9 334.189 865.428 342.402C865.745 347.369 866.416 352.302 867.093 357.232C867.147 357.455 867.115 357.691 867.001 357.89C866.888 358.09 866.702 358.239 866.483 358.306C866.26 358.367 866.022 358.336 865.82 358.222C865.619 358.108 865.471 357.919 865.409 357.696L865.405 357.697Z" fill="#F2F2F2"/>
<path d="M934.941 504.989L1.19115 505.296C0.875955 505.295 0.573992 505.169 0.35144 504.946C0.128889 504.723 0.00390625 504.42 0.00390625 504.105C0.00390625 503.79 0.128889 503.488 0.35144 503.264C0.573992 503.041 0.875955 502.915 1.19115 502.914L934.941 502.607C935.256 502.608 935.558 502.734 935.781 502.957C936.003 503.18 936.128 503.483 936.128 503.798C936.128 504.113 936.003 504.415 935.781 504.639C935.558 504.862 935.256 504.988 934.941 504.989Z" fill="#CACACA"/>
<path d="M103.599 186.889C101.308 187.989 98.7435 186.335 96.7655 184.696L97.473 185.307C93.977 188.708 92.3425 193.602 91.5439 198.419C90.7444 203.231 90.6553 208.152 89.6487 212.93C88.6413 217.703 86.5517 222.499 82.6485 225.422C77.4195 229.338 70.2076 229.086 63.7906 227.886C63.7051 227.869 63.6255 227.856 63.54 227.838C65.2666 222.853 65.9684 217.57 65.6035 212.307C63.8834 217.581 60.9552 222.381 57.0522 226.324C52.7976 225.153 48.6448 223.64 44.6344 221.799C42.0396 220.604 39.2455 218.971 38.5253 216.206C37.8033 213.462 39.4799 210.583 41.7218 208.85C43.9636 207.117 46.7151 206.213 49.2691 204.979C51.8189 203.75 54.3421 201.998 55.363 199.353C57.7178 193.269 51.0098 186.288 53.624 180.307C54.9132 177.366 58.0708 175.767 61.0387 174.533C65.5694 172.656 70.2219 171.086 74.9644 169.836C79.1275 168.738 83.4745 167.885 87.7156 168.605C91.9566 169.324 96.1116 171.904 97.638 175.932C100.185 176.792 102.889 177.763 104.523 179.906C106.157 182.045 106.025 185.727 103.599 186.889Z" fill="#2F2E41"/>
<path d="M123.986 179.839C117.431 174.665 112.132 175.548 108.044 178.763C107.356 177.998 104.432 180.102 103.441 179.8L99.8594 186.524C98.0162 189.776 97.26 193.096 97.5579 194.965C94.1675 204.473 102.207 210.893 111.715 214.284C115.509 215.646 119.649 215.706 123.481 214.454L123.597 212.834L124.317 214.162C124.317 214.162 133.009 232.059 135.063 232.863C133.817 229.63 130.53 214.264 129.613 211.061C128.354 206.704 129.214 199.78 129.953 195.535C130.414 192.918 130.438 190.243 130.025 187.618L130.006 187.503L132.04 191.609L136.603 188.739C134.859 183.66 134.824 177.584 123.986 179.839Z" fill="#2F2E41"/>
</g>
<defs>
<clipPath id="clip0_431_9557">
<rect width="936.131" height="505.296" fill="white"/>
</clipPath>
</defs>
</svg>
